<?xml version="1.0" encoding="utf-8"?>
<!-- Generator: Adobe Illustrator 25.0.1, SVG Export Plug-In . SVG Version: 6.00 Build 0)  -->
<svg version="1.1" id="Capa_1" xmlns="http://www.w3.org/2000/svg" xmlns:xlink="http://www.w3.org/1999/xlink" x="0px" y="0px"
	 viewBox="0 0 1920 1080" style="enable-background:new 0 0 1920 1080;" xml:space="preserve">
<style type="text/css">
	.st0{clip-path:url(#SVGID_3_);}
	.st1{fill:url(#SVGID_4_);}
	.st2{fill:url(#SVGID_5_);}
	.st3{fill:url(#SVGID_6_);}
	.st4{fill:url(#SVGID_7_);}
	.st5{fill:url(#SVGID_8_);}
	.st6{fill:url(#SVGID_9_);}
	.st7{fill:url(#SVGID_10_);}
	.st8{fill:url(#SVGID_11_);}
	.st9{fill:url(#SVGID_12_);}
	.st10{fill:url(#SVGID_13_);}
	.st11{fill:url(#SVGID_14_);}
	.st12{fill:url(#SVGID_15_);}
</style>
<g>
	<defs>
		<rect id="SVGID_1_" y="-8.57" width="1920" height="1097.14"/>
	</defs>
	<radialGradient id="SVGID_2_" cx="960" cy="540" r="781.8346" gradientUnits="userSpaceOnUse">
		<stop  offset="0" style="stop-color:#FFFFFF"/>
		<stop  offset="0.5413" style="stop-color:#FCFCFC"/>
		<stop  offset="0.9754" style="stop-color:#F2F2F2"/>
		<stop  offset="1" style="stop-color:#F1F1F1"/>
	</radialGradient>
	<use xlink:href="#SVGID_1_"  style="overflow:visible;fill:url(#SVGID_2_);"/>
	<clipPath id="SVGID_3_">
		<use xlink:href="#SVGID_1_"  style="overflow:visible;"/>
	</clipPath>
	<g class="st0">
		<g>
			
				<radialGradient id="SVGID_4_" cx="3991.239" cy="-480.9107" r="471.8674" gradientTransform="matrix(0.3398 0.3398 -1.0749 1.0749 -1702.1573 -385.9449)" gradientUnits="userSpaceOnUse">
				<stop  offset="0" style="stop-color:#AEB4BA"/>
				<stop  offset="1" style="stop-color:#FFFFFF"/>
			</radialGradient>
			<path class="st1" d="M702,38.45l-945.9,945.9c133.44-13.73,359.86-155.3,575.23-370.67S688.26,171.89,702,38.45z"/>
			
				<radialGradient id="SVGID_5_" cx="-1652.4314" cy="-2741.415" r="471.8674" gradientTransform="matrix(-0.3398 -0.3398 1.0749 -1.0749 2672.3491 -2938.7947)" gradientUnits="userSpaceOnUse">
				<stop  offset="0" style="stop-color:#FFFFFF"/>
				<stop  offset="0.1465" style="stop-color:#D3D3D3"/>
				<stop  offset="0.4618" style="stop-color:#7A7A7A"/>
				<stop  offset="0.7188" style="stop-color:#383838"/>
				<stop  offset="0.9044" style="stop-color:#0F0F0F"/>
				<stop  offset="1" style="stop-color:#000000"/>
			</radialGradient>
			<path class="st2" d="M-243.9,984.35L702,38.45c-133.44,13.73-359.86,155.3-575.23,370.67S-230.17,850.91-243.9,984.35z"/>
		</g>
		<g>
			
				<radialGradient id="SVGID_6_" cx="3799.5984" cy="-471.6606" r="365.6665" gradientTransform="matrix(0.3398 0.3398 -1.0749 1.0749 -1702.1573 -385.9449)" gradientUnits="userSpaceOnUse">
				<stop  offset="0" style="stop-color:#AEB4BA"/>
				<stop  offset="1" style="stop-color:#FFFFFF"/>
			</radialGradient>
			<path class="st3" d="M507.42,76.65l-733.01,733.01c103.4-10.64,278.87-120.35,445.76-287.24
				C387.08,355.52,496.78,180.06,507.42,76.65z"/>
			
				<radialGradient id="SVGID_7_" cx="-1383.8914" cy="-2750.6653" r="365.667" gradientTransform="matrix(-0.3398 -0.3398 1.0749 -1.0749 2672.3491 -2938.7947)" gradientUnits="userSpaceOnUse">
				<stop  offset="0" style="stop-color:#FFFFFF"/>
				<stop  offset="0.1465" style="stop-color:#D3D3D3"/>
				<stop  offset="0.4618" style="stop-color:#7A7A7A"/>
				<stop  offset="0.7188" style="stop-color:#383838"/>
				<stop  offset="0.9044" style="stop-color:#0F0F0F"/>
				<stop  offset="1" style="stop-color:#000000"/>
			</radialGradient>
			<path class="st4" d="M-225.58,809.66L507.42,76.65C404.02,87.29,228.56,197,61.66,363.9
				C-105.24,530.79-214.94,706.26-225.58,809.66z"/>
		</g>
		<g>
			
				<radialGradient id="SVGID_8_" cx="3618.9739" cy="-427.3986" r="281.1896" gradientTransform="matrix(0.3398 0.3398 -1.0749 1.0749 -1702.1573 -385.9449)" gradientUnits="userSpaceOnUse">
				<stop  offset="0" style="stop-color:#AEB4BA"/>
				<stop  offset="1" style="stop-color:#FFFFFF"/>
			</radialGradient>
			<path class="st5" d="M303.41,137.13L-260.26,700.8c79.52-8.18,214.44-92.55,342.78-220.88S295.22,216.65,303.41,137.13z"/>
			
				<radialGradient id="SVGID_9_" cx="-1142.0979" cy="-2794.9272" r="281.1896" gradientTransform="matrix(-0.3398 -0.3398 1.0749 -1.0749 2672.3491 -2938.7947)" gradientUnits="userSpaceOnUse">
				<stop  offset="0" style="stop-color:#FFFFFF"/>
				<stop  offset="0.1465" style="stop-color:#D3D3D3"/>
				<stop  offset="0.4618" style="stop-color:#7A7A7A"/>
				<stop  offset="0.7188" style="stop-color:#383838"/>
				<stop  offset="0.9044" style="stop-color:#0F0F0F"/>
				<stop  offset="1" style="stop-color:#000000"/>
			</radialGradient>
			<path class="st6" d="M-260.26,700.8l563.67-563.67c-79.52,8.18-214.44,92.55-342.78,220.88
				C-167.71,486.35-252.08,621.28-260.26,700.8z"/>
		</g>
	</g>
	<g class="st0">
		<g>
			
				<radialGradient id="SVGID_10_" cx="-3104.4392" cy="-1721.2385" r="471.8675" gradientTransform="matrix(-0.3398 -0.3398 1.0749 -1.0749 2530.2361 -2171.4883)" gradientUnits="userSpaceOnUse">
				<stop  offset="0" style="stop-color:#AEB4BA"/>
				<stop  offset="1" style="stop-color:#FFFFFF"/>
			</radialGradient>
			<path class="st7" d="M1203.97,1148.46l945.9-945.9c-133.44,13.73-359.86,155.3-575.23,370.67
				C1359.27,788.6,1217.7,1015.02,1203.97,1148.46z"/>
			
				<radialGradient id="SVGID_11_" cx="5443.2471" cy="-1501.0874" r="471.8675" gradientTransform="matrix(0.3398 0.3398 -1.0749 1.0749 -1844.2705 381.3616)" gradientUnits="userSpaceOnUse">
				<stop  offset="0" style="stop-color:#FFFFFF"/>
				<stop  offset="0.1465" style="stop-color:#D3D3D3"/>
				<stop  offset="0.4618" style="stop-color:#7A7A7A"/>
				<stop  offset="0.7188" style="stop-color:#383838"/>
				<stop  offset="0.9044" style="stop-color:#0F0F0F"/>
				<stop  offset="1" style="stop-color:#000000"/>
			</radialGradient>
			<path class="st8" d="M2149.86,202.56l-945.9,945.9c133.44-13.73,359.86-155.3,575.23-370.67S2136.13,336,2149.86,202.56z"/>
		</g>
		<g>
			
				<radialGradient id="SVGID_12_" cx="-3296.0803" cy="-1711.9883" r="365.667" gradientTransform="matrix(-0.3398 -0.3398 1.0749 -1.0749 2530.2361 -2171.4883)" gradientUnits="userSpaceOnUse">
				<stop  offset="0" style="stop-color:#AEB4BA"/>
				<stop  offset="1" style="stop-color:#FFFFFF"/>
			</radialGradient>
			<path class="st9" d="M1398.54,1110.25l733.01-733.01c-103.4,10.64-278.87,120.35-445.76,287.24
				C1518.89,831.39,1409.18,1006.85,1398.54,1110.25z"/>
			
				<radialGradient id="SVGID_13_" cx="5711.7871" cy="-1510.3376" r="365.667" gradientTransform="matrix(0.3398 0.3398 -1.0749 1.0749 -1844.2705 381.3616)" gradientUnits="userSpaceOnUse">
				<stop  offset="0" style="stop-color:#FFFFFF"/>
				<stop  offset="0.1465" style="stop-color:#D3D3D3"/>
				<stop  offset="0.4618" style="stop-color:#7A7A7A"/>
				<stop  offset="0.7188" style="stop-color:#383838"/>
				<stop  offset="0.9044" style="stop-color:#0F0F0F"/>
				<stop  offset="1" style="stop-color:#000000"/>
			</radialGradient>
			<path class="st10" d="M2131.55,377.25l-733.01,733.01c103.4-10.64,278.87-120.35,445.76-287.24
				C2011.2,656.11,2120.9,480.65,2131.55,377.25z"/>
		</g>
		<g>
			
				<radialGradient id="SVGID_14_" cx="-3476.7043" cy="-1667.7264" r="281.1897" gradientTransform="matrix(-0.3398 -0.3398 1.0749 -1.0749 2530.2361 -2171.4883)" gradientUnits="userSpaceOnUse">
				<stop  offset="0" style="stop-color:#AEB4BA"/>
				<stop  offset="1" style="stop-color:#FFFFFF"/>
			</radialGradient>
			<path class="st11" d="M1602.55,1049.78l563.67-563.67c-79.52,8.18-214.44,92.55-342.78,220.88S1610.74,970.26,1602.55,1049.78z"
				/>
			
				<radialGradient id="SVGID_15_" cx="5953.5806" cy="-1554.5995" r="281.1897" gradientTransform="matrix(0.3398 0.3398 -1.0749 1.0749 -1844.2705 381.3616)" gradientUnits="userSpaceOnUse">
				<stop  offset="0" style="stop-color:#FFFFFF"/>
				<stop  offset="0.1465" style="stop-color:#D3D3D3"/>
				<stop  offset="0.4618" style="stop-color:#7A7A7A"/>
				<stop  offset="0.7188" style="stop-color:#383838"/>
				<stop  offset="0.9044" style="stop-color:#0F0F0F"/>
				<stop  offset="1" style="stop-color:#000000"/>
			</radialGradient>
			<path class="st12" d="M2166.22,486.11l-563.67,563.67c79.52-8.18,214.44-92.55,342.78-220.88S2158.04,565.62,2166.22,486.11z"/>
		</g>
	</g>
</g>
</svg>
