<?xml version="1.0" encoding="utf-8"?>
<!-- Generator: Adobe Illustrator 26.0.1, SVG Export Plug-In . SVG Version: 6.00 Build 0)  -->
<svg version="1.1" id="Capa_1" xmlns="http://www.w3.org/2000/svg" xmlns:xlink="http://www.w3.org/1999/xlink" x="0px" y="0px"
	 viewBox="0 0 380 110" style="enable-background:new 0 0 380 110;" xml:space="preserve">
<style type="text/css">
	.st0{fill:#781846;}
	.st1{fill:#FFFFFF;}
</style>
<g>
	<path class="st0" d="M44.7,18.1l16.6-0.4c5.1,0,9.6,0.4,13.4,1.3c3.8,0.9,7.3,2.3,10.6,4.4c6.5,4.2,9.8,11.9,9.8,23.3
		c0,19.2-11.7,28.7-35,28.7H34.1v-2.2l7.5-0.7V21l-7.5-0.9v-2.2C37.6,18,41.1,18.1,44.7,18.1 M73.8,22.7c-2.5-1-4.3-1.5-5.5-1.6
		c-1.1-0.1-2.5-0.2-4.2-0.3c-1.6-0.1-3.5-0.1-5.7-0.1c-2.2,0-4.8,0.1-7.9,0.4v51.2l9.4,0.3c5.9-0.2,10.2-1,13-2.2
		c7.6-3.5,11.4-11.4,11.5-23.7c0-4.8-0.5-8.9-1.6-12.4c-1.1-3.4-2.2-6-3.5-7.6C78.2,25,76.3,23.7,73.8,22.7 M103,75.3v-2.1l5.7-0.4
		V36.4l-7.6-0.3v-2l16-1.1v39.8l5.7,0.4v2.1H103z M117.6,19.4c0,1.4-0.5,2.6-1.5,3.6c-1,1-2.2,1.5-3.6,1.5c-1.5,0-2.7-0.5-3.6-1.5
		c-1-1-1.5-2.2-1.5-3.6c0-1.5,0.5-2.7,1.5-3.7c1-1,2.2-1.5,3.6-1.5c1.4,0,2.6,0.5,3.6,1.5C117.1,16.8,117.6,18,117.6,19.4
		 M140.1,76.3c-3.3,0-6-0.9-8.4-2.7c-2.3-1.8-3.5-4.3-3.5-7.6c0.1-4.4,2.3-7.7,6.6-9.9c4.4-2.2,10.6-3.3,18.7-3.3v-7.4
		c0-7.3-2.6-10.9-7.9-10.9c-2.7,0-4.9,1.1-6.5,3.3c-1.1,1.5-1.7,3.5-1.7,5.7c0,1,0.1,2,0.3,3.1c-0.8,0.6-1.6,0.9-2.4,0.9
		c-0.8,0-1.6-0.2-2.4-0.5c-1.8-0.7-2.7-2-2.7-3.9c0-2.6,0.9-4.8,2.8-6.5c3.1-2.8,7.3-4.2,12.8-4.2c5.4,0,9.4,1.2,11.8,3.5
		c2.5,2.3,3.7,6,3.7,10.9v26l7.2,0.3l0.1,2l-14.3,1l-0.8-7.6C150.9,73.8,146.4,76.3,140.1,76.3 M136.6,66.1c0,3.7,1.5,5.9,4.5,6.6
		c0.7,0.2,1.3,0.3,2,0.3c2.2,0,4.4-0.9,6.8-2.8c2.3-1.9,3.6-4.4,3.7-7.5v-7.4C142.3,55.4,136.6,59,136.6,66.1 M150,10.2
		c3,1.9,4.5,3.6,4.5,5c0,0.6-0.4,1.4-1.2,2.2c-4.5,4.2-8.7,7.8-12.5,10.7c-1-0.9-1.7-1.5-1.9-1.8C145.6,16.5,149.3,11.2,150,10.2
		 M190.9,73.3l-5.7-0.4V9.6l-16,1.8v2l7.6,0.3v59.1l-5.7,0.4v2.1h19.7V73.3z M239.8,54.4c0,6.3-1.9,11.6-5.7,15.7
		c-3.8,4.1-9.1,6.2-15.7,6.2c-6.6,0-11.8-2.1-15.7-6.2c-3.8-4.1-5.7-9.4-5.7-15.7c0-6.3,1.9-11.6,5.7-15.7c3.8-4.1,9.1-6.2,15.7-6.2
		c6.6,0,11.8,2.1,15.7,6.2C237.9,42.8,239.8,48,239.8,54.4 M206.4,54.4c0,13.2,4,19.8,12.1,19.8c8,0,12.1-6.6,12.1-19.8
		c0-6.4-0.9-11.3-2.7-14.7c-1.8-3.4-4.9-5.1-9.3-5.1c-4.3,0-7.5,1.7-9.3,5.1C207.3,43.1,206.4,48,206.4,54.4 M261,63.7
		c0,1.6,1.1,2.6,3.4,3.1c2.2,0.5,6.9,1.1,14,1.7c7.1,0.6,12.2,1.9,15.3,3.8c3.1,1.9,4.6,4.9,4.6,9.1c0,5.4-2.5,9.9-7.6,13.7
		c-5.1,3.8-11.6,5.7-19.6,5.7c-8,0-14-1.3-17.7-3.9c-3.8-2.6-5.7-6-5.7-10.3c0-2.8,0.9-5.5,2.8-8c1.9-2.5,4.6-4.3,8.1-5.3
		c-4.2-1.5-6.3-4-6.3-7.5c0-2.1,1.1-3.8,3.2-5.2c2.1-1.4,4.5-2.3,7.2-2.6c-4.3-1.2-7.7-3.4-10-6.4c-2.3-3.1-3.5-6.7-3.5-10.8
		c0-5.3,2-9.7,5.9-13.1c4-3.4,9.3-5.2,16-5.2c1.9,0,4,0.2,6.3,0.7c2-0.5,3.6-1.5,4.7-3.1c1.2-1.7,1.9-3.5,1.9-5.5
		c0-1.9-0.1-3.6-0.3-4.9c1-0.4,1.9-0.6,2.9-0.6c1,0,1.9,0.2,2.9,0.7c1.9,1,2.8,2.6,2.8,5c0,2.4-1.1,4.5-3.4,6.2
		c-2.3,1.8-5,2.8-8.1,3.1c3.7,1.4,6.6,3.5,8.6,6.4c2,2.9,3,6.3,3,10.2c0,5.8-2.2,10.2-6.7,13.4c-4.4,3.2-9.9,4.7-16.3,4.7
		c-2.4,0.1-4.4,0.6-5.9,1.6C261.7,61.6,261,62.6,261,63.7 M255.5,85.6c0,3.6,1.5,6.5,4.5,8.7c3,2.2,6.9,3.2,11.7,3.2
		c4.8,0,9.1-1.2,12.8-3.6c3.8-2.4,5.7-5.4,5.8-9.1c0-2.3-0.8-4.1-2.3-5.3c-1.3-1-3.1-1.7-5.5-2.1c-2.3-0.3-5.6-0.7-9.7-1.2
		c-4.2-0.4-7.7-1-10.7-1.6c-1.9,1-3.4,2.5-4.7,4.5C256.1,81.3,255.5,83.4,255.5,85.6 M270.3,56.8c3.8,0,6.7-1.5,8.6-4.4
		c1.9-3,2.8-6.8,2.8-11.5c0-10.7-3.5-16-10.6-16c-3.9,0-6.7,1.4-8.6,4.3c-1.9,2.9-2.8,6.8-2.8,11.7
		C259.6,51.5,263.2,56.8,270.3,56.8 M345.9,54.4c0,6.3-1.9,11.6-5.7,15.7c-3.8,4.1-9.1,6.2-15.7,6.2c-6.6,0-11.8-2.1-15.7-6.2
		c-3.8-4.1-5.7-9.4-5.7-15.7c0-6.3,1.9-11.6,5.7-15.7c3.8-4.1,9.1-6.2,15.7-6.2c6.6,0,11.8,2.1,15.7,6.2
		C344,42.8,345.9,48,345.9,54.4 M312.4,54.4c0,13.2,4,19.8,12.1,19.8c8,0,12.1-6.6,12.1-19.8c0-6.4-0.9-11.3-2.7-14.7
		c-1.8-3.4-4.9-5.1-9.3-5.1c-4.3,0-7.5,1.7-9.3,5.1C313.4,43.1,312.4,48,312.4,54.4"/>
	<rect x="199.8" y="78" class="st0" width="146" height="16"/>
	<path class="st1" d="M211.6,85.2c0,2-1.5,3.3-3.9,3.3h-2.6v3h-1v-9.6h3.6C210.2,81.9,211.6,83.1,211.6,85.2z M210.6,85.2
		c0-1.5-1-2.4-2.9-2.4h-2.6v4.8h2.6C209.6,87.6,210.6,86.7,210.6,85.2z M214.6,87.4v-5.5h1v5.5c0,2.3,1.1,3.3,2.9,3.3
		c1.9,0,3-1,3-3.3v-5.5h1v5.5c0,2.8-1.5,4.2-3.9,4.2S214.6,90.2,214.6,87.4z M219.5,79.4h1.3l-2.2,1.7h-1L219.5,79.4z M234.3,88.9
		c0,1.6-1.2,2.6-3.6,2.6h-4.4v-9.6h4.1c2.1,0,3.4,0.9,3.4,2.5c0,1.1-0.6,1.8-1.5,2.2C233.5,86.8,234.3,87.6,234.3,88.9z M227.2,82.7
		v3.5h3.1c1.5,0,2.4-0.6,2.4-1.7s-0.9-1.7-2.4-1.7H227.2z M233.2,88.9c0-1.2-0.9-1.8-2.6-1.8h-3.4v3.6h3.4
		C232.3,90.7,233.2,90.1,233.2,88.9z M237.2,81.9h1v8.7h5.4v0.9h-6.4V81.9z M246,81.9h1v9.6h-1V81.9z M250,86.7c0-2.8,2.1-4.9,5-4.9
		c1.4,0,2.7,0.5,3.5,1.4l-0.6,0.6c-0.8-0.8-1.7-1.1-2.8-1.1c-2.3,0-4.1,1.7-4.1,4c0,2.3,1.7,4,4.1,4c1.1,0,2.1-0.3,2.8-1.2l0.6,0.6
		c-0.9,0.9-2.1,1.4-3.5,1.4C252.1,91.6,250,89.5,250,86.7z M260.5,86.7c0-2.8,2.1-4.9,5.1-4.9c2.9,0,5,2.1,5,4.9
		c0,2.8-2.2,4.9-5,4.9C262.7,91.6,260.5,89.5,260.5,86.7z M269.6,86.7c0-2.3-1.7-4-4-4c-2.3,0-4.1,1.7-4.1,4c0,2.3,1.7,4,4.1,4
		C267.9,90.7,269.6,89,269.6,86.7z M284.7,90.6v0.9h-6.8v-9.6h6.6v0.9h-5.6v3.4h5v0.9h-5v3.6H284.7z M287.8,81.9h3.9
		c3.1,0,5.2,2,5.2,4.8c0,2.8-2.1,4.8-5.2,4.8h-3.9V81.9z M291.6,90.6c2.6,0,4.2-1.6,4.2-3.9s-1.6-3.9-4.2-3.9h-2.8v7.9H291.6z
		 M298.9,86.7c0-2.8,2.1-4.9,5.1-4.9c2.9,0,5,2.1,5,4.9c0,2.8-2.2,4.9-5,4.9C301.1,91.6,298.9,89.5,298.9,86.7z M308,86.7
		c0-2.3-1.7-4-4-4c-2.3,0-4.1,1.7-4.1,4c0,2.3,1.7,4,4.1,4C306.3,90.7,308,89,308,86.7z M322,81.9v9.6h-1v-7.7l-3.8,6.5h-0.5
		l-3.8-6.4v7.6h-1v-9.6h0.8L317,89l4.1-7.1H322z M332.6,90.6v0.9h-6.8v-9.6h6.6v0.9h-5.6v3.4h5v0.9h-5v3.6H332.6z M341.7,91.5
		l-3.1-4.2l-3.1,4.2h-1.2l3.7-4.9l-3.4-4.7h1.2l2.9,3.9l2.9-3.9h1.1l-3.4,4.6l3.7,5H341.7z"/>
</g>
</svg>
