<?xml version="1.0" encoding="utf-8"?>
<!-- Generator: Adobe Illustrator 25.0.1, SVG Export Plug-In . SVG Version: 6.00 Build 0)  -->
<svg version="1.1" id="Capa_1" xmlns="http://www.w3.org/2000/svg" xmlns:xlink="http://www.w3.org/1999/xlink" x="0px" y="0px"
	 viewBox="0 0 315 315" style="enable-background:new 0 0 315 315;" xml:space="preserve">
<style type="text/css">
	.st0{fill:#FFFFFF;}
	.st1{fill-rule:evenodd;clip-rule:evenodd;fill:#88898C;}
	.st2{fill-rule:evenodd;clip-rule:evenodd;fill:#FFFFFF;}
	.st3{fill:#88898C;}
	.st4{font-family:'Arial-Black';}
	.st5{font-size:24.1302px;}
</style>
<circle class="st0" cx="157.5" cy="157.5" r="156"/>
<g>
	<path class="st1" d="M157.6,289.5c1.4,0,2.5,1.1,2.5,2.5c0,1.4-1.1,2.5-2.5,2.5c-1.4,0-2.5-1.1-2.5-2.5
		C155.1,290.6,156.2,289.5,157.6,289.5 M157.5,286.1c3.2,0,5.8,2.6,5.8,5.9c0,3.3-2.6,5.9-5.8,5.9c-3.2,0-5.8-2.6-5.8-5.9
		C151.7,288.7,154.3,286.1,157.5,286.1z"/>
	<path class="st1" d="M157.5,76.2c45.2,0,82.1,37.4,82.1,83.2c0,45.8-36.9,83.2-82.1,83.2c-45.2,0-82.1-37.4-82.1-83.2
		C75.4,113.6,112.3,76.2,157.5,76.2 M157.4,87.1c39.6,0,71.8,32.7,71.8,72.8c0,40.1-32.3,72.8-71.8,72.8
		c-39.5,0-71.8-32.7-71.8-72.8C85.6,119.8,117.9,87.1,157.4,87.1z"/>
	<path class="st1" d="M79.6,205c15.6,27,44.8,45.5,77.8,45.5c32.7,0,60-19.2,77.3-44.7c0.1-0.2,21.7,12.9,21.7,13
		c-20.8,33.2-57.2,57.1-99,57c-42.1-0.1-79.2-23.5-99.2-57.8C58.2,218,79.6,205,79.6,205"/>
	<path class="st1" d="M157.5,68.3c-49.4,0.1-89.9,41-89.9,91.1c0,16.6,4.4,32.2,12.1,45.6c0,0.1-21.4,13-21.4,13
		c-9.9-17.2-15.6-37.2-15.6-58.6c0-64,51.7-116.4,114.9-116.5C157.6,43,157.5,68.3,157.5,68.3"/>
	<path class="st1" d="M157.5,43c63.2,0.1,114.5,52.1,114.8,116.5c0.1,21.7-5.7,42-15.8,59.3c-0.1,0.1-21.7-12.9-21.7-13
		c9.3-13.5,12.6-29.6,12.6-46.4c-0.1-50.1-40.5-91.1-89.9-91.1C157.4,68.3,157.4,43,157.5,43"/>
	<path class="st2" d="M235.2,227.8c1,0.8,1.8,1.2,2.5,1.2c0.7,0,1.3-0.3,1.8-1c0.5-0.6,0.7-1.3,0.6-2c-0.1-0.7-0.7-1.5-1.8-2.4
		c-0.9-0.8-1.7-1.1-2.4-1.1c-0.7,0-1.3,0.3-1.8,1c-0.5,0.6-0.7,1.3-0.6,2C233.7,226.2,234.2,226.9,235.2,227.8 M232.7,230.7
		c-1.6-1.3-2.4-2.8-2.5-4.4c-0.1-1.6,0.4-3.2,1.7-4.7c1.3-1.6,2.8-2.5,4.3-2.6c1.6-0.1,3.1,0.4,4.6,1.7c1.1,0.9,1.9,1.9,2.3,2.9
		c0.4,1,0.5,2,0.3,3.1c-0.2,1.1-0.7,2.1-1.6,3.2c-0.9,1.1-1.8,1.8-2.7,2.3c-0.9,0.4-1.9,0.5-3.1,0.4
		C234.9,232.2,233.8,231.7,232.7,230.7z M229.8,235.3l3.2-1.4c0.4,0.9,0.7,1.7,0.7,2.5c0,0.8-0.1,1.6-0.4,2.3
		c-0.3,0.7-0.9,1.5-1.8,2.2c-1,0.9-2,1.5-2.9,1.7c-0.9,0.3-1.9,0.2-3-0.1c-1.1-0.3-2.2-1.1-3.2-2.3c-1.3-1.6-2-3.1-1.9-4.7
		c0.1-1.6,0.9-3,2.4-4.3c1.2-1,2.3-1.6,3.4-1.7c1.1-0.1,2.2,0.2,3.4,0.9l-2.1,2.8c-0.3-0.2-0.6-0.3-0.8-0.4c-0.4-0.1-0.7-0.1-1,0
		c-0.3,0.1-0.6,0.3-0.9,0.5c-0.7,0.6-0.9,1.3-0.8,2.1c0.1,0.6,0.5,1.4,1.2,2.2c0.9,1,1.7,1.6,2.3,1.7c0.7,0.1,1.3-0.1,1.8-0.6
		c0.6-0.5,0.8-1,0.8-1.6C230.3,236.7,230.2,236,229.8,235.3z M213,239.3l3.1-2.3l7.3,10.1l-3.1,2.3L213,239.3z M200.6,247.2l3.6-2.2
		l3.8,2.2l-0.1-4.4l3.6-2.2l-0.2,7.2l6.9,3.3l-3.7,2.2l-4.1-2.2l0,4.7l-3.7,2.2l0.3-7.8L200.6,247.2z M190.3,251.3l9.5-3.9l1,2.5
		l-5.9,2.4l0.7,1.9l5.5-2.3l0.9,2.4l-5.5,2.3l0.9,2.3l6.1-2.5l1,2.6l-9.7,4L190.3,251.3z M174.7,255.5l4.9-1.2l3.7,6.9l0-7.9
		l4.9-1.2l3,12.2l-3,0.8l-2.3-9.3l-0.1,9.9l-2.8,0.7l-4.6-8.7l2.3,9.3l-3,0.8L174.7,255.5z M160.1,259.8l7.8-0.7l0.2,2l-4.9,0.4
		l0.1,1.5l4.5-0.4l0.2,1.9l-4.5,0.4l0.2,1.9l5-0.4l0.2,2.2l-7.9,0.7L160.1,259.8z M152.8,261.7l-0.2,5.2l0.7,0c0.6,0,1,0,1.3-0.2
		c0.3-0.1,0.5-0.4,0.6-0.7c0.1-0.3,0.2-0.9,0.3-1.7c0-1-0.1-1.7-0.4-2.1c-0.3-0.4-0.9-0.6-1.6-0.6L152.8,261.7z M149.9,259.4
		l4.3,0.2c0.9,0,1.5,0.2,2.1,0.4c0.5,0.3,0.9,0.6,1.3,1.1c0.3,0.5,0.6,1,0.7,1.6c0.1,0.6,0.2,1.2,0.2,1.9c0,1-0.2,1.8-0.4,2.4
		c-0.2,0.6-0.6,1-1,1.4c-0.4,0.4-0.9,0.6-1.3,0.7c-0.6,0.2-1.2,0.2-1.7,0.2l-4.3-0.1L149.9,259.4z M133.4,259.7
		c-0.3,1.2-0.3,2.2,0,2.8c0.3,0.6,0.9,1.1,1.6,1.3c0.8,0.2,1.5,0.1,2-0.3c0.6-0.4,1-1.3,1.3-2.7c0.3-1.1,0.3-2-0.1-2.7
		c-0.3-0.7-0.9-1.1-1.7-1.3c-0.7-0.2-1.4-0.1-2,0.4C134.2,257.6,133.7,258.4,133.4,259.7z M129.7,258.7c0.5-2,1.4-3.4,2.8-4.2
		c1.4-0.8,3-1,5-0.5c2,0.5,3.4,1.4,4.2,2.8c0.8,1.4,1,3,0.5,5c-0.3,1.4-0.9,2.5-1.6,3.3c-0.7,0.8-1.6,1.3-2.6,1.6
		c-1,0.3-2.2,0.2-3.5-0.1c-1.4-0.3-2.4-0.8-3.2-1.5c-0.8-0.7-1.3-1.5-1.7-2.6C129.4,261.4,129.4,260.1,129.7,258.7z M121.8,252.3
		l-2.5,6.3l0.9,0.4c0.7,0.3,1.3,0.4,1.7,0.4c0.4,0,0.8-0.2,1.1-0.6c0.3-0.3,0.7-1,1.1-1.9c0.5-1.2,0.6-2.2,0.4-2.8
		c-0.2-0.6-0.8-1.1-1.7-1.5L121.8,252.3z M119.3,248.2l5.3,2.2c1,0.4,1.8,0.9,2.4,1.5c0.5,0.5,0.9,1.2,1.1,1.9
		c0.2,0.7,0.3,1.5,0.2,2.2c-0.1,0.8-0.3,1.6-0.6,2.4c-0.5,1.3-1,2.2-1.6,2.7c-0.5,0.6-1.2,1-1.8,1.2c-0.7,0.3-1.3,0.4-2,0.3
		c-0.9-0.1-1.6-0.3-2.2-0.5l-5.3-2.2L119.3,248.2z M109.9,252.1l1.1-4.6l-3.5,3.1L109.9,252.1z M109.2,254.9l-3.7-2.3l-1.6,1.4
		l-3.3-2l10.4-8.3l3.6,2.2l-2.4,13.2l-3.4-2.1L109.2,254.9z M96.5,234.7l9.4,6.9l-1.8,2.5l-3.2-2.3l-5.5,7.6l-3.1-2.3l5.5-7.6
		l-3.2-2.3L96.5,234.7z M82.1,232.4l2.8,2.4c-0.4,0.5-0.6,0.9-0.6,1.3c-0.1,0.6,0.2,1.2,0.7,1.7c0.4,0.4,0.8,0.6,1.2,0.6
		c0.4,0,0.7-0.1,0.9-0.3c0.2-0.2,0.3-0.5,0.3-0.9c0-0.4-0.3-1-0.9-1.9c-0.9-1.5-1.5-2.7-1.5-3.6c-0.1-1,0.2-1.8,0.9-2.5
		c0.4-0.5,1-0.8,1.6-0.9c0.7-0.2,1.4-0.1,2.1,0.2c0.8,0.3,1.6,0.9,2.5,1.8c1.1,1.1,1.8,2.2,2,3.2c0.2,1-0.1,2-0.9,3.1l-2.7-2.4
		c0.3-0.5,0.5-0.9,0.4-1.3c0-0.4-0.3-0.8-0.7-1.1c-0.3-0.3-0.6-0.5-0.9-0.5c-0.3,0-0.5,0.1-0.7,0.3c-0.1,0.1-0.2,0.3-0.2,0.6
		c0,0.3,0.2,0.7,0.6,1.2c1,1.4,1.6,2.5,1.8,3.3c0.3,0.8,0.3,1.5,0.2,2.1c-0.1,0.6-0.4,1.2-0.9,1.7c-0.5,0.6-1.2,1-2,1.1
		c-0.8,0.2-1.6,0.1-2.4-0.2c-0.8-0.3-1.6-0.9-2.5-1.7c-1.5-1.5-2.3-2.8-2.3-4C80.9,234.5,81.3,233.4,82.1,232.4z M80.5,217.4
		l6.3,8.2l-2.1,1.7l-3.9-5.1l-1.6,1.2l3.7,4.7l-2,1.6l-3.7-4.7l-1.9,1.5l4.1,5.3l-2.2,1.8l-6.4-8.3L80.5,217.4z M193.6,246.2
		l2.8-1.1l-1.6,3.4l-1.6,0.6L193.6,246.2z"/>
	<path class="st1" d="M117,294.4c3.8-0.6,16.4-2.6,20.7-3.3C134.3,288.7,119.6,291.1,117,294.4 M136.9,292.7
		c-4.9,0.8-15.9,2.5-19.6,3.1C120.9,297.7,132.2,296.3,136.9,292.7z M121.6,278.2l15.5,8.7C136.1,283.6,125.8,277.9,121.6,278.2z
		 M135.4,287.8l-14.9-8.4C121.8,283.2,129.7,288.2,135.4,287.8z M145.5,288.9l-1.6,0c-1.7-1.7-3-3-4.6-4.5
		c-8.5-7.5-17.4-10.4-24.7-9c1.1,5,6.5,9.8,10.8,12.8c-7.1,1.3-12.3,5.4-13.4,8.9c9.4,4.9,20.9,2.5,31.4-4.7l2.1-0.1V288.9z"/>
	<path class="st1" d="M85.2,281.3c3.8,0.2,16.6,0.7,20.9,0.8C103.2,279.1,88.3,278.5,85.2,281.3 M105,283.5
		c-5-0.2-16.1-0.6-19.8-0.8C88.4,285.3,99.8,286.1,105,283.5z M92.8,266.3l13.5,11.6C106,274.5,97,266.8,92.8,266.3z M104.5,278.4
		l-13-11.1C92,271.2,98.8,277.6,104.5,278.4z M114.2,281.4l-1.6-0.4c-1.3-2-2.3-3.6-3.7-5.3c-6.9-9-15-13.6-22.5-13.6
		c0.1,5.1,4.5,10.9,8.1,14.7c-7.2-0.2-13.1,2.9-14.9,6c8.3,6.7,20,6.6,31.7,1.5l2.1,0.3L114.2,281.4z"/>
	<path class="st1" d="M57.2,258.7c3.6,1.3,15.6,5.5,19.8,7C75.1,261.9,61,257,57.2,258.7 M75.6,266.7c-4.7-1.7-15.2-5.4-18.7-6.6
		C59.2,263.5,69.8,267.7,75.6,266.7z M68.8,246.6l9.6,15.1C79.2,258.4,72.7,248.4,68.8,246.6z M76.6,261.7l-9.2-14.5
		C66.7,251.1,71.3,259.3,76.6,261.7z M84.9,267.4l-1.4-0.8c-0.7-2.3-1.2-4.1-2-6.1c-4-10.7-10.5-17.5-17.6-19.7
		c-1.4,4.9,1.2,11.8,3.6,16.5c-6.8-2.3-13.4-1.1-15.9,1.4c6,8.8,17.2,12.2,29.9,10.8l1.9,0.9L84.9,267.4z"/>
	<path class="st1" d="M34.9,231c3.2,2.2,13.6,9.6,17.2,12.2C51.3,239,39,230.4,34.9,231 M50.4,243.7c-4.1-2.9-13.2-9.3-16.2-11.5
		C35.5,236.1,44.6,243.1,50.4,243.7z M49.3,222.5l5.2,17.2C56.1,236.7,52.5,225.3,49.3,222.5z M52.7,239.2l-5-16.5
		C46,226.3,48.3,235.4,52.7,239.2z M59.2,247l-1.1-1.2c-0.1-2.4-0.1-4.3-0.3-6.5c-1-11.4-5.4-19.7-11.7-23.8c-2.6,4.4-2,11.7-1,16.8
		c-6-4-12.6-4.7-15.7-3c3.4,10.2,13.3,16.4,25.9,18.6l1.6,1.4L59.2,247z"/>
	<path class="st1" d="M21.5,198.6c2.4,3,10.5,13,13.2,16.5C35.1,210.8,25.6,199.2,21.5,198.6 M33,215.1
		c-3.1-3.9-10.1-12.6-12.5-15.6C20.7,203.7,27.6,212.9,33,215.1z M37.6,194.4l0.4,18C40.4,209.9,40.1,198,37.6,194.4z M36.4,211.4
		l-0.4-17.2C33.5,197.1,33.3,206.6,36.4,211.4z M40.6,220.7l-0.8-1.4c0.6-2.4,1.1-4.2,1.5-6.3c2.1-11.2,0.1-20.5-4.8-26.1
		c-3.7,3.5-5.1,10.6-5.5,15.9c-4.6-5.5-10.8-8-14.3-7.3c0.6,10.7,8.4,19.5,19.9,25.1l1.2,1.8L40.6,220.7z"/>
	<path class="st1" d="M15,164.6c1.7,3.5,7.2,15.1,9.1,19.1C25.5,179.8,18.9,166.2,15,164.6 M22.4,183.4c-2.1-4.5-6.9-14.7-8.6-18.1
		C13.1,169.4,17.7,180,22.4,183.4z M31.7,164.4L27.9,182C30.8,180.1,33.2,168.4,31.7,164.4z M26.6,180.7l3.6-16.9
		C27,166.1,24.6,175.2,26.6,180.7z M28.5,190.7l-0.4-1.6c1.1-2.2,2-3.8,2.9-5.8c4.6-10.4,4.9-19.8,1.4-26.5c-4.4,2.5-7.4,9.1-9,14.1
		c-3.2-6.5-8.7-10.4-12.2-10.5c-2,10.6,3.6,21,13.5,29.1l0.7,2L28.5,190.7z"/>
	<path class="st1" d="M19.6,127c0.5,3.9,2.3,16.6,2.9,21C25,144.6,22.8,129.7,19.6,127 M21,147.2c-0.7-5-2.2-16.1-2.7-19.9
		C16.3,130.9,17.5,142.4,21,147.2z M35.5,131.9l-8.9,15.6C29.9,146.6,35.7,136.2,35.5,131.9z M25.8,145.8l8.5-14.9
		C30.6,132.1,25.5,140,25.8,145.8z M24.6,156l0.1-1.6c1.7-1.7,3.1-3,4.5-4.6c7.5-8.5,10.6-17.4,9.3-24.9c-4.9,1-9.8,6.4-12.8,10.7
		c-1.1-7.2-5.2-12.5-8.5-13.8c-5,9.5-2.8,21.1,4.1,31.9l0.1,2.2L24.6,156z"/>
	<path class="st1" d="M32.9,92.3c-0.5,3.9-2.3,16.6-2.9,21C33.2,110.7,35.2,95.8,32.9,92.3 M28.7,112.1c0.7-5,2.3-16.1,2.8-19.9
		C28.6,95.1,26.6,106.5,28.7,112.1z M46.8,101.4l-12.8,12.5C37.4,114,45.9,105.7,46.8,101.4z M33.7,112.1l12.2-12
		C42,100.2,35,106.4,33.7,112.1z M29.8,121.5l0.5-1.6c2.1-1.2,3.8-2,5.6-3.2c9.5-6.1,14.9-13.8,15.7-21.3c-5-0.4-11.2,3.4-15.2,6.7
		c0.9-7.2-1.5-13.5-4.4-15.6c-7.4,7.7-8.5,19.5-4.7,31.8l-0.5,2.1L29.8,121.5z"/>
	<path class="st1" d="M54.5,63.6c-1.6,3.5-6.8,15.3-8.6,19.4C49.8,81.4,55.8,67.6,54.5,63.6 M45,81.5c2-4.6,6.6-14.8,8.1-18.3
		C49.6,65.1,44.6,75.5,45,81.5z M65.4,76.4l-15.7,8.4C52.9,85.8,63.3,80.2,65.4,76.4z M49.8,82.9l15-8
		C61.1,73.8,52.7,77.8,49.8,82.9z M43.5,90.8l0.9-1.4c2.4-0.5,4.2-0.9,6.2-1.5c10.8-3.1,18.1-9,20.9-16c-4.7-1.8-11.7,0.1-16.5,2.1
		c2.8-6.7,2.2-13.4,0-16.2c-9.2,5.3-13.5,16.3-13.3,29.2L40.8,89L43.5,90.8z"/>
	<path class="st1" d="M81.2,41.9c-2.4,3-10.5,13-13.3,16.4C72,57.9,81.4,46.2,81.2,41.9 M67.5,56.6c3.1-3.9,10.2-12.6,12.6-15.5
		C76.1,42.1,68.6,50.8,67.5,56.6z M88.4,57.1l-17.3,3.9C74,62.9,85.4,60.2,88.4,57.1z M71.7,59.3l16.6-3.7
		C85,53.5,75.8,55.2,71.7,59.3z M63.6,65.3l1.2-1.1c2.4,0.1,4.2,0.3,6.4,0.2c11.3-0.1,19.8-3.9,24.3-9.9c-4.1-3-11.3-3-16.5-2.3
		c4.4-5.7,5.6-12.3,4.2-15.7C73,39.2,66,48.8,62.9,61.3l-1.5,1.5L63.6,65.3z"/>
	<path class="st1" d="M111.2,27.3C108.2,29.6,98,37.4,94.5,40C98.6,40.6,110.5,31.5,111.2,27.3 M94.4,38.3c4-3,12.8-9.8,15.8-12
		C106.2,26.3,96.9,32.9,94.4,38.3z M114.7,43.8l-17.8-0.3C99.3,45.9,111.1,46.1,114.7,43.8z M98,41.9l17,0.3
		C112.2,39.5,102.9,38.9,98,41.9z M88.7,45.8l1.5-0.7c2.3,0.7,4.1,1.3,6.1,1.8c11,2.5,20.2,0.9,25.9-3.8c-3.3-3.9-10.3-5.6-15.5-6.2
		c5.6-4.5,8.3-10.7,7.7-14.2c-10.6,0.1-19.6,7.7-25.5,19.1l-1.8,1.1L88.7,45.8z"/>
	<path class="st1" d="M144.8,19.9c-3.5,1.7-15,7.2-18.9,9.1C129.8,30.4,143.3,23.8,144.8,19.9 M126.2,27.3c4.5-2.1,14.5-7,17.9-8.6
		C140.1,17.9,129.7,22.5,126.2,27.3z M145,36.8l-17.3-3.9C129.5,35.8,141,38.3,145,36.8z M129,31.5l16.6,3.8
		C143.3,32,134.4,29.6,129,31.5z M119.1,33.4l1.6-0.4c2.1,1.2,3.7,2.1,5.7,3c10.3,4.7,19.6,5,26.2,1.5c-2.5-4.5-9-7.6-13.9-9.2
		c6.4-3.2,10.2-8.7,10.4-12.4c-10.4-2-20.7,3.6-28.8,13.6l-2,0.7L119.1,33.4z"/>
	<path class="st1" d="M198,294.3c-3.8-0.6-16.4-2.6-20.7-3.3C180.7,288.5,195.4,291,198,294.3 M178.1,292.5
		c4.9,0.8,15.9,2.5,19.6,3.1C194.1,297.6,182.7,296.1,178.1,292.5z M193.4,278l-15.5,8.7C178.8,283.5,189.2,277.7,193.4,278z
		 M179.6,287.7l14.9-8.4C193.2,283.1,185.3,288,179.6,287.7z M169.5,288.7l1.6,0c1.7-1.7,3-3.1,4.6-4.5c8.5-7.5,17.4-10.4,24.7-9
		c-1.1,5-6.5,9.8-10.8,12.8c7,1.3,12.3,5.4,13.4,8.8c-9.4,4.9-20.9,2.5-31.4-4.7l-2.1-0.1L169.5,288.7z"/>
	<path class="st1" d="M229.8,281.1c-3.8,0.2-16.6,0.7-20.9,0.9C211.8,278.9,226.7,278.4,229.8,281.1 M210,283.4
		c4.9-0.2,16-0.7,19.8-0.8C226.6,285.1,215.2,286,210,283.4z M222.2,266.1l-13.5,11.6C209,274.3,218,266.7,222.2,266.1z
		 M210.5,278.3l13-11.1C223,271.1,216.1,277.5,210.5,278.3z M200.8,281.3l1.6-0.4c1.4-2,2.4-3.6,3.7-5.3c6.9-9,15-13.7,22.5-13.7
		c-0.1,5.1-4.5,10.9-8.1,14.7c7.2-0.1,13.1,2.9,14.9,6.1c-8.3,6.7-20,6.6-31.7,1.5l-2.1,0.3L200.8,281.3z"/>
	<path class="st1" d="M257.8,258.6c-3.6,1.3-15.7,5.5-19.8,7C239.8,261.8,254,256.9,257.8,258.6 M239.4,266.5
		c4.7-1.6,15.2-5.3,18.7-6.6C255.8,263.4,245.2,267.5,239.4,266.5z M246.2,246.5l-9.6,15.1C235.8,258.2,242.3,248.2,246.2,246.5z
		 M238.4,261.6l9.2-14.5C248.3,251,243.6,259.1,238.4,261.6z M230.1,267.3l1.4-0.8c0.7-2.3,1.2-4.1,2-6.1
		c4-10.6,10.5-17.5,17.6-19.7c1.4,4.9-1.2,11.8-3.6,16.4c6.8-2.3,13.4-1.1,15.9,1.4c-6,8.9-17.2,12.2-29.9,10.8l-1.9,0.9
		L230.1,267.3z"/>
	<path class="st1" d="M280.1,230.9c-3.2,2.2-13.6,9.6-17.2,12.2C263.7,238.9,276,230.3,280.1,230.9 M264.6,243.6
		c4.1-2.9,13.2-9.3,16.2-11.5C279.5,236,270.4,242.9,264.6,243.6z M265.7,222.4l-5.2,17.2C258.9,236.5,262.4,225.1,265.7,222.4z
		 M262.3,239.1l5-16.5C269,226.1,266.7,235.3,262.3,239.1z M255.8,246.8l1.1-1.2c0.1-2.4,0.1-4.3,0.3-6.4c1-11.4,5.4-19.7,11.7-23.8
		c2.6,4.4,2.1,11.6,1,16.8c5.9-4,12.6-4.7,15.7-3c-3.4,10.2-13.3,16.5-25.9,18.6l-1.6,1.4L255.8,246.8z"/>
	<path class="st1" d="M293.5,198.4c-2.4,3-10.5,13-13.2,16.5C279.9,210.7,289.4,199,293.5,198.4 M282,215
		c3.1-3.9,10.2-12.6,12.5-15.6C294.3,203.5,287.4,212.7,282,215z M277.4,194.2l-0.4,18C274.6,209.8,274.9,197.8,277.4,194.2z
		 M278.6,211.3l0.4-17.2C281.5,197,281.7,206.4,278.6,211.3z M274.4,220.5l0.8-1.4c-0.6-2.4-1.1-4.2-1.5-6.3
		c-2.1-11.2-0.1-20.5,4.8-26.1c3.7,3.5,5.1,10.7,5.5,15.9c4.6-5.5,10.8-8,14.3-7.3c-0.6,10.8-8.4,19.5-19.9,25.1l-1.2,1.8
		L274.4,220.5z"/>
	<path class="st1" d="M300,164.4c-1.7,3.5-7.2,15.2-9.1,19.2C289.6,179.6,296.1,166,300,164.4 M292.6,183.3
		c2.1-4.5,6.9-14.7,8.6-18.1C301.9,169.2,297.3,179.8,292.6,183.3z M283.3,164.2l3.8,17.6C284.2,180,281.8,168.3,283.3,164.2z
		 M288.4,180.5l-3.6-16.8C288,165.9,290.4,175,288.4,180.5z M286.5,190.5l0.4-1.6c-1.1-2.2-2-3.8-2.9-5.7
		c-4.6-10.4-4.9-19.9-1.4-26.5c4.4,2.5,7.4,9.1,9,14.2c3.2-6.5,8.7-10.4,12.2-10.5c1.9,10.6-3.6,21-13.5,29.1l-0.7,2L286.5,190.5z"
		/>
	<path class="st1" d="M295.4,126.8c-0.5,3.9-2.3,16.6-2.9,21C290.1,144.5,292.2,129.5,295.4,126.8 M294,147.1
		c0.7-5,2.2-16.1,2.7-19.9C298.7,130.8,297.5,142.3,294,147.1z M279.5,131.8l8.9,15.6C285.1,146.5,279.3,136.1,279.5,131.8z
		 M289.2,145.7l-8.5-14.9C284.4,131.9,289.5,139.8,289.2,145.7z M290.4,155.8l-0.1-1.7c-1.7-1.7-3.1-3-4.5-4.6
		c-7.5-8.5-10.6-17.4-9.3-24.8c4.9,1,9.8,6.4,12.8,10.7c1.1-7.2,5.2-12.5,8.5-13.7c5,9.5,2.8,21.1-4.2,31.9l-0.1,2.1L290.4,155.8z"
		/>
	<path class="st1" d="M282.1,92.1c0.5,3.9,2.3,16.6,3,21C281.8,110.6,279.8,95.6,282.1,92.1 M286.3,111.9c-0.7-5-2.3-16.1-2.8-19.9
		C286.4,95,288.4,106.4,286.3,111.9z M268.2,101.3l12.8,12.5C277.6,113.9,269.1,105.5,268.2,101.3z M281.3,112l-12.2-12
		C273,100.1,280,106.3,281.3,112z M285.2,121.4l-0.5-1.6c-2.1-1.2-3.8-2-5.6-3.2c-9.5-6.1-14.9-13.8-15.7-21.3
		c5-0.4,11.2,3.4,15.2,6.7c-0.9-7.2,1.5-13.5,4.4-15.6c7.4,7.7,8.4,19.5,4.7,31.8l0.5,2.1L285.2,121.4z"/>
	<path class="st1" d="M260.5,63.4c1.6,3.6,6.8,15.3,8.6,19.4C265.2,81.3,259.2,67.5,260.5,63.4 M270,81.3c-2-4.6-6.6-14.8-8.1-18.3
		C265.4,65,270.4,75.4,270,81.3z M249.6,76.2l15.7,8.4C262.1,85.6,251.7,80,249.6,76.2z M265.2,82.7l-15.1-8
		C253.9,73.7,262.3,77.7,265.2,82.7z M271.5,90.7l-0.9-1.4c-2.4-0.5-4.2-0.9-6.2-1.5c-10.8-3.1-18.1-9-20.9-16
		c4.7-1.8,11.7,0.1,16.5,2.1c-2.8-6.7-2.2-13.4,0-16.2c9.2,5.3,13.5,16.3,13.3,29.2l1,1.9L271.5,90.7z"/>
	<path class="st1" d="M233.8,41.8c2.4,3,10.5,13,13.3,16.4C243,57.7,233.5,46,233.8,41.8 M247.5,56.5c-3.2-3.9-10.2-12.6-12.6-15.5
		C238.9,42,246.4,50.7,247.5,56.5z M226.6,57l17.3,3.9C241,62.8,229.6,60.1,226.6,57z M243.3,59.2l-16.6-3.7
		C230,53.4,239.2,55,243.3,59.2z M251.4,65.1l-1.2-1.1c-2.4,0.1-4.2,0.3-6.4,0.2c-11.3-0.1-19.8-3.9-24.3-9.9c4.1-3,11.3-3,16.4-2.3
		c-4.4-5.7-5.6-12.3-4.2-15.7c10.3,2.7,17.2,12.2,20.4,24.7l1.5,1.5L251.4,65.1z"/>
	<path class="st1" d="M203.8,27.1c3.1,2.3,13.3,10.1,16.7,12.7C216.4,40.4,204.5,31.3,203.8,27.1 M220.5,38.2
		c-4-3-12.8-9.8-15.8-12.1C208.8,26.1,218.1,32.8,220.5,38.2z M200.3,43.6l17.7-0.3C215.7,45.8,203.9,45.9,200.3,43.6z M217,41.8
		l-17,0.3C202.8,39.3,212.1,38.7,217,41.8z M226.3,45.6l-1.5-0.7c-2.3,0.7-4.1,1.3-6.1,1.8c-11,2.5-20.2,0.9-25.9-3.8
		c3.3-3.9,10.3-5.6,15.5-6.2c-5.6-4.5-8.3-10.6-7.8-14.2c10.6,0.1,19.6,7.7,25.5,19.1l1.8,1.1L226.3,45.6z"/>
	<path class="st1" d="M170.2,19.7c3.5,1.7,15,7.2,18.9,9.1C185.2,30.2,171.7,23.7,170.2,19.7 M188.8,27.1c-4.5-2.1-14.5-7-17.9-8.6
		C174.9,17.7,185.3,22.3,188.8,27.1z M170,36.6l17.3-3.9C185.5,35.6,174,38.1,170,36.6z M186,31.4l-16.6,3.8
		C171.7,31.9,180.6,29.4,186,31.4z M195.9,33.3l-1.6-0.4c-2.1,1.2-3.7,2.1-5.7,3c-10.3,4.7-19.6,5-26.2,1.5c2.4-4.5,9-7.6,13.9-9.2
		c-6.4-3.2-10.2-8.8-10.4-12.4c10.4-2,20.7,3.6,28.8,13.6l2,0.7L195.9,33.3z"/>
	<text transform="matrix(0.6293 -0.7771 0.7771 0.6293 81.1371 107.1047)" class="st3 st4 st5"> </text>
	<g>
		<path class="st0" d="M53.2,199l-1.7-5.5l13.5-4.2l-2.7-8.6l4.4-1.4l4.4,14.1L53.2,199z"/>
		<path class="st0" d="M46.1,169.3l0-6.4l5.7-3.3l-5.8-3.2l0-6.3l9.1,5.8l9.6-6.4l0,6.5l-6,3.7l6,3.7l0,6.5l-9.8-6.4L46.1,169.3z"/>
		<path class="st0" d="M56,112.8l2.7-5.1l12.4,6.7l4.3-8l4.1,2.2l-7,13.1L56,112.8z"/>
		<path class="st0" d="M73.2,86.1l11-11l2.8,2.8l-6.9,6.9l2.1,2.1l6.3-6.4l2.7,2.7l-6.4,6.4l2.6,2.6l7-7.1l3,3L86.5,99.3L73.2,86.1z
			"/>
		<path class="st0" d="M112.5,70.6l-1.8-3.5l8-4.1l3.6,7.1c-1,1.8-2,3.2-3,4.2c-1,1-2.3,1.9-3.9,2.7c-2,1-3.8,1.5-5.4,1.5
			c-1.6,0-3.1-0.5-4.4-1.5c-1.4-1-2.5-2.3-3.4-4.1c-0.9-1.8-1.4-3.6-1.3-5.3c0-1.7,0.6-3.3,1.7-4.8c0.9-1.1,2.2-2.2,4.1-3.1
			c1.8-0.9,3.3-1.5,4.4-1.6c1.1-0.1,2.1,0,3.1,0.4c1,0.4,1.9,1,2.7,2l-4.5,3.4c-0.5-0.5-1.1-0.8-1.8-0.9c-0.7-0.1-1.4,0.1-2.1,0.5
			c-1.1,0.6-1.8,1.4-2.1,2.6c-0.3,1.1,0,2.5,0.9,4.2c0.9,1.8,1.9,2.9,3,3.3c1.1,0.4,2.2,0.3,3.4-0.3c0.6-0.3,1.1-0.7,1.5-1.1
			c0.4-0.4,0.9-1,1.3-1.8l-0.8-1.6L112.5,70.6z"/>
		<path class="st0" d="M132,50.8l5.7-1.2l3.8,18.3l-5.7,1.2L132,50.8z"/>
		<path class="st0" d="M153.9,60.2l5.5-0.1c0.1,0.9,0.3,1.6,0.6,2.1c0.6,0.8,1.4,1.2,2.5,1.3c0.8,0,1.5-0.1,1.9-0.5
			c0.5-0.4,0.7-0.8,0.7-1.3c0-0.5-0.2-0.9-0.6-1.3c-0.4-0.4-1.4-0.8-2.9-1.2c-2.5-0.7-4.3-1.5-5.3-2.5c-1-1-1.5-2.2-1.4-3.7
			c0-1,0.4-1.9,1-2.7c0.6-0.8,1.5-1.5,2.6-1.9c1.1-0.4,2.7-0.6,4.6-0.5c2.4,0.1,4.2,0.7,5.4,1.6c1.2,0.9,1.9,2.4,2,4.3l-5.5,0
			c-0.1-0.8-0.4-1.5-0.8-1.9c-0.4-0.4-1.1-0.6-1.9-0.7c-0.7,0-1.2,0.1-1.5,0.4c-0.4,0.3-0.6,0.6-0.6,1c0,0.3,0.1,0.6,0.4,0.8
			c0.3,0.3,0.9,0.5,1.9,0.8c2.5,0.7,4.3,1.3,5.3,1.9c1.1,0.6,1.8,1.3,2.3,2.2c0.5,0.8,0.7,1.8,0.6,2.8c-0.1,1.2-0.4,2.3-1.2,3.3
			c-0.7,1-1.7,1.7-2.9,2.2c-1.2,0.5-2.7,0.6-4.5,0.6c-3.2-0.2-5.4-0.9-6.5-2.2C154.6,63.7,154,62.1,153.9,60.2z"/>
		<path class="st0" d="M188.4,52.1l5.5,1.9l-4.8,13.3l8.5,3l-1.6,4.3l-14-5L188.4,52.1z"/>
		<path class="st0" d="M217.3,84.6l-5.3-3.9l-2.6,1.9l-4.7-3.5l16.9-10.8l5,3.8l-5.6,19.2l-4.8-3.6L217.3,84.6z M218.8,80.7l2.4-6.6
			l-5.7,4.2L218.8,80.7z"/>
		<path class="st0" d="M241.4,85.8l10.5,14.1l-3.7,2.8l-3.5-4.7l-11.3,8.4l-3.5-4.6l11.3-8.4l-3.5-4.7L241.4,85.8z"/>
		<path class="st0" d="M263.9,126.8l1.8,5.5l-10.6,3.6c-1.1,0.3-2.1,0.5-3.1,0.5c-1,0-2-0.3-3-0.7c-0.9-0.5-1.7-1-2.2-1.7
			c-0.8-0.9-1.4-2.1-1.9-3.6c-0.3-0.9-0.6-1.8-0.8-2.9c-0.2-1.1-0.3-2-0.1-2.8c0.1-0.8,0.4-1.6,0.9-2.4c0.5-0.8,1-1.4,1.7-1.9
			c1-0.7,1.9-1.2,2.8-1.5l10.6-3.6l1.8,5.5l-10.8,3.6c-1,0.3-1.6,0.8-2,1.6c-0.4,0.7-0.4,1.6-0.1,2.5c0.3,0.9,0.8,1.6,1.6,2
			c0.7,0.4,1.6,0.4,2.5,0L263.9,126.8z"/>
		<path class="st0" d="M249.8,150.9l18.7-0.3l0.2,9.6c0,1.8-0.1,3.2-0.4,4.1c-0.3,1-0.8,1.7-1.7,2.3c-0.8,0.6-1.8,0.9-3,0.9
			c-1,0-1.9-0.2-2.7-0.6c-0.8-0.4-1.4-1-1.9-1.8c-0.3-0.5-0.6-1.2-0.8-2c-0.2,0.7-0.4,1.2-0.7,1.5c-0.2,0.2-0.5,0.5-1,0.9
			c-0.5,0.4-0.9,0.7-1.1,0.8l-5.4,2.9l-0.1-6.5l5.7-3.2c0.7-0.4,1.2-0.8,1.4-1.1c0.3-0.4,0.4-0.9,0.4-1.4v-0.5l-7.6,0.1L249.8,150.9
			z M261.1,156.5l0,2.4c0,0.3,0.1,0.8,0.3,1.5c0.1,0.4,0.3,0.7,0.6,0.9c0.3,0.2,0.7,0.3,1.1,0.3c0.6,0,1.1-0.2,1.4-0.6
			c0.3-0.4,0.5-1.1,0.5-2.2l0-2.5L261.1,156.5z"/>
		<path class="st0" d="M247.5,191.7l2-6.3l-2.7-1.8l1.8-5.6l15.7,12.4l-1.9,6l-20,0.9l1.9-5.8L247.5,191.7z M251.7,191.8l7.1,0.1
			l-5.8-4L251.7,191.8z"/>
	</g>
	<g>
		<g>
			<path class="st3" d="M92.1,151.6l3.3,0.3l0.2-1.8c0-0.5,0-0.8-0.1-1c-0.2-0.2-0.5-0.4-1-0.4l0-0.2l2.9,0.2l0,0.2
				c-0.4,0-0.7,0.1-0.8,0.1c-0.1,0.1-0.3,0.2-0.4,0.3c-0.1,0.2-0.2,0.4-0.2,0.8l-0.2,1.8l2.7,0.2c0.4,0,0.6,0,0.7,0
				c0.1,0,0.1-0.1,0.2-0.2c0.1-0.1,0.1-0.2,0.1-0.5l0.1-1.4c0-0.5,0-0.8,0-1c0-0.2-0.2-0.4-0.3-0.6c-0.2-0.3-0.6-0.6-1.1-0.9l0-0.2
				l2,0.9l-0.6,6.3l-0.2,0l0-0.3c0-0.2,0-0.4-0.1-0.6c-0.1-0.1-0.1-0.2-0.3-0.3c-0.1-0.1-0.4-0.1-0.8-0.1l-5.3-0.5
				c-0.5,0-0.8,0-1,0.1c-0.2,0.1-0.3,0.4-0.3,0.7l0,0.3l-0.2,0l0.6-6.3l1.8,0.1l0,0.2c-0.4,0-0.7,0.1-0.9,0.2
				c-0.2,0.1-0.3,0.2-0.4,0.4c-0.1,0.2-0.1,0.4-0.2,0.8L92.1,151.6z"/>
			<path class="st3" d="M93.2,140.1l2.8,0.6l0,0.2c-0.6,0-1,0-1.4,0.1c-0.4,0.1-0.7,0.3-0.9,0.6c-0.3,0.3-0.4,0.6-0.5,1
				c-0.1,0.4,0,0.8,0.2,1.1c0.2,0.3,0.5,0.5,0.8,0.6c0.2,0.1,0.5,0,0.7-0.1c0.4-0.2,0.9-0.7,1.6-1.5c0.6-0.7,1-1.1,1.3-1.3
				c0.3-0.2,0.6-0.4,0.9-0.5s0.6-0.1,1,0c0.6,0.1,1.1,0.5,1.4,1c0.3,0.6,0.4,1.2,0.3,2c-0.1,0.2-0.1,0.5-0.2,0.6
				c0,0.1-0.2,0.4-0.4,0.7c-0.2,0.4-0.3,0.6-0.3,0.7c0,0.1,0,0.2,0,0.3c0,0.1,0.2,0.1,0.3,0.2l0,0.2l-2.8-0.6l0-0.2
				c0.6,0,1.1,0,1.4-0.1c0.3-0.1,0.6-0.3,0.9-0.6c0.3-0.3,0.4-0.7,0.5-1.1c0.1-0.5,0.1-0.9-0.1-1.3c-0.2-0.3-0.5-0.6-0.8-0.6
				c-0.2,0-0.4,0-0.6,0c-0.2,0.1-0.5,0.2-0.7,0.4c-0.2,0.1-0.5,0.5-1,1.1c-0.5,0.6-0.9,1-1.2,1.3c-0.3,0.2-0.6,0.4-0.9,0.5
				c-0.3,0.1-0.6,0.1-1,0c-0.6-0.1-1-0.5-1.4-1c-0.3-0.5-0.4-1.1-0.3-1.8c0.1-0.4,0.3-0.9,0.6-1.3c0.1-0.2,0.2-0.3,0.2-0.4
				c0-0.1,0-0.2,0-0.3c0-0.1-0.2-0.2-0.3-0.2L93.2,140.1z"/>
			<path class="st3" d="M96.3,131.3l1.9,0.5L98,132c-0.3-0.1-0.6-0.1-0.7-0.1c-0.3,0-0.5,0.1-0.7,0.3c-0.2,0.2-0.3,0.4-0.4,0.7
				l-0.4,1.1l6,2.1c0.5,0.2,0.8,0.2,1,0.2c0.2-0.1,0.4-0.3,0.5-0.6l0.1-0.3l0.2,0.1l-1.2,3.3l-0.2-0.1l0.1-0.3
				c0.1-0.3,0.1-0.6-0.1-0.8c-0.1-0.1-0.4-0.3-0.8-0.4l-6-2.1l-0.3,0.9c-0.1,0.4-0.2,0.6-0.2,0.8c0,0.2,0.1,0.4,0.2,0.7
				c0.2,0.2,0.4,0.4,0.8,0.5l-0.1,0.2l-1.8-0.7L96.3,131.3z"/>
			<path class="st3" d="M103.8,128.3l-1.4,2.9l0.9,1.1c0.2,0.3,0.4,0.4,0.6,0.5c0.1,0.1,0.2,0.1,0.4,0c0.1-0.1,0.3-0.3,0.5-0.6
				l0.2,0.1l-1.2,2.3l-0.2-0.1c0.1-0.3,0.1-0.6,0.1-0.7c-0.1-0.3-0.3-0.7-0.8-1.1l-4.8-5.6l0.1-0.2l7.4,0.5c0.6,0,1,0,1.2-0.1
				c0.2-0.1,0.4-0.3,0.6-0.6l0.2,0.1l-1.4,2.9l-0.2-0.1c0.1-0.3,0.2-0.5,0.1-0.7c0-0.1-0.1-0.2-0.2-0.3c-0.2-0.1-0.4-0.1-0.9-0.2
				L103.8,128.3z M103.3,128.2l-3.6-0.2l2.4,2.8L103.3,128.2z"/>
			<path class="st3" d="M107.7,126.5l-0.2-0.1l0.2-0.3c0.2-0.3,0.3-0.6,0.2-0.8c-0.1-0.1-0.3-0.4-0.7-0.6l-4.4-3.1
				c-0.4-0.3-0.7-0.4-0.9-0.4c-0.2,0-0.4,0.2-0.6,0.4l-0.2,0.3l-0.2-0.1l1.9-2.7c0.7-1,1.4-1.7,2-2.1c0.6-0.4,1.3-0.5,2-0.5
				c0.8,0.1,1.5,0.3,2.2,0.8c0.9,0.7,1.5,1.5,1.8,2.5c0.3,1.1-0.1,2.4-1,3.7L107.7,126.5z M108.6,124.2c0.4-0.4,0.7-0.7,0.9-1
				c0.5-0.8,0.7-1.6,0.5-2.5c-0.2-0.9-0.7-1.7-1.7-2.3c-0.9-0.7-1.8-0.9-2.7-0.8c-0.9,0.1-1.6,0.6-2.2,1.4c-0.2,0.3-0.4,0.7-0.6,1.1
				L108.6,124.2z"/>
			<path class="st3" d="M109.7,110.3c0.7-0.8,1.7-1.2,2.8-1.2c1.1,0,2.1,0.4,3,1.3c0.9,0.9,1.4,1.9,1.4,3c0.1,1.1-0.3,2.1-1.1,2.9
				c-0.8,0.8-1.7,1.2-2.9,1.2c-1.1,0-2.1-0.4-3.1-1.3c-0.9-0.9-1.4-2-1.4-3.2C108.6,112,109,111.1,109.7,110.3z M110,110.7
				c-0.5,0.5-0.7,1.2-0.6,1.9c0.1,0.9,0.6,1.8,1.6,2.7c1,0.9,1.9,1.4,2.8,1.5c0.7,0.1,1.3-0.2,1.8-0.7c0.5-0.6,0.8-1.2,0.7-2
				c-0.1-0.8-0.6-1.6-1.5-2.5c-1-1-2-1.5-2.9-1.6C111.2,109.9,110.5,110.2,110,110.7z"/>
			<path class="st3" d="M118.1,102.9l1.8,2.2l-0.2,0.1c-0.4-0.4-0.8-0.6-1.1-0.8c-0.3-0.1-0.7-0.2-1.1-0.1c-0.4,0.1-0.7,0.2-1,0.5
				c-0.3,0.3-0.5,0.6-0.6,1c-0.1,0.4,0,0.7,0.2,0.9c0.2,0.2,0.4,0.3,0.6,0.4c0.4,0.1,1.1,0,2.2-0.2c0.9-0.2,1.5-0.2,1.8-0.2
				s0.7,0.1,1,0.2c0.3,0.1,0.6,0.3,0.8,0.6c0.4,0.5,0.5,1.1,0.4,1.7c-0.1,0.7-0.4,1.2-1,1.7c-0.2,0.1-0.4,0.3-0.6,0.4
				c-0.1,0.1-0.4,0.2-0.8,0.3c-0.4,0.1-0.6,0.3-0.7,0.3c-0.1,0.1-0.1,0.1-0.1,0.2c0,0.1,0,0.2,0.1,0.4l-0.2,0.1l-1.8-2.2l0.2-0.1
				c0.5,0.4,0.8,0.7,1.2,0.8c0.3,0.1,0.7,0.1,1.1,0.1c0.4-0.1,0.8-0.3,1.1-0.5c0.4-0.3,0.6-0.7,0.7-1.1c0.1-0.4,0-0.7-0.2-1
				c-0.1-0.2-0.3-0.3-0.5-0.4c-0.2-0.1-0.5-0.1-0.8-0.1c-0.2,0-0.7,0.1-1.5,0.2c-0.8,0.1-1.4,0.2-1.8,0.2c-0.4,0-0.7-0.1-1-0.2
				c-0.3-0.1-0.6-0.3-0.8-0.6c-0.4-0.5-0.5-1-0.4-1.6s0.4-1.1,1-1.6c0.3-0.3,0.8-0.5,1.3-0.6c0.2-0.1,0.4-0.1,0.5-0.2
				c0.1-0.1,0.1-0.1,0.1-0.2c0-0.1,0-0.2-0.1-0.4L118.1,102.9z"/>
			<path class="st3" d="M128.3,97.2l-0.1-0.2l2.6-1.4l0.1,0.2l-0.3,0.1c-0.3,0.2-0.4,0.4-0.5,0.7c0,0.2,0.1,0.4,0.3,0.8l1.6,3
				c0.4,0.7,0.6,1.3,0.7,1.8c0.1,0.5,0,1-0.3,1.5c-0.3,0.5-0.8,1-1.5,1.3c-0.8,0.4-1.5,0.6-2,0.5c-0.6-0.1-1-0.3-1.5-0.7
				c-0.3-0.3-0.7-0.8-1.1-1.7l-1.5-2.9c-0.2-0.4-0.5-0.7-0.6-0.8c-0.2-0.1-0.4,0-0.7,0.1l-0.3,0.1l-0.1-0.2l3.2-1.7l0.1,0.2
				l-0.3,0.1c-0.3,0.2-0.5,0.4-0.5,0.6c0,0.2,0.1,0.5,0.3,0.9l1.7,3.2c0.1,0.3,0.3,0.6,0.6,0.9c0.2,0.3,0.5,0.6,0.7,0.7
				c0.2,0.1,0.5,0.2,0.9,0.2c0.3,0,0.7-0.1,1.1-0.3c0.5-0.3,0.9-0.6,1.1-1c0.3-0.4,0.4-0.8,0.4-1.2c0-0.4-0.3-1-0.7-1.8l-1.6-3
				c-0.2-0.5-0.4-0.7-0.6-0.8c-0.2-0.1-0.5-0.1-0.7,0.1L128.3,97.2z"/>
			<path class="st3" d="M131.7,95.2l2.1-0.7l6.8,4.2l-1.5-4.5c-0.2-0.5-0.3-0.8-0.5-0.8c-0.2-0.1-0.4-0.1-0.8,0l-0.3,0.1l-0.1-0.2
				l2.7-0.9l0.1,0.2l-0.3,0.1c-0.3,0.1-0.5,0.3-0.6,0.5c0,0.2,0,0.4,0.2,0.9l2.3,6.6l-0.2,0.1l-7.3-4.5l1.6,4.8
				c0.2,0.5,0.3,0.8,0.5,0.8c0.2,0.1,0.5,0.1,0.8,0l0.3-0.1l0.1,0.2l-2.7,0.9l-0.1-0.2l0.3-0.1c0.3-0.1,0.5-0.3,0.6-0.5
				c0-0.2,0-0.4-0.2-0.9l-1.9-5.4c-0.3-0.2-0.5-0.3-0.7-0.3c-0.1,0-0.3-0.1-0.6-0.1c-0.1,0-0.3,0-0.5,0.1L131.7,95.2z"/>
			<path class="st3" d="M146.7,99.2l0,0.2l-3.5,0.8l0-0.2l0.3-0.1c0.3-0.1,0.6-0.2,0.7-0.5c0.1-0.1,0-0.5-0.1-0.9l-1.1-5.2
				c-0.1-0.4-0.2-0.7-0.3-0.8c-0.1-0.1-0.2-0.2-0.3-0.2c-0.2-0.1-0.4-0.1-0.6,0l-0.3,0.1l0-0.2l3.5-0.8l0,0.2l-0.3,0.1
				c-0.3,0.1-0.5,0.2-0.7,0.4c-0.1,0.1-0.1,0.5,0.1,0.9l1.1,5.2c0.1,0.4,0.2,0.7,0.3,0.8c0.1,0.1,0.2,0.2,0.3,0.2
				c0.2,0.1,0.4,0.1,0.6,0L146.7,99.2z"/>
			<path class="st3" d="M147.1,99.2l0-0.2l0.3,0c0.3,0,0.6-0.2,0.7-0.4c0.1-0.1,0.1-0.4,0-0.9l-0.6-5.3c-0.1-0.5-0.1-0.8-0.3-0.9
				c-0.2-0.2-0.4-0.2-0.7-0.2l-0.3,0l0-0.2l3.3-0.4c1.2-0.1,2.2-0.1,2.8,0.1c0.7,0.2,1.2,0.6,1.7,1.2c0.5,0.6,0.7,1.3,0.8,2.2
				c0.1,1.1-0.1,2.1-0.7,3c-0.7,0.9-1.8,1.5-3.4,1.7L147.1,99.2z M149.4,98.3c0.5,0.1,1,0.1,1.3,0c0.9-0.1,1.7-0.5,2.2-1.2
				c0.5-0.7,0.8-1.6,0.6-2.8c-0.1-1.1-0.5-2-1.2-2.6c-0.7-0.6-1.5-0.8-2.5-0.7c-0.4,0-0.8,0.1-1.2,0.3L149.4,98.3z"/>
			<path class="st3" d="M160.7,90c1.1,0,2,0.5,2.7,1.3c0.7,0.8,1.1,1.9,1,3.1c-0.1,1.3-0.5,2.3-1.3,3.1c-0.8,0.8-1.8,1.2-2.9,1.1
				c-1.1-0.1-2.1-0.5-2.8-1.3c-0.7-0.8-1.1-1.9-1-3.2c0.1-1.3,0.6-2.4,1.5-3.1C158.6,90.3,159.6,90,160.7,90z M160.5,90.5
				c-0.7,0-1.3,0.2-1.8,0.7c-0.6,0.7-0.9,1.6-1,3c-0.1,1.3,0.2,2.4,0.7,3.1c0.4,0.6,1,0.9,1.7,0.9c0.8,0,1.4-0.2,2-0.8
				c0.5-0.6,0.8-1.5,0.9-2.8c0.1-1.4-0.2-2.5-0.7-3.2C161.9,90.8,161.3,90.5,160.5,90.5z"/>
			<path class="st3" d="M171.7,91.5l-0.5,2.8l-0.2,0c0-0.6,0-1-0.2-1.4c-0.1-0.4-0.3-0.7-0.7-0.9c-0.3-0.3-0.6-0.4-1-0.5
				c-0.4-0.1-0.8,0-1.1,0.2c-0.3,0.2-0.5,0.5-0.6,0.8c0,0.2,0,0.5,0.1,0.7c0.2,0.3,0.7,0.9,1.5,1.5c0.7,0.5,1.1,1,1.4,1.2
				c0.2,0.3,0.4,0.6,0.5,0.9c0.1,0.3,0.1,0.6,0.1,1c-0.1,0.6-0.4,1.1-1,1.5c-0.6,0.4-1.2,0.5-2,0.3c-0.2,0-0.5-0.1-0.7-0.2
				c-0.1,0-0.4-0.2-0.7-0.4c-0.4-0.2-0.6-0.3-0.7-0.3c-0.1,0-0.2,0-0.3,0c-0.1,0-0.1,0.2-0.2,0.3l-0.2,0l0.5-2.8l0.2,0
				c0,0.6,0.1,1.1,0.2,1.4c0.1,0.3,0.3,0.6,0.7,0.9c0.3,0.3,0.7,0.4,1.1,0.5c0.5,0.1,0.9,0,1.3-0.2c0.3-0.2,0.5-0.5,0.6-0.9
				c0-0.2,0-0.4-0.1-0.6c-0.1-0.2-0.2-0.4-0.4-0.7c-0.1-0.1-0.5-0.5-1.1-1c-0.6-0.5-1.1-0.9-1.3-1.2c-0.3-0.3-0.4-0.6-0.5-0.9
				c-0.1-0.3-0.1-0.6-0.1-1c0.1-0.6,0.4-1,0.9-1.4c0.5-0.3,1.1-0.4,1.8-0.3c0.4,0.1,0.9,0.3,1.3,0.6c0.2,0.1,0.4,0.2,0.4,0.2
				c0.1,0,0.2,0,0.3,0c0.1,0,0.2-0.2,0.2-0.3L171.7,91.5z"/>
			<path class="st3" d="M179.2,102.6l-0.3-7.6l-2.1,5.1c-0.2,0.5-0.3,0.8-0.2,0.9c0.1,0.2,0.3,0.4,0.6,0.5l0.3,0.1l-0.1,0.2
				l-2.7-1.1l0.1-0.2l0.3,0.1c0.3,0.1,0.6,0.1,0.8,0c0.1-0.1,0.3-0.3,0.5-0.8l2.1-5c0.1-0.3,0.2-0.6,0.2-0.8c0-0.1-0.1-0.3-0.2-0.4
				c-0.1-0.1-0.3-0.3-0.6-0.4l0.1-0.2L180,94l0.3,7.1l5.2-4.8l2.2,0.9l-0.1,0.2l-0.3-0.1c-0.3-0.1-0.6-0.1-0.8,0
				c-0.1,0.1-0.3,0.3-0.5,0.8l-2.1,5c-0.2,0.5-0.3,0.8-0.2,0.9c0.1,0.2,0.3,0.4,0.6,0.5l0.3,0.1l-0.1,0.2l-3.2-1.3l0.1-0.2l0.3,0.1
				c0.3,0.1,0.6,0.1,0.8,0c0.1-0.1,0.3-0.3,0.5-0.8l2.1-5.1l-5.6,5.2L179.2,102.6z"/>
			<path class="st3" d="M190.8,99.7l-1.7,2.8l1.5,1c0.4,0.2,0.7,0.4,0.9,0.3c0.3,0,0.6-0.3,0.8-0.7l0.2,0.1l-1.5,2.4l-0.2-0.1
				c0.2-0.4,0.2-0.6,0.3-0.7c0-0.2,0-0.3-0.1-0.5c-0.1-0.2-0.3-0.3-0.6-0.5l-1.5-1l-1.4,2.3c-0.2,0.3-0.3,0.5-0.3,0.6
				c0,0.1,0,0.2,0,0.3c0,0.1,0.2,0.2,0.4,0.3l1.2,0.7c0.4,0.2,0.7,0.4,0.9,0.4s0.5,0.1,0.7,0c0.3-0.1,0.8-0.3,1.3-0.6l0.2,0.1
				l-1.7,1.4l-5.4-3.3l0.1-0.2l0.2,0.2c0.2,0.1,0.3,0.2,0.5,0.2c0.1,0,0.3,0,0.4-0.1c0.1-0.1,0.3-0.3,0.5-0.6l2.8-4.6
				c0.3-0.4,0.4-0.7,0.4-0.9c0-0.2-0.2-0.4-0.5-0.6l-0.2-0.2L189,98l5.4,3.3l-0.9,1.6l-0.2-0.1c0.2-0.4,0.2-0.7,0.2-0.9
				c0-0.2-0.1-0.4-0.2-0.6c-0.1-0.1-0.3-0.3-0.7-0.5L190.8,99.7z"/>
			<path class="st3" d="M197.7,108.5l-0.3,3.2c-0.1,0.9-0.1,1.5,0,1.8c0.1,0.3,0.2,0.6,0.5,0.8l-0.1,0.2l-2.7-2.3l0.1-0.2
				c0.2,0.1,0.3,0.2,0.5,0.3c0.1,0,0.2,0,0.3,0c0.1,0,0.2-0.1,0.2-0.1c0.1-0.1,0.1-0.2,0.1-0.3c0-0.1,0.1-0.3,0.1-0.6l0.3-2.5
				l-2.7,0.6c-0.3,0.1-0.5,0.1-0.6,0.2c-0.1,0-0.1,0.1-0.2,0.2c-0.1,0.1-0.1,0.2-0.1,0.4c0,0.1,0.2,0.3,0.4,0.5l-0.1,0.2l-2.3-1.9
				l0.1-0.2c0.2,0.1,0.3,0.2,0.5,0.2c0.3,0.1,0.5,0.1,0.8,0.1s0.7,0,1.1-0.1l3.1-0.7l0.3-2.9c0.1-0.8,0.1-1.3-0.1-1.7
				c-0.1-0.4-0.3-0.7-0.6-0.9l0.1-0.2l2.9,2.4l-0.1,0.2c-0.3-0.2-0.5-0.3-0.6-0.3c-0.2,0-0.3,0-0.3,0.1c-0.1,0.1-0.2,0.3-0.2,0.7
				l-0.2,2.3l2.3-0.5c0.3-0.1,0.4-0.1,0.5-0.1c0.1,0,0.1-0.1,0.2-0.2c0.1-0.1,0.1-0.1,0.1-0.2c0-0.1,0-0.2-0.1-0.3
				c-0.1-0.1-0.2-0.2-0.4-0.4l0.1-0.2l2.3,1.9l-0.1,0.2c-0.2-0.1-0.4-0.2-0.5-0.3c-0.2-0.1-0.5-0.1-0.7-0.1c-0.2,0-0.6,0.1-1.2,0.2
				L197.7,108.5z"/>
			<path class="st3" d="M200.5,117.2l-0.2,0.2l-2.5-2.5l0.2-0.2l0.2,0.2c0.2,0.2,0.5,0.4,0.7,0.3c0.2,0,0.4-0.2,0.8-0.5l3.8-3.7
				c0.3-0.3,0.5-0.5,0.5-0.6c0-0.1,0-0.2,0-0.4c-0.1-0.2-0.1-0.4-0.3-0.5l-0.2-0.2l0.2-0.2l2.5,2.5l-0.2,0.2l-0.2-0.2
				c-0.2-0.2-0.5-0.4-0.7-0.3c-0.2,0-0.4,0.2-0.8,0.5l-3.8,3.7c-0.3,0.3-0.5,0.5-0.5,0.6c0,0.1,0,0.2,0,0.4c0.1,0.2,0.1,0.4,0.3,0.5
				L200.5,117.2z"/>
			<path class="st3" d="M211.8,118.2l-2.1,1.9l-0.1-0.1c0.5-0.7,0.8-1.4,0.8-2c0-0.6-0.2-1.2-0.6-1.7c-0.3-0.4-0.8-0.7-1.2-0.9
				c-0.5-0.2-1.1-0.2-1.7,0c-0.6,0.2-1.3,0.5-2,1.1c-0.6,0.5-1,1-1.3,1.5c-0.3,0.5-0.4,1.1-0.3,1.6c0.1,0.6,0.3,1.1,0.7,1.6
				c0.3,0.4,0.7,0.7,1.1,0.9c0.4,0.2,1.1,0.3,1.9,0.2l0,0.2c-0.8,0.1-1.6,0.1-2.2-0.2c-0.6-0.2-1.1-0.6-1.6-1.2
				c-0.8-1.1-1.1-2.2-0.8-3.4c0.3-0.9,0.8-1.7,1.6-2.3c0.6-0.5,1.4-0.8,2.1-1c0.8-0.1,1.5-0.1,2.2,0.2c0.7,0.3,1.3,0.7,1.8,1.3
				c0.4,0.5,0.6,1,0.7,1.7c0,0.2,0.1,0.3,0.1,0.4c0.1,0.1,0.2,0.1,0.3,0.2c0.2,0,0.3,0,0.5-0.1L211.8,118.2z"/>
			<path class="st3" d="M210.8,127.4l-1.6-2.8l-1.4,0.2c-0.3,0-0.6,0.1-0.7,0.2c-0.1,0.1-0.2,0.2-0.2,0.3s0.1,0.4,0.2,0.8l-0.2,0.1
				l-1.3-2.3l0.2-0.1c0.2,0.3,0.4,0.4,0.5,0.5c0.3,0.1,0.7,0.1,1.4,0l7.3-0.8l0.1,0.2l-4.6,5.9c-0.4,0.5-0.6,0.8-0.6,1.1
				c-0.1,0.2,0,0.5,0.1,0.8l-0.2,0.1l-1.6-2.8l0.2-0.1c0.2,0.3,0.3,0.4,0.5,0.5c0.1,0.1,0.3,0,0.4,0c0.2-0.1,0.4-0.3,0.6-0.6
				L210.8,127.4z M211.1,127.1l2.2-2.9l-3.6,0.4L211.1,127.1z"/>
			<path class="st3" d="M217.6,128.4l0.8,2.1l-4,6.9l4.5-1.7c0.5-0.2,0.8-0.3,0.8-0.5c0.1-0.2,0.1-0.5,0-0.8l-0.1-0.3l0.2-0.1l1,2.7
				l-0.2,0.1l-0.1-0.3c-0.1-0.3-0.3-0.5-0.6-0.6c-0.2,0-0.4,0-0.9,0.2l-6.5,2.5l-0.1-0.2l4.3-7.4l-4.8,1.8c-0.5,0.2-0.8,0.3-0.8,0.5
				c-0.1,0.2-0.1,0.5,0,0.8l0.1,0.3l-0.2,0.1l-1-2.7l0.2-0.1l0.1,0.3c0.1,0.3,0.3,0.5,0.6,0.6c0.2,0,0.4,0,0.9-0.2l5.4-2
				c0.2-0.3,0.3-0.6,0.3-0.7c0-0.1,0.1-0.3,0-0.6c0-0.1-0.1-0.3-0.1-0.5L217.6,128.4z"/>
			<path class="st3" d="M222.3,142.5c0.2,1,0,2-0.6,3c-0.6,0.9-1.5,1.5-2.7,1.8c-1.2,0.3-2.3,0.1-3.3-0.5s-1.6-1.5-1.8-2.6
				c-0.2-1.1,0-2.1,0.6-3.1c0.6-0.9,1.6-1.5,2.8-1.8c1.3-0.3,2.4-0.1,3.4,0.6C221.5,140.6,222.1,141.4,222.3,142.5z M221.8,142.4
				c-0.2-0.7-0.5-1.2-1.2-1.6c-0.8-0.4-1.8-0.5-3.1-0.2c-1.3,0.3-2.3,0.8-2.9,1.5c-0.4,0.5-0.6,1.2-0.4,1.9c0.2,0.8,0.6,1.3,1.3,1.7
				c0.7,0.4,1.7,0.4,3,0.1c1.4-0.3,2.4-0.8,2.9-1.5C221.9,143.9,222,143.2,221.8,142.4z"/>
			<path class="st3" d="M223.7,153.5l-2.8,0.2l0-0.2c0.5-0.1,1-0.3,1.3-0.5c0.3-0.2,0.5-0.5,0.7-0.9c0.2-0.4,0.2-0.7,0.2-1.1
				c0-0.4-0.2-0.8-0.5-1c-0.3-0.3-0.6-0.4-0.9-0.3c-0.3,0-0.5,0.1-0.7,0.3c-0.3,0.3-0.6,0.9-1.1,1.9c-0.4,0.8-0.6,1.3-0.8,1.6
				c-0.2,0.3-0.4,0.5-0.7,0.7c-0.3,0.2-0.6,0.3-0.9,0.3c-0.6,0-1.2-0.2-1.7-0.6c-0.5-0.5-0.8-1.1-0.8-1.8c0-0.2,0-0.5,0-0.7
				c0-0.1,0.1-0.4,0.2-0.8c0.1-0.4,0.1-0.7,0.1-0.8c0-0.1,0-0.2-0.1-0.2c-0.1-0.1-0.2-0.1-0.4-0.1l0-0.2l2.8-0.2l0,0.2
				c-0.6,0.1-1,0.3-1.3,0.5c-0.3,0.2-0.5,0.5-0.7,0.9c-0.2,0.4-0.2,0.8-0.2,1.2c0,0.5,0.2,0.9,0.5,1.2c0.3,0.3,0.6,0.4,1,0.4
				c0.2,0,0.4-0.1,0.6-0.2c0.2-0.1,0.4-0.3,0.5-0.6c0.1-0.2,0.3-0.6,0.7-1.4c0.3-0.7,0.6-1.3,0.8-1.6c0.2-0.3,0.5-0.6,0.7-0.7
				c0.3-0.2,0.6-0.3,0.9-0.3c0.6,0,1.1,0.1,1.6,0.6c0.5,0.4,0.7,1,0.8,1.7c0,0.4,0,0.9-0.2,1.4c-0.1,0.2-0.1,0.4-0.1,0.5
				c0,0.1,0,0.2,0.1,0.3s0.2,0.1,0.4,0.1L223.7,153.5z"/>
		</g>
		<g>
			<g>
				<path class="st1" d="M121.8,124.5c-0.1,1.6,1.7,1.5,1.7,1.5s5.3-2.4,4.7-3c-0.1-0.1-0.6,0.1-0.6,0.1s-3.6,1.8-4,1.2
					c-0.4-0.6,1.1-2.6,1.1-2.6s0.6-0.6,0.8-1.3c0.4-1.6,0.8-2.4,1-2.7c0.3-0.3,0.3-1.3-0.7-1.3c0,0-1.2,0.6-1.4,1
					c-0.2,0.5,0.5,1.3-0.4,2.7C123.2,121.7,121.9,123.5,121.8,124.5"/>
				<path class="st1" d="M127.4,120.3c-0.2-1.1-0.4-1.4-1-1.2c-0.5,0.1-0.3,0.9-0.3,0.9s0.3,0.7,0.2,1.1c-0.1,0.4-0.2,1.1-0.2,1.1
					C126.5,122.4,127.7,121.4,127.4,120.3"/>
				<path class="st1" d="M126.8,127.3c-0.1-0.2-0.8,0.1-2.2,0c-1.4,0-1.2-0.8-2.2-0.5c-0.3,0.1,0.1,1.4,1.6,1.6
					c0.9,0.1,1.9,0,2.3-0.2C126.7,128.1,126.9,127.4,126.8,127.3"/>
				<path class="st1" d="M123.4,118.8c0.3-0.5-0.4-0.8-0.4-0.8s-4.3,4.1-4.6,4.6c-0.2,0.5,0.1,1.2,0.1,1.2s1,6.2,2.4,7.7
					c1.1,1.2,4.9,0.3,4.9,0.3c0.5-0.8-0.5-1.5-0.5-1.5s-1.3,0.2-2.1,0.2c-0.9,0-1.3-0.2-2-1.7c-0.7-1.6-0.4-4.1-0.2-4.5
					c0.2-0.4,2.1-3.4,2.4-3.9c0.3-0.5-0.4-0.9-0.4-0.9S123.1,119.4,123.4,118.8"/>
				<path class="st1" d="M130.8,127.8c0.5-0.3,2.2-1.6,2.2-1.6s2.4,0.6,2.5,0.9c0.1,0.3-3.1,0.2-4.3,1.5c-0.5,0.5-1,1.2-1.2,1.8
					c-0.2,0.9,0.2,1.6-0.3,1.9c-0.4,0.3-2.1-1.5-1.6-3c0.4-1.4,1.5-1.6,1.5-1.6S130.3,128.1,130.8,127.8 M129.1,126.4
					c0,0-4.1,2.9-1.7,6c1.8,2.4,4.2,2.5,4.8,2.3c0.6-0.2,0.3-0.9,0.3-0.9s-2.4-2.4-1-4c1.8-2,4.5-1.2,4.5-1.2
					c0.2-0.4,2.7-1.5,2.7-1.5s1.6-0.1,1.5,0.6c0,0.7-2.9,1.4-3.1,2.2c-0.1,0.5,0.7,0.5,0.7,0.5l5-2.9c-0.2-1.8-3.1-2.3-3.8-2.3
					c-0.7,0-1,0.5-3.4,0.3c-2.4-0.3-4-1.7-4.9-0.7c-0.3,0.4,0.4,1.1,0,1.4C130.2,126.6,129.1,126.4,129.1,126.4"/>
				<path class="st1" d="M135,118c0,0.5-0.4,1.3-0.4,1.3s-3.2,2.6-3.5,3c-0.3,0.4,0.2,1.5,0.2,1.5s1.9,0.5,2.2,0.6
					c0.3,0.1,0.9-0.8,0.9-0.8s0.9-3.1,1-3.3c0.1-0.2,1.1-1.6,1.1-1.6l-0.4-3C135.9,115.6,134.9,117.5,135,118"/>
				<path class="st1" d="M135.6,121.5c0.1,0.2,0.4,0.7,0.3,1.1c-0.2,0.4-0.9,0.6-0.9,0.6l-0.4,0.9c0,0,1.4,0.4,2-1
					c0.6-1.4-0.7-2.6-0.7-2.6S135.5,121.3,135.6,121.5"/>
				<path class="st1" d="M139.1,116.4c0,0,0.6-3.1-0.7-2.9c-1.4,0.2-1.1,4.4-1.1,4.4l1.2-2.2L139.1,116.4z"/>
				<path class="st1" d="M137.5,120.5l3.5-2.9c0,0,1.1-1.5,0.9-3c-0.2-1.4-1.1-2.8-1.1-2.8l-0.4,0.4c0,0,0.4,3.5-0.4,4.3
					c-0.8,0.8-3.3,3.3-3.3,3.3L137.5,120.5z"/>
				<path class="st1" d="M144.9,111.6c-0.8-0.3-2.4,3.8-2.3,4.1c0.3,1.1,1.8-1.1,1.8-1.1s0.3,2.5,0.5,2.5
					C145.2,117.1,146,111.9,144.9,111.6"/>
				<path class="st1" d="M137.9,121.6c0.3,0.2,4.2-2.9,4.4-2.4c0.2,0.5-3.3,2.6-3.3,2.6s-1.5,0.6-1.5,1.2c0,0.8,1.7-0.1,2.5-0.4
					c0.9-0.3,3.6-2.7,3.9-3.6c0.3-0.9-0.3-1.8-0.6-1.8l-5.7,3.9C137.7,121,137.6,121.4,137.9,121.6"/>
				<path class="st1" d="M141,124.5c-0.1,0.3-0.1,0.5,0.2,0.6c0.3,0.1,1.5,0.4,2.7-1.1c1.3-1.4,1-1.5,0.2-2.3
					c-0.8-0.8-4.1,1.1-4.1,1.1s-3.9,1.5-3.8,2.1c0.1,1,5.7-1.9,5.7-1.9s0.6-0.5,0.9-0.2C143.3,123.1,141.1,124.2,141,124.5"/>
				<path class="st1" d="M146.2,116.4c-0.2,1,1.9,0.7,6.4,3.4c1.2,0.7,2.2-3,1.8-3.3c-0.3-0.3-0.6-0.2-0.8,0.1c-0.2,0.3-1.2,0-1.2,0
					s-5.7-2.6-6-1.5c-0.1,0.4,0.5,0.8,0.5,0.8s6.1,1.5,5.7,2.4C152.3,119,146.4,115.5,146.2,116.4"/>
				<path class="st1" d="M145.5,117.8c0,0.2,0.4,0.6,0.4,0.6s2.8,1.1,4.2,2.1c1.2,0.8,0.6,2.2-0.5,1.7c-3.1-1.5-4.6-2.2-4.6-2.2
					s-0.8-0.1-0.8,0.1c0,0.2,0.6,0.6,0.6,0.6s3.8,1.8,5,2.9c0.9,0.8,1.9-0.3,1.9-0.3c0.4-0.4,0.8-1.2,0.3-2
					c-0.5-0.7-3.5-2.8-4.4-3.1C146.7,117.6,145.5,117.5,145.5,117.8"/>
				<path class="st1" d="M144.7,118.8c-0.4,0.7,5.1,2.4,5.1,2.4C150,120.9,145.3,117.9,144.7,118.8"/>
				<path class="st1" d="M145.1,121.3c-0.3,0.6,2.7,2.6,2.7,2.6s0.3,0.6,0,0.8c-0.2,0.2-1.4-0.3-1.7-1.3c-0.3-1-0.6,0-0.6,0.3
					c0,0.3,0.3,3.8,2.6,2.6c1.6-0.8,1.2-2.4,1.2-2.4S145.3,120.8,145.1,121.3"/>
				<path class="st1" d="M144.5,124.6c-0.3,0.6,0.4,1.6,0.1,1.7c-0.3,0.2-1.1-1.3-1.5-1c-0.4,0.4,0.3,1.8,0.3,1.8s1,1.5,1.7,0.8
					C146.8,126.5,144.9,124,144.5,124.6"/>
				<path class="st1" d="M145.6,132.6c1.5-0.6,1.8-4.7,1.8-4.7s0-0.8-0.6-0.8l-0.6,0.6c0,0-1.1,3.6-1.6,3.5c-0.5-0.1,0.6-2,0.5-2.2
					c-0.2-0.6-0.9-0.2-0.9-0.2s-1.5,2.7-1.5,3.2C142.9,132.6,144.1,133.2,145.6,132.6"/>
				<path class="st1" d="M148.6,126.7c-0.9,0.2-1.1,4.9-1.1,4.9s-0.3,1.2,1.9,0.9c1.4-0.2,2.6-1.8,2.6-1.8s0.9-7.2-0.8-6.5
					c-0.7,0.3,0.2,5.7-1.4,6.6C148.1,131.7,149.9,126.4,148.6,126.7"/>
				<path class="st1" d="M149.9,125.4c-0.9,0.1,0.1,4,0.1,4S150.8,125.3,149.9,125.4"/>
				<path class="st1" d="M153.2,121.3c-0.6,0.5,1.8,6,1.8,6S153.9,120.7,153.2,121.3"/>
				<path class="st1" d="M157.7,129.5c-0.8,0.3-0.3,6.8-0.3,6.8S158.7,129.1,157.7,129.5"/>
				<path class="st1" d="M151.4,138.1c0,0,2-6.5,0.9-6.3C151.6,132,151.4,138.1,151.4,138.1"/>
				<path class="st1" d="M147.6,133.5c-0.6,0-1.7,4.6-1.7,4.6S148.4,133.4,147.6,133.5"/>
				<path class="st1" d="M144.9,133.5c-0.6,0-1.9,3.8-1.9,3.8S145.6,133.6,144.9,133.5"/>
				<path class="st1" d="M152.4,122.9c-0.3,0.3,0.3,2.5,0.4,3.1c0.1,0.7,0.2,4,0.4,4.3c0.2,0.3,0.2,0.7,2.2-0.1
					c2.5-1.1,1.9-2.5,1.9-2.5c0.1-2-2.5-8.7-3.3-7.3c-0.2,0.4,1.9,6,1.9,6.5c0,0.5-0.4,1.1-1.2,1.7c-0.9,0.5-0.7-1-0.7-1
					S153.2,122.2,152.4,122.9"/>
				<path class="st1" d="M158.3,125.5c0,0-0.6-4.5-3.4-5.9C154.4,119.3,158.3,125.5,158.3,125.5"/>
				<path class="st1" d="M160.2,124.3c-0.6-1.5-4.1-7.3-5-6.3c-1.1,1.2,3.1,2.3,4,7.5c0.1,0.6-1,1.6-1,1.6s0.2,1,0.3,1
					c2.4-0.5,2.8-2.7,2.8-2.7S160.5,125,160.2,124.3"/>
				<path class="st1" d="M149.4,108.7c-1,1.9,0.6,4.8,0.6,4.8s1.8,0.1,5.7,1.8c3.9,1.7,3.6,5.9,3.6,5.9l1.2,1.8c0,0,0.9-3.4-1.5-6.7
					c-1.6-2.2-8.1-4.1-8.1-4.1s-0.6-0.3-0.6-2.2s2.8-1.9,2.8-1.9l0.3-0.9C153.6,107.3,150.3,106.8,149.4,108.7"/>
				<path class="st1" d="M151.7,109.5c0,0.7,1.1,0.1,1.1,0.6c0,0.5-1.4,0.5-1.6,1c-0.3,0.8,2.6,0.3,2.7-0.5
					C154.2,108.9,151.7,108.8,151.7,109.5"/>
				<path class="st1" d="M153.2,112.2c0,0,3.3,0.8,3.6,1.2c0.4,0.4,1.1,1.5,1.7,1.2c0.6-0.3,0.8-0.8,0.8-0.8
					C157.9,111.8,153.2,112.2,153.2,112.2"/>
				<path class="st1" d="M161.6,115.3c-0.5-0.1-2.7-0.6-2.6,0c0.2,1.2,2.1-0.2,2.7,1.3c0.6,1.5-0.7,1.4-0.7,1.4s-0.2,1.2,1,1.1
					c1.2-0.1,1.2-1,1.2-1.7C163.2,116.7,162.1,115.3,161.6,115.3"/>
				<path class="st1" d="M160.9,117.4c0.2,0,0.4-0.2,0.4-0.4c0-0.2-0.2-0.4-0.4-0.4c-0.3,0-0.4,0.2-0.4,0.4
					C160.4,117.2,160.6,117.4,160.9,117.4"/>
				<path class="st1" d="M162.3,122.9c0.4,0,0.8-0.2,0.8-0.6c0-0.3-0.4-0.6-0.8-0.6c-0.5,0-0.8,0.3-0.8,0.6
					C161.5,122.7,161.8,122.9,162.3,122.9"/>
				<path class="st1" d="M161.3,120.2c0.1,1.1,2.3-0.1,2.4,2.5c0,1.4-2.2,0.8-2.2,0.8s-0.4,0.8,0,0.9c3.4,0.9,3,0.3,3.2-1.2
					c0.2-1.5-1.1-3.1-1.1-3.1S161.2,119.1,161.3,120.2"/>
				<path class="st1" d="M162.9,128.1c0-0.3-0.2-0.6-0.5-0.6c-0.3,0-0.6,0.3-0.6,0.6c0,0.3,0.3,0.5,0.6,0.5
					C162.7,128.6,162.9,128.4,162.9,128.1"/>
				<path class="st1" d="M163,131.4c1.7-0.8,2.5-3.5,2.4-4.3c0,0-0.4-1.4-3.1-1.7c-0.8-0.1,0,1.4,0,1.4s1.6,0.2,1.7,1
					c0.1,0.8-1.1,1.6-1.3,2C162.5,130.2,162.9,131.5,163,131.4"/>
				<path class="st1" d="M160.5,137.5c0.4-0.1,0.8,0.2,1.4-2.6c0.4-2.4-0.3-8.2-1.3-7.2c-1,1.1,0.8,6.1,0.2,7.3
					C159.6,137,159.9,137.6,160.5,137.5"/>
				<path class="st1" d="M142.8,139.2l0.3-0.9c0,0-1-0.4-1-1.1c0-0.7,2.1-3.2,1.5-3.7c-0.4-0.3-3.3,4-3.3,4S140.4,139.2,142.8,139.2
					"/>
				<path class="st1" d="M144.5,140.4c3.1,1,5.3-6.5,4.5-6.8c-0.9-0.4-1.6,6-3.8,5.3c-1.4-0.4,2.4-6.1,1.4-6.2c-0.3,0-3,5.6-3,5.6
					S143.4,140,144.5,140.4"/>
				<path class="st1" d="M151,132.9c-1.2-0.1-1.1,1.9-1.5,2.8c-0.8,1.8-1.2,3.2-1.2,3.2s-0.7,2.3,2.5,2.2c3.2-0.1,3.3-3.3,3.3-3.3
					s1.5-6.6,0.3-6.1c-1.3,0.4-1.1,2.6-1.1,2.6s0.4,4.7-2.1,5.2c-1.3,0.2-1.4-0.6-1.4-0.6S151.6,132.9,151,132.9"/>
				<path class="st1" d="M156.7,131c0,0,0-0.4-0.5-0.4c-0.5,0.1-0.7,1.1-0.7,1.1l-0.6,6.5c0,0,0.1,1,0.7,1.3
					c0.6,0.3,1.5,0.1,1.5,0.1c1.1-0.4,2.1-1.2,2.2-2.5c0.2-1.3,0.4-7.6,0.4-7.6s-0.1-0.8-0.5-0.8c-0.4,0-0.6,1.1-0.6,1.1l-0.4,6.4
					c0,0-0.3,1.1-1,1.3c-0.7,0.2-1,0.3-0.9-0.5C156.5,136.4,156.7,131,156.7,131"/>
				<path class="st1" d="M184.6,112.8c-1.5-0.1-10-6.3-19.4-7.4c-10.2-1.1-10.8,0.7-11,2.5c-0.1,1.8,2.2,3.4,2.2,3.4
					s5.5,2.6,6.7,4.1c1.3,1.5,2.4,7.1,2.9,10.3c0.8,5.3-3.6,7.4-3.6,7.4l0.5,2c0,0,5-3.8,5.2-6.6c0.1-2.8-0.5-13.5-5.3-16.2
					c-4.8-2.8-5.8-2.6-5.8-2.6s-0.8-0.4-0.3-2c0.5-1.7,3.6-1.2,3.6-1.2s14.6,1.1,22.8,7.9c0,0-0.2,1.1-1.7,0.7
					c-1.5-0.4-1.8-1.2-1.8-1.2l-1.1,1.7c0,0,2.8,1.7,4.8,0.8c2-0.9,4.2-1.8,4-2.8C187.1,112.7,186,112.9,184.6,112.8"/>
				<path class="st1" d="M166.4,113.6c0.4,0.3,2.3-0.5,2.3-0.5s-0.6-2.6-4.8-4.7c-0.8-0.4-6.2-0.9-6.3-0.1c-0.2,1.2,4.5,1,5.9,1.3
					c1.4,0.3,2.9,1.8,2.7,2.4c-0.2,0.5-1.2-0.2-1.5,0.3C164.4,112.8,166,113.4,166.4,113.6"/>
				<path class="st1" d="M162.1,110.3c0,0,2.2,1.8,2.8,0.9C165.5,110.4,162.1,110.3,162.1,110.3"/>
				<path class="st1" d="M171.1,111c-0.5,0.2-2.4-1.4-2.6-1.8c-0.2-0.3-1.8-0.4-1.8-0.4s1.5,2.5,3.3,3.6c2.1,1.2,3.5,0.4,3.5,0.4
					l-0.8-2.5l-1.7-0.5C171.1,109.8,171.6,110.8,171.1,111"/>
				<path class="st1" d="M169.5,118.9c1.1-0.3,1.3-0.6,1.3-0.6s-0.1-3.8-1.5-4.2c0,0-0.6,0.1-1.5,0.2c-0.9,0.1-1.7,0-1.7,0
					s0.2,0.9,1.2,1.2c1,0.3,1.6,0.6,1.6,0.6s0.7,1.1-0.8,0.9c-0.3,0-0.5-0.1-0.7-0.1l-0.2,1C167.2,117.9,168.4,119.3,169.5,118.9"/>
				<path class="st1" d="M167.5,116.8L167.5,116.8C167.5,116.7,167,116.7,167.5,116.8"/>
				<path class="st1" d="M177.6,115.2c0.8-0.3,1.1-2.3,0.1-2.7c-1-0.4-1.2,0.5-1.2,0.5s-1,0.4-1.2-0.5c-0.3-0.9-0.5-1.3-0.5-1.3
					l-1-0.1l0.3,2.7C174.1,113.7,176.8,115.5,177.6,115.2"/>
				<path class="st1" d="M170.7,113.5c-0.1,0.3,0.2,1,0.2,1l7.6,3.9c0,0,0.1,0.3-0.1,0.8c-0.3,0.5-0.8,0.1-0.8,0.1l-5.8-2.9l0.3,1.3
					l8,4.8c0,0-0.1,1,1.1-1.2c1.2-2.2-1.2-3.4-2-4.1C178.4,116.4,170.8,113.2,170.7,113.5"/>
				<path class="st1" d="M170.5,121.7c0,0,0.5,0.7,0.1,1.5c-0.4,0.8-1.6-1.2-2-0.1c-0.4,1.1,3,3,3.6,2.5c0.6-0.5-0.5-6.5-1-6.1
					c-0.9,0.7-3.2-0.5-3.2,0.2C167.9,120.4,170.5,121.7,170.5,121.7"/>
				<path class="st1" d="M168.7,130c-0.6,1,1.8,2.5,2.5,2.2c0.7-0.3,2.2-5.3,1.5-5.1c-1.1,0.3-3.3-2-3.6-1.4
					c-0.3,0.6,1.6,2.7,1.6,2.7s1,0.3,0.2,1.2C169.9,130.6,169.6,128.4,168.7,130"/>
				<path class="st1" d="M165.6,134.2c-0.4,0.7,2,2.9,2.8,2.6c0.7-0.3,3.5-3.7,2.9-3.5c-1.1,0.3-3.4-2.2-3.6-1.8
					c-0.9,1.2,0.9,2.6,0.9,2.6s0.6-0.3-0.3,0.7C167.4,135.8,166.5,132.6,165.6,134.2"/>
				<path class="st1" d="M178.3,125.1c0,0-4.9-4.4-5.3-3.4C172.6,122.8,178.3,125.1,178.3,125.1"/>
				<path class="st1" d="M180,123.6c-1.8-1.4-7.4-4.7-7.4-4.7l-0.2,0.9c0,0,7.3,3.6,6.9,5.5c-0.6,2.8-4.9-1.9-5.7-1.3
					c-0.7,0.7,0.2,1.1,0.2,1.1s6.3,5.1,6.5,1.8C180.4,123.6,180.2,123.8,180,123.6"/>
				<path class="st1" d="M181.6,127.9c0,0-0.5-0.3-0.9,0.1c-0.3,0.5-0.1,0.9-0.1,0.9l7.5,8.2c0,0,1.1,1.5,0.5,2.3
					c-0.7,0.8-2.1-0.5-2.1-0.5l-6.3-6.6c0,0-0.5-0.6-0.9-0.1c-0.4,0.5,0.1,1.1,0.1,1.1l6.6,7.2c0,0,1.8,2.2,3.9,0.7
					c0.8-0.6,1.2-1.3,1-2C189.8,135.7,181.6,127.9,181.6,127.9"/>
				<path class="st1" d="M179.2,134.2c0,0-0.5-0.3-0.9,0.1c-0.3,0.5-0.1,0.9-0.1,0.9l3.8,4.4c0,0,1.4,1.3,0.8,2.1
					c-0.7,0.8-2.4-0.3-2.4-0.3l-3.2-3.1c0,0-0.5-0.6-0.9-0.1c-0.4,0.5,0.1,1.1,0.1,1.1l3.5,3.7c0,0,2.1,1.5,3.9,0.7
					c0.9-0.4,1.2-1.3,1-2C183.6,138.1,179.2,134.2,179.2,134.2"/>
				<path class="st1" d="M172.1,142.5c-0.4,0.5,0.1,1.1,0.1,1.1l2.2,2.2c0,0,1.5,2,3.6,0.5c0.7-0.5,1.3-1.7,1.3-1.7
					c-1.1-3.6-3.6-4.7-3.6-4.7s-0.5-0.3-0.9,0.1c-0.3,0.5,0.2,0.7,0.2,0.7l1.6,1.8c0,0,1.6,1.5,0.8,2.1c-1.7,1.2-2.4-0.3-2.4-0.3
					l-1.9-1.6C173,142.6,172.5,142,172.1,142.5"/>
				<path class="st1" d="M179.5,129.5c-1.6,0.7,8.1,8.8,8.1,8.8S181.1,128.8,179.5,129.5"/>
				<path class="st1" d="M181.9,140.9c0,0-4.7-6.5-5.3-5.5C175.9,136.3,181.9,140.9,181.9,140.9"/>
				<path class="st1" d="M176,143.8c0,0-1.9-4.2-3-3.2C172,141.5,176,143.8,176,143.8"/>
				<path class="st1" d="M173.3,131.8l3,2c0,0,1.2-0.5,1.7-1.1c0.5-0.6,0.4-2.8,0.4-2.8l-3.8-3.1c0,0-0.4-0.5-0.7,0.1v0.7l3.2,2.8
					c0,0,0.1,0.1-0.2,0.8c-0.2,0.7-0.8,0.5-0.8,0.5l-2.1-1.2c0,0-0.3-0.2-0.6,0.1C173,131,173.3,131.8,173.3,131.8"/>
				<path class="st1" d="M170.5,136.1c-0.3,0.3,0,1.1,0,1.1l3,2c0,0,1.2-0.5,1.7-1.1c0.5-0.7,0.4-2.8,0.4-2.8l-2.4-2.4
					c0,0-0.4-0.5-0.7,0.1v0.7l1.8,2.1c0,0,0.1,0.1-0.2,0.8c-0.3,0.7-0.9,0.5-0.9,0.5l-2.1-1.2C171.1,136,170.7,135.8,170.5,136.1"/>
				<path class="st1" d="M166.8,140.5c-0.3,0.3,0,0.8,0,0.8l1.9,2.8l2.2-1.6c0.5-0.7,1-2,1-2l-2.2-2.8c0,0-0.3-0.5-0.7,0l-0.1,0.6
					l1.5,1.5c0,0,0,0.8-0.4,1.4c-0.4,0.6-1.4,0.7-1.4,0.7l-1.2-1.6C167.4,140.4,167.1,140.2,166.8,140.5"/>
				<path class="st1" d="M175.9,130.6c0,0-1.4-2.3-2.1-1.6C173.1,129.7,175.9,130.6,175.9,130.6"/>
				<path class="st1" d="M173.2,136.1c0,0-1.1-2.1-1.6-1.5C171,135.3,173.2,136.1,173.2,136.1"/>
				<path class="st1" d="M167.9,139.1c-1.1,0.7,1.3,1.9,1.3,1.9S169.1,138.4,167.9,139.1"/>
				<path class="st1" d="M193.3,126.4c3.3,4.1,7.1,11.5,7.1,11.5l1.6,0.7c0,0,0.3-0.9-0.1-1.7c-5.3-10.5-16.6-19.9-16.6-19.9
					l-1.3,0.7C183.9,117.5,190.2,122.7,193.3,126.4"/>
				<path class="st1" d="M198.3,126.1c-3.7-5.4-10.8-10.6-10.8-10.6l-0.7,1.2c0,0,4.5,4.4,7.4,6.9c2.9,2.5,8.3,12,8.3,12
					s2.6,3.3,1.3,4.5c-1.3,1.2-4.5-2.4-4.5-2.4s-2.9-4.6-6.6-9.9c-3.7-5.3-10.6-9.8-10.6-9.8l0.1,2c0,0,2.8,2.2,5.8,5
					c3,2.8,7.8,9.8,7.8,9.8s2.9,5,3.7,5.6c6.6,4.1,8.2,1.4,8.2,1.4l-2.6-3.4C205.2,138.4,202,131.5,198.3,126.1"/>
				<path class="st1" d="M181.7,124.8l-0.3,1.6c0,0,9,10.1,10.7,12.5c1.2,1.7,3.8,1.8,4.2,1.2c0.4-0.7,1.7-3.2-6.7-12
					c-8.5-8.9-7.4-6.9-7.4-6.9l-0.3,1.7c0,0,12.4,10.4,12.7,15l-0.9-0.3C193.7,137.7,185.1,125.6,181.7,124.8"/>
				<path class="st1" d="M204.9,143.9c0,0,1.6,7.9,1.7,9.8c0.1,1.9-0.8,3.3-0.9,4.4c-0.1,1-0.4,7.7-0.4,7.7s-1.2-8.7-1.3-11.3
					c-0.1-2.6-2.8-6.1-3.3-7c-0.5-0.9-2.8-7-2.8-7l-1,0.7c0,0,0.9,3.4,1.5,6c0.5,2.5,3.3,3.9,3.9,7.3c0.7,3.3,0.8,5.4,0.7,7.7
					c-0.1,2.2,0.9,6.5,1.2,8.2c0.3,1.7,0.3,7.5,0.3,7.5s2-4.4,2.2-5.4c0.3-1.1,0.4-7.5,0.1-8.4c-0.3-0.9,0.8-6.2,1.3-9.6
					c0.5-3.4-2.1-10-2.1-10L204.9,143.9z"/>
				<path class="st1" d="M203.7,149l-1.3-5.8l-2.1-1.1c0,0,0.3,1.7,0.5,2.9C201.1,146.2,203.7,149,203.7,149"/>
				<path class="st1" d="M193.7,141.3c0,0,0.1,0.8,0.7,2.6c0.5,1.9,2.9,4.5,2.9,4.5l-1.7-6.5L193.7,141.3z"/>
				<path class="st1" d="M188.8,142.8c-1.5,1.2,3.2,5.5,3.2,5.5S190.2,141.6,188.8,142.8"/>
				<path class="st1" d="M181.8,145c0,0,2.8,4,4.1,4.1l-2.4-4.4L181.8,145z"/>
				<path class="st1" d="M200.2,162.5c-0.9-0.2-2.1-10.9-2.1-10.9s-2.6-3.5-3.3-4.4c-0.7-0.9-2.6-6.3-2.6-6.3l-1.1,1.4
					c0,0,0.3,3.3,2.3,5.5c1.9,2.1,2.8,4.1,2.8,4.1l2.6,11.4c0,0,0.7,1.1,1.2,3.5c0.5,2.5,0.3,6.9,0.3,6.9l0.9,1.1
					c0,0,0.3-7.8,0.7-11.1c0.4-3.3-1.6-11.1-1.6-11.1l-1.2-0.7C199.1,151.8,201.1,162.7,200.2,162.5"/>
				<path class="st1" d="M194.1,156.7c-0.4-3.4-1.8-6-2.1-6.5c-0.4-0.5-2.1-1.6-3.2-2.5c-1.1-0.9-2.3-4.2-2.3-4.2l-1.4,0.2
					c0,0,1.4,3.2,1.9,4.4c0.5,1.2,2.5,2.6,3.9,3.9c1.4,1.2,1.8,5.6,2.1,7.4c0.4,1.7,1.9,3,2.3,5.5c0.4,2.5,1.2,6.9,1.2,6.9l1.1,0.9
					c0,0-0.4-5.3-0.2-9.3c0.2-4-1.8-10.6-1.8-10.6l-1.4-1.1l1.6,9.7C195.8,161.3,194.4,160.1,194.1,156.7"/>
				<path class="st1" d="M183,148.8c-0.7-0.7-2.6-3.3-2.6-3.3l-1.1,1.4c0,0,1.2,2.5,2.1,3.4c0.9,0.9,3.5,1.4,5.8,3.5
					c2.3,2.1,3.9,11.8,4.6,10.7c1.4-2.1-1.2-11.4-1.2-11.4l-1.8-1.4l1.2,4.8c0,0-2-3.2-2.5-4C187,151.4,183.7,149.5,183,148.8"/>
				<path class="st1" d="M178.5,147.7l-2.3,0.2c0,0,2.5,1.9,3,1.8C179.8,149.5,178.5,147.7,178.5,147.7"/>
				<path class="st1" d="M180.3,153c0.7,0.7,6,7.7,6,7.7l1.1-0.5l-2.6-7l-1.4-0.7l-0.2,1.2c0,0-0.9-1.9-2.6-2.5
					c-1.8-0.5-3.4-1-3.7-1.8c-0.4-0.7-1.9-1.4-1.9-1.4l-0.7,1.2c0,0,1.8,2.3,3,2.5C178.4,152,179.6,152.3,180.3,153"/>
				<path class="st1" d="M134.8,129l-1.3,0.4c0,0,1.5,1.1,2.7,2.6c2.2,3,0.7,4.5,0.7,4.5l0.1,1.6c0,0,2.5-1.8,0.9-5.4
					C136.7,130.2,134.8,129,134.8,129"/>
				<path class="st1" d="M131.6,131.7c0,0.5,2.6,3,2.8,4.4c0.1,1.3-2.1,5.4-5.3,7.1l-0.4,3.2c0,0,7.3-5.9,7.3-8.4
					c0-2.5-0.1-5.2-3.4-7.3C132.6,130.6,131.6,130.3,131.6,131.7"/>
				<path class="st1" d="M121.6,150c-0.1,1.8,2.1,9.5,7.3,9.8c7.7,0.4,5.9-1.6,7.8,0.4c0.5,0.5,0.1,2.4,0.1,2.4s1.7-1.8,1.5-3
					c-0.3-1.2-1.7-2-4-1.8c-8.9,0.5-9-1.8-9.8-2.8c-0.8-0.9-2.4-5-0.3-8.8c2.1-3.8,9.1-9.2,9.1-9.2l-0.1-1.7c0,0-0.9,0.8-4,3.4
					C123.5,143.5,121.9,145,121.6,150"/>
				<path class="st1" d="M128.1,143.9l-1.5,0.7c0,0-1.4,2.9-2.1,5.9c-0.7,3,2.1,5.4,2.1,5.4s-1.6-5,0-7.3
					C127.6,147.4,128.1,143.9,128.1,143.9"/>
				<path class="st1" d="M129.7,154.4c-1.6,0-2.6-3.4-2.6-3.4s-0.1,0.7-0.1,2.1c0,1.5,2.4,2.3,4.2,2.4c1.9,0.1,6.7-0.9,8.4,1.9
					c2.7,4.4-1.7,6.3-1.7,6.3l1.2,1.3c0,0,3.3-2.9,3-4.2c-1.2-5.9-3.7-6-4.8-6.5C136.3,153.7,131.2,154.4,129.7,154.4"/>
				<path class="st1" d="M110.1,140.8c-0.8-0.5-2.9,0.8-3.2,1.3c-0.3,0.5,1.3,3.6,2.2,3.2c0.9-0.4-0.1-1.6,0.1-2.5
					C109.6,141.8,110.9,141.3,110.1,140.8"/>
				<path class="st1" d="M110,143c-0.4,1.3,0.5,3.2,1.6,2.6c1-0.5-0.7-1.1-0.3-2.4c0,0,1.9-1.6,0.9-2.2
					C111.8,140.7,110.4,141.7,110,143"/>
				<path class="st1" d="M115.1,142l-1.5-0.7c0,0-1.2,0.8-1.5,2.1c-0.3,1.3,0.3,2.8,0.3,2.8l1.3,0.5l0.4-1.6c0,0,0.9,1.2,1.6,3.2
					c0.7,2-1.8,5.4-1.8,6.5c0,1.1,0.3,3.7,2.4,4.9c2.1,1.2,3.8,3.2,4.8,5.2c0.9,2,0,4.1,1.5,5.4c4.7,4.3,7.4,0.9,7.4,0.9L129,170
					c-1.3,0.4-2.5,0.4-4.7-0.5c-2.3-0.9-2.3-5.5-2.8-7c-0.5-1.4-4.6-3.8-5.5-5c-0.9-1.2-0.8-1.8,0.4-5.9c1.2-4.1,0.5-4.6-0.3-5.8
					c-0.8-1.2-2-1.2-2.1-1.9C113.8,143.2,115.1,142,115.1,142"/>
				<path class="st1" d="M116,142.9l-0.3,0.8c0,0,2.1,0.4,2.7,4.2c0.5,3.8-1.7,5.2-1.5,7.3c0.3,2.1,4.8,4.2,5.6,5.4
					c0.8,1.2,0.9,2.4,1.6,4.8c0.7,2.4,3.6,2,3.6,2s0.8-0.5,0-0.8c-0.8-0.3-2.4-1.7-2.4-1.7s-0.5-3.8-1.8-5.3
					c-1.3-1.4-4.7-3.7-5.2-4.5c-0.4-0.8,0.8-2.5,1.3-6.7C120.1,144.1,116,142.9,116,142.9"/>
				<path class="st1" d="M133.9,163c-0.1,1.4,0.5,2.2,0.5,2.2l2.1-1.3c0,0-0.5-0.3-0.7-1.3c-0.1-1,0-1.6,0-1.6S134,161.5,133.9,163"
					/>
				<path class="st1" d="M132.7,161.2c0,0-1.1,0.5-1.3,1.1c-0.2,0.7,0.4,1.2,0.5,2.3l0,2c0.6,2.1,2.1,1.7,2.1,1.7l-0.2-2.3
					c0,0-0.8-2.2-0.8-2.8c0-0.7,1.2-1.7,0.8-2.1C133.6,160.7,132.7,161.2,132.7,161.2"/>
				<path class="st1" d="M129.5,164.3c0.1,0.7-0.1,0.6,0.5,1.6c0.5,0.9,0.5,2.8,0.5,2.8s0.7,1,1.5,0.9c0.4,0,0.6-0.9,0.6-0.9
					s-1-0.5-1-1c0-1.4-1.1-4.9-1.1-4.9S129.3,163.5,129.5,164.3"/>
				<path class="st1" d="M130.6,169.6c0,0-0.9-1-0.7-2c0.3-1.3-0.8-2.6-1.2-2.6c-0.7,0-0.1,3.3,0,4.1
					C128.9,169.8,130.7,170.5,130.6,169.6"/>
				<path class="st1" d="M132.1,169.9c-0.4,0.3-0.1,0.7,0.4,0.9c0.5,0.2,1.2,0.1,1.2,0.1S133,169.3,132.1,169.9"/>
				<path class="st1" d="M136.3,169.8c0,0-1-0.7-1.4-0.9c-0.5-0.2-1.5-0.1-1.5-0.1l0,0.5c0,0,0.2,0.7,1.4,0.9
					C135.9,170.4,136.3,169.8,136.3,169.8"/>
				<path class="st1" d="M132.3,171.1l-1-0.7l-0.6,0.1c0,0-0.1,0.4,0.4,0.8C131.5,171.7,132.3,171.1,132.3,171.1"/>
				<path class="st1" d="M140.2,148.8c0.6,1.6,1,4.2,1,4.2s0.4,0.5,1.9,0.2c1.5-0.3,1.1-2.4,1.1-2.4s-1.5-3.6-1.5-5.9
					c0-1.1,1.1-3.7,1.1-4.2c0-0.5-0.9-0.5-0.9-0.5s-1.3,2.6-1.5,4.4c-0.2,1.7,1,4.4,1.1,5c0.1,0.5,0.4,1.4,0,1.4
					c-0.4,0.1-2.4-5.9-2.4-7.1c0-1.2,1.3-3.2,1.5-3.7c0.3-0.5-0.4-0.8-0.9-0.8c-0.8,0-1.7,4.1-1.9,5.3
					C138.6,146,139.6,147.2,140.2,148.8"/>
				<path class="st1" d="M146.7,153.8c0,0,0.6,1.3,2.7,0.4c2.1-0.9,1-4.7,0.6-5.7c-0.4-1.1,0-5.5,0-5.5s0.3-1.1-0.5-1.1
					c-0.8,0-1,0.9-1,0.9s-0.5,2.7-0.4,4.3c0,0,1.4,4.3,0.8,4.9c-0.6,0.5-1.6,0.3-1.6,0.3c-1.8-1.5-1.8-3.9-2.2-5.3
					c-0.5-1.5,0.7-4.9,0.7-5.3c0-0.5-1-0.4-1-0.4s-1.4,1.9-1.3,5C143.6,149.1,146.7,153.8,146.7,153.8"/>
				<path class="st1" d="M147.2,141c-0.5-0.1-0.9,2.1-1.1,4.6c-0.1,2.4,1.4,5.1,1.4,5.1l0.6-0.8c0,0-0.5-3.3-0.6-4.2
					c-0.2-0.9,0.5-3.5,0.5-3.8C148,141.6,147.6,141.1,147.2,141"/>
				<path class="st1" d="M154.9,148.3c0,0,0.1,1.5-0.3,1.7c-0.3,0.3-1.1,0.8-1.9-0.4c-0.9-1.2-0.5-7.7-0.5-7.7h-0.9
					c0,0-0.5,2.4-0.6,3.9c-0.1,1.5,1.2,5.6,1.2,5.6s0.9,1.1,2.8,1c1.9-0.1,2.6-2.8,2.1-4c-0.5-1.3-0.5-7.4-0.5-7.4s-0.3-0.2-1.1-0.1
					C154.3,140.9,154.9,148.3,154.9,148.3"/>
				<path class="st1" d="M153.7,149c0.5-0.2,0.5-0.9,0.5-0.9l-0.3-6.9l-0.9,0.7l0.1,6.8C153.2,148.6,153.3,149.2,153.7,149"/>
				<path class="st1" d="M158.8,139.8c-1,0.7,0.9,5.7,0.9,5.7S159.8,139.1,158.8,139.8"/>
				<path class="st1" d="M159.6,139c-0.5,0.6,0.7,4.9,0.8,5.4c0.1,0.5,0.3,1.7-0.3,2.2c-0.5,0.5-0.6,0.9-1.3,0.4
					c-0.7-0.5-0.9-6.2-0.9-6.2l-0.9,0l-0.3,3.4c0,0,0.7,5.4,2.4,5.5c1.9,0.1,2.8-3.5,2.8-3.5l-1.7-7.4
					C160.3,138.8,160.1,138.4,159.6,139"/>
				<path class="st1" d="M162.5,136.8c0,0,1.3,4.2,0.9,4.5c-0.4,0.3-0.7-0.1-0.7-0.1s-1-2.4-1.1-2.6c-0.1-0.2-0.3-0.7-0.7-0.5
					l-0.3,0.5l1.2,3.4c0,0,0.1,1.3,2,0.9c0.8-0.2,0.9-1.6,0.9-1.6s-1.3-4.5-1.6-4.9C162.9,136,162.5,136.8,162.5,136.8"/>
				<path class="st1" d="M164.5,135.8c-0.1,0.5,1.2,1.2,1.2,1.9c0,0.7-0.5,1.2-0.5,1.2s0.8,1.2,1.1,0.9c1.7-1.3,1.5-2.4,1.5-2.4
					s-1.2-0.4-2.8-2.4C164.9,134.8,164.6,135.2,164.5,135.8"/>
				<path class="st1" d="M164.9,143.3c-0.3,0.1-0.8,0.9-0.8,0.9l4.6,7.3c0,0,0.7,0.5,1,0.2c1.5-1.9-3.8-10.8-3.8-10.8l-0.5-0.3
					l-0.1,1.1c0,0,3.3,6.3,2.8,6.4C167.6,148.2,165.2,143.2,164.9,143.3"/>
				<path class="st1" d="M161.5,149.8c0.3,1,3.8,7.5,3.9,7.7c0.1,0.2,1.7,1.7,2.8-0.3c2.4-4.2-5-12.5-5-12.5v1.3
					c0,0,5.7,8.1,3.9,9.8c-1.2,1.1-4.8-6.8-4.8-6.8S161.2,148.8,161.5,149.8"/>
				<path class="st1" d="M164.3,149c-0.9-1.3-1.5-1.8-1.5-1.8l-0.3,1l3.3,5.9l0.7-0.4C166.6,153.8,165.2,150.3,164.3,149"/>
				<path class="st1" d="M162.1,158.8c0.3-0.2,0.1-1,0.1-1l-3.8-7.5c-0.6,0.1-0.9,1.1-0.9,1.1l3.6,6.9
					C161.2,158.3,161.8,159,162.1,158.8"/>
				<path class="st1" d="M157.1,152.6c-0.8-0.2-1.2,0.7-1.2,0.7l5.1,7.9c0,0,0.6,1.5,2.8,0.6c2.2-0.9,0.5-5.1,0.5-5.1
					s-3.3-6.5-3.6-6.6c-0.3-0.1-0.9,0.6-0.9,0.6l3,6.4c0,0,1.2,1.3,0.5,2.5c-0.7,1.2-1.1,0.1-2.7-1.3
					C158.8,156.8,157.8,152.8,157.1,152.6"/>
				<path class="st1" d="M156.3,160.5c0.6,0.3,0.3-0.5,0.3-0.9c0-0.4-4.9-6.7-4.9-6.7l-0.4,0.9C151.3,153.7,155.7,160.2,156.3,160.5
					"/>
				<path class="st1" d="M149.5,155.1l6.6,8.3c0,0,1.5,1.3,2.3,0.5c2.7-2.6-3.6-10.3-3.6-10.3l-1.1-0.1c0,0,5,8,4,8.5
					c-1.7,0.9-6.7-7.2-7-7.4C150.4,154.4,149.5,155.1,149.5,155.1"/>
				<path class="st1" d="M145.9,157.4c2.8,4.1,6,6.1,6.3,6.3c1.1,0.7,2.2,0.2,1.9-0.4c-2.3-4.9-5.6-8-6-8.1
					c-0.4-0.1-0.6,0.3-0.6,0.3s0.4,0.9,1.4,1.5c1,0.6,1.9,3.6,1.9,3.6l-5.9-7l-1.1,0.5C143.8,154,143.1,153.3,145.9,157.4"/>
				<path class="st1" d="M145.6,160.5c0.5,0.3,1.1,0.9,1.3-0.7c0.1-1.6-1.3-0.9-1.4-1c-0.2-0.1-0.5-1.9-0.5-1.9l-0.9-1
					C144,155.9,143.6,159.5,145.6,160.5"/>
				<path class="st1" d="M147.3,160.5c0,0,0.6,2.9,0.9,4c0.3,1.1,1.9,3.8,2.9,3.6c2-0.4,1-3.4,1-3.4s-0.8-1.1-0.9-0.4
					c-0.1,0.6,0.1,2-0.5,2c-0.6,0.1-2.4-4.7-2.4-4.7L147.3,160.5z"/>
				<path class="st1" d="M156.1,173.9c1.2-0.3,0.9-3.2,0.9-3.2l-0.9-0.9c0,0,0.2,2.6-0.7,2.4c-0.9-0.1-1.7-5.5-1.7-5.5l-0.7-0.9
					c0,0,0.5,4.4,0.7,5.6C153.7,172.5,154.9,174.3,156.1,173.9"/>
				<path class="st1" d="M155.2,170.9c0.5,0.1,0.1-2,0.1-2l-0.7-0.9C154.6,168.1,154.7,170.9,155.2,170.9"/>
				<path class="st1" d="M150.5,163.6l-0.7-0.5c0,0,0.5,2,0.7,2.1C150.8,165.1,150.5,163.6,150.5,163.6"/>
				<path class="st1" d="M147.8,164.6l-0.4-0.8c0,0-1.4-0.5-1.4-1.1c0-0.5,0.9-0.3,0.9-0.3c0.2-0.4-0.2-0.8-1.1-1.2
					c-0.6-0.3-1.5-0.7-1.5-0.3c0.1,0.3,0.5,2.2,1.2,2.8C146.2,164.2,147.8,164.6,147.8,164.6"/>
				<path class="st1" d="M137.3,166.7c0.3,0.1,1.4,0.9,1.6,0.2c0.2-0.7-0.4-2.3-1.8-2.1c-1.4,0.2-2.4,1.8-2.4,2
					c0,0.3-0.3,1.5,1.7,2.3c2,0.9,0.6,1.2,2,1.3c1.4,0.1,5.9-4.7,5.9-4.7s0.8-0.9,0.1-2.4c-0.7-1.4-1.6-2-1.6-2l-0.5,1.1
					c0,0,0.9,1.4,0.6,2.2c-0.3,0.8-4,3.8-4,3.8s-2.3-0.7-2.1-1.3C137,166.5,137,166.6,137.3,166.7"/>
				<path class="st1" d="M144.2,167.8c0.3,0.6,3.6,2.1,3.6,2.1l0.9-0.4l-2.6-1.4c0,0-1-0.6-0.1-1.4c0.9-0.9,2.2-0.5,2.2-0.5l0.2-0.3
					c0,0-1.3-0.8-2-0.5C145.7,165.6,143.9,167.3,144.2,167.8"/>
				<path class="st1" d="M150.1,168.6c0.2-1.1-3.4-1.5-3.4-1.5S149.9,169.7,150.1,168.6"/>
				<path class="st1" d="M146.7,171l0.8-0.7l-4.1-1.2c0,0-3.3,0.5-2.8,1.4c0.4,0.6,5.2,1.7,5.2,1.7l0.5-0.7c0,0-3.2-0.9-3-1.4
					C143.5,169.5,146.7,171,146.7,171"/>
				<path class="st1" d="M153,172.9c0,0,0.1-0.3-0.1-0.8c-0.2-0.5-4.1,1.2-4.6,0.3c-0.5-0.9,3.6-2.6,3.9-2.9
					c0.3-0.3,0.1-0.6,0.1-0.6s-0.9-0.2-1.2,0c-0.3,0.2-4.8,2.6-4.6,4.5C146.7,175.2,153,172.9,153,172.9"/>
				<path class="st1" d="M149.7,172.1c0,0,2.3-0.5,2.6-0.7c0.4-0.1,0.3-1,0.3-1S149.6,170.4,149.7,172.1"/>
				<path class="st1" d="M170.4,144.4c0,0,1.7,1.7,1.7,2.8c0,1.1-1.5,2.1-1.5,2.1l0.5,1.1c0,0,1.9-1.2,2.5-3.2
					c0.6-1.9-2.9-3.5-2.9-3.5L170.4,144.4z"/>
				<path class="st1" d="M170.2,147.9c0,0,0.6-0.3,0.7-1.1c0.1-0.9-1.6-1.7-1.6-1.7L170.2,147.9z"/>
				<path class="st1" d="M170.9,151.9c-0.4-0.3-0.7,0.6-0.7,0.6l3.4,9.4C174.5,159.4,171.3,152.2,170.9,151.9"/>
				<path class="st1" d="M169.6,156.4c0,0,0.8,2.1,1.4,3.7c0.6,1.6,1.7,7.9,1.7,7.9l1,0.2c0,0,1-1.9,1.5-6.3
					c0.5-4.5-2.8-10.7-2.8-10.7l-0.6,0.9c0,0,0.6,0.1,1.9,4.8c1.3,4.8,0.2,7.8,0.2,7.8l-0.5-0.2c0.2-1.5-3.3-10.3-3.3-10.3
					L169.6,156.4z"/>
				<path class="st1" d="M165,161.6c-0.3,0.8,4,8.6,4.8,9.5c0.8,0.9,1.3-0.4,1.3-0.4c2-6.2-2-13.2-2-13.2l-0.5,1.1
					c0,0,3.2,8,1.6,9.9c-0.9,1-4.6-7.8-4.6-7.8S165.3,160.9,165,161.6"/>
				<path class="st1" d="M169.6,166.4c1-0.7-2-7.2-2-7.2h-1.2l2,5.1C168.4,164.3,169,166.8,169.6,166.4"/>
				<path class="st1" d="M164.8,169.3c0.8-0.6-3-6.5-3-6.5l-1.6-0.9C160.2,161.9,164,169.9,164.8,169.3"/>
				<path class="st1" d="M154.9,164.4c0,0,5.8,7.2,5.6,6.4c-0.2-0.8-4.6-7.2-5.2-7.3C154.7,163.4,154.9,164.4,154.9,164.4"/>
				<path class="st1" d="M153.4,165c0,0,7.2,9.5,8.8,9.1c2.7-0.8-3.4-8.7-3.4-8.7l-1.1,0.1c0,0,5,5.9,3.7,6.7
					c-1.3,0.8-6.2-6.5-6.6-6.9C154.3,164.7,153.4,165,153.4,165"/>
				<path class="st1" d="M163.1,163.1c0,0,4.1,7.7,2.7,8.1c-1.3,0.4-5.7-7.3-5.7-7.3l-0.6,1c0,0,4.2,9.2,7.1,8.4
					c2.9-0.8-2.2-10.8-2.5-10.9C163.9,162.2,163.1,163.1,163.1,163.1"/>
				<path class="st1" d="M170.7,172h-1.1c0,0,2.3,6.9,4,6.4c1.8-0.4-1.5-7.8-1.5-7.8l-0.6,0.7c0,0,1.6,4.5,1.1,4.8
					C172.3,176.3,170.7,172,170.7,172"/>
				<path class="st1" d="M164.3,173.4c0,0,3.9,8.5,6.2,7.7c2.2-0.8-2-9.3-2-9.3l-0.5,1.3c0,0,2.4,5.3,1.7,5.7
					c-1.7,0.9-3.7-4.4-3.7-4.4L164.3,173.4z"/>
				<path class="st1" d="M169,177.5c0.2-0.4-1.1-3.5-1.1-3.5l-1.1-0.1C166.8,173.9,168.9,177.8,169,177.5"/>
				<path class="st1" d="M163.1,175.2c0,0,1.8,3.1,2,2.3c0.3-0.8-1.8-3.4-1.8-3.4L163.1,175.2z"/>
				<path class="st1" d="M161.3,175.6c0,0,2.3,3.7,3,4.3c0.3,0.4,1,0.4,1.2,0.2c0.5-0.4,1-1.3,0.7-1.6c-0.3-0.3-1.1,0.2-1.5,0
					c-0.3-0.2-2.1-3.1-2.1-3.1L161.3,175.6z"/>
				<path class="st1" d="M197.8,175.2l-21.7-15.4l-0.1,1.1l20.6,15.3c0,0-1.1,1.9-3.2,1.3c-2.7-0.6-17.1-13.3-17.1-13.3l-0.4,1.3
					l14.4,12.1c0,0,1.9,1.5,3.3,1.5c1.3,0,5-0.7,5.4-1.9C199.1,175.9,197.8,175.2,197.8,175.2"/>
				<path class="st1" d="M194.1,176.3c0.5-0.7-1.2-1.6-1.2-1.6l-16.5-12.7l-0.1,1.1l15.7,12.6C191.9,175.8,193.3,177.4,194.1,176.3"
					/>
				<path class="st1" d="M187.7,176.3l-12.3-9.9l-0.1,1l11.7,10.2c0,0,1.6,1,1.9,0.6C189.3,177.7,187.7,176.3,187.7,176.3"/>
				<path class="st1" d="M191.4,179.3l-1.1-0.8c0,0-1.8,0.9-2.9,0.1c-1.1-0.8-1.6-1.1-1.6-1.1l-10.9-9.6l-0.2,0.8l11.1,10.6
					c0,0,1.2,1.1,2.4,1.1C189.3,180.4,191.4,179.3,191.4,179.3"/>
				<path class="st1" d="M182.3,178.5c0.5,0.3,1.9,0.5,1.9,0.5l-10.2-10l-0.2,0.7C173.9,169.7,181.8,178.1,182.3,178.5"/>
				<path class="st1" d="M185.9,180.9l0.3-0.6c0,0-1.8-0.4-3.3-1c-1.6-0.6-9.7-9.1-9.7-9.1l0.2,1.6c0,0,7.2,7.8,9.2,8.5
					C184.6,181.1,185.9,180.9,185.9,180.9"/>
				<path class="st1" d="M179.3,180.3c0.4,0.3,1.8,0.3,1.8,0.3l-7-7.1l0.2,1.3C174.2,174.9,178.9,180,179.3,180.3"/>
				<path class="st1" d="M176.5,187.1c1.3,0.1,2.8-1.7,3.6-2.9c0.8-1.2-1.3-2.6-1.6-2.6c-0.3,0-1.3,0-2.2-0.3
					c-0.9-0.3-1.8-1.8-1.8-1.8l-1.4,0.1c0,0,0.9,1.3,1.3,1.9c0.4,0.6,1.7,1,1.7,1s1.7-0.1,0.7,1.5c-1,1.6-2.2-0.8-2.2-0.8l-2.3-2.5
					c-1.5,1.6-3.3,1.3-3.3,1.3c-0.2,1.6-3.6,3.5-3.6,3.5l-0.2-0.4c3.4-2.8,3.3-3.8,2.7-4.3c-0.5-0.5-3.3,0.3-3.3,0.3H163
					c0,0-2-0.3-2.2,0.5c-0.9,3.9,0.6,3.8,0.6,3.8l1.6-1.6c0,0-0.2-0.8,0-1.1c0.2-0.3,1.7-0.4,1.7-0.4s2-0.9,2.2-0.5
					c0.2,0.3-1.9,2-1.9,2s-0.4-0.3-1.4,0.3c-1.1,0.5-1.1,2.1-1.1,2.1s0.9,2.4,2.3,2.3c1.4-0.1,2.1-1.8,2.1-1.8l3.3-2.7
					c0,0-0.3,0.7,1.1,1.1c1.4,0.4,1.5-2.5,1.5-1.1c0,1.4,1.6,1.8,1.6,1.8S175.2,187,176.5,187.1"/>
				<path class="st1" d="M163.7,189.1c0,0-1-0.7-1.3-1.1c-0.3-0.3-0.6-1.6-0.6-1.6s-1.6,0.3-1.6,2.6c0,3,3,2.5,3,2.5s-0.9-1-0.8-1.4
					C162.4,189.8,163.7,189.1,163.7,189.1"/>
				<path class="st1" d="M159.7,185.3l-0.2-3.5c0,0-2.5-0.2-3.2,1.6c-1.1,2.8,1.4,3.5,1.4,3.5s-0.1-1.2,0.3-1.5
					C158.6,185.1,159.7,185.3,159.7,185.3"/>
				<path class="st1" d="M180,190.4c0.2,0.1,3,0.1,3.1-2.2c0.1-2.3-1.9-3.6-1.9-3.6l-1.6,2c0,0,0.5,0.4,1,1.6
					C181,189.5,179.3,190.1,180,190.4"/>
				<path class="st1" d="M106.4,159.4c0.2,1,1.5,1.3,1.5,1.5c0.1,0.2,0.3,1.4,1.2,0.8c0.9-0.6,0.1-1.7-0.1-1.9
					c-0.2-0.2,0.1-0.9,0-1.5c-0.1-0.6-0.9-1.1-2-0.4C107.1,158,106.2,158.5,106.4,159.4"/>
				<path class="st1" d="M108.4,163.2c0,0,1.7,1.8,2.4,1.4c0.7-0.4-0.2-2.7-0.2-2.7L108.4,163.2z"/>
				<path class="st1" d="M107.8,163.8l-1.2,1.1c0,0,1.8,1.8,2.3,1.1C109.4,165.3,107.8,163.8,107.8,163.8"/>
				<path class="st1" d="M113,161.5l-1.7,0.1c0,0-0.1,2.8,1,2.7C113.4,164.2,113,161.5,113,161.5"/>
				<path class="st1" d="M111.6,166.2c0,0,2.1-1.2,2.6,1.6c0.3,1.9-0.5,2.5-1.2,2.2c-0.7-0.3-2.2-1.4-2.1-2.6
					C111.1,166.2,111.6,166.2,111.6,166.2 M109.3,167.8c0,0.4,1.9,5.4,5.1,3.2c2.4-1.6-0.9-6.1-1.5-6.2c0,0-0.8-0.1-2,0.6
					C109.7,166.1,109.3,167,109.3,167.8"/>
				<path class="st1" d="M117.8,170c-3.9,1.4-6.3,5.2-6.4,5.7c-0.1,0.5-1.6-0.3-1.6-0.3c0,2.2,2,2.2,2.2,2.5
					c0.2,0.3,1.9,2.9,1.9,2.9l-1.5,0.5c0.9,1.5,1.9,0.7,2.7,0.8c0.8,0.1,2.8,1.8,2.8,1.8l-1.3,0.9c1.6,0.8,3.2-0.7,3.2-0.7l3.7,0.5
					l0.3-1.4c0,0-2.5,0.2-5.5-1.6c-1.7-1.1-4-3.6-4-3.6s-0.7-0.7-0.7-2.5c0-1.8,4.2-4,5.2-3.8c1,0.1-0.5-0.2,1.8,1.3
					c2.4,1.5,3.4,6.3,3.8,6.8c0.4,0.5,1.1-0.5,1.1-0.5l-0.7-2.2c0,0,0.2-0.1,0.8-1.4c0.6-1.3-0.5-2.6-0.5-2.2
					c0.1,0.5-1.2,1.4-1.5,1.1c-0.3-0.3-0.3-1.2-4-4.2c-0.3-0.3,0.2-0.8-0.3-1.5c-0.8-1.1-2.2-0.5-2.2-0.5S119,169.6,117.8,170"/>
				<path class="st1" d="M117.8,173.9c0,0-0.7,1.6-0.4,2.1c0.3,0.5,1.1,0.5,1.5,0C119.3,175.6,117.8,173.9,117.8,173.9"/>
				<path class="st1" d="M122.3,176.8l-1.8-1.6c0,0,0.3,2.4,0.9,2.6C122,177.9,122.3,176.8,122.3,176.8"/>
				<path class="st1" d="M123.1,181.3c0.9-0.5-2.6-1.4-2.6-1.4S120.7,182.6,123.1,181.3"/>
				<path class="st1" d="M118.2,179.5c0.9-0.1,0-1.4,0-1.4l-1.8-0.7C116.4,177.3,117.4,179.6,118.2,179.5"/>
				<path class="st1" d="M135.3,176.5c0.8,0.1,1.4-2.3,1.4-2.3l-2-0.4C134.7,173.8,134.6,176.4,135.3,176.5"/>
				<path class="st1" d="M133.2,176.4c0.8-0.2,0.6-2.2,0.6-2.2l-1.6,0.2C132.2,174.3,132.3,176.6,133.2,176.4"/>
				<path class="st1" d="M137.2,177.2c0.9,0.6,1.5-2,1.5-2l-1.4-0.3C137.3,174.9,136.4,176.6,137.2,177.2"/>
				<path class="st1" d="M133,182c-0.4-0.7-0.6-2.3-0.1-3.1c0.7-1,1.8-0.4,1.8-0.4s1.4,0.2,0.2,2.7C134,182.8,133.4,182.7,133,182
					 M136.5,178c0,0-0.6-0.6-1.9-0.7c-1.4-0.1-1.7,0-2.2,0.6c-0.2,0.3-2.3,5.7,1.6,5.9C136.8,184,137,178.5,136.5,178"/>
				<path class="st1" d="M124.3,187.4l-1.1,0.6c0.8,1.6,2.6,0,3.3-0.1c0.6-0.1,3.9,1.5,4.1,2.1c0.2,0.6-1,1.1-1,1.1
					c1.3,0.8,2.6-0.7,2.9-0.9c0.3-0.2,4.9-0.3,6-0.8c1-0.5,0.7-1.8,0.7-1.8s-3.5,0.9-5.7,1c-2.2,0.1-6.9-2.4-7.4-3.1
					c-0.5-0.7,1.8-5.4,2.6-5.9c0.9-0.5,1.6,0.2,2.1-0.1c0.5-0.3,0.1-1.1,0.1-1.1s-1.1,0.4-1.8-0.4c-0.6-0.8-2-0.8-2-0.8l0.3,1.3
					c0,0-1.3,1.5-2.2,3.4C124.5,183.3,124.3,187.4,124.3,187.4"/>
				<path class="st1" d="M128.6,183.4c0,0,2.4,1.7,2.5,0.3C131.1,182.2,128.6,183.4,128.6,183.4"/>
				<path class="st1" d="M133.7,187.1c0.6-0.5-2.3-1-2.3-1S132.2,188.5,133.7,187.1"/>
				<path class="st1" d="M138.9,186.3c0.4-1-2.3-0.9-2.3-0.9S138.6,187.3,138.9,186.3"/>
				<path class="st1" d="M140.5,183.8l-2.4-2.6l-0.6,0.6c0,0,0.4,0.8,0.8,1.4c0.4,0.6,2.1,1.5,2.1,1.5L140.5,183.8z"/>
				<path class="st1" d="M153.9,195.7C153.9,195.7,153.9,195.7,153.9,195.7C153.9,195.7,153.9,195.7,153.9,195.7"/>
				<path class="st1" d="M149.4,194.4c0.1,0.4-1,0.9-1,0.9c1.4,0.4,2.8-1,2.8-1l2.4-0.2c0,0,1-0.4,0.7,0.6c-0.2,0.8-0.3,0.9-0.4,1
					c2.6,0,2.8-2.5,2.8-2.5l1.6-0.5c0,0,0.6-2.3,0.3-2c-2.2,1.7-7.4,1.5-9.5,1.6c-2.1,0.1-6.7-1.9-7-2.5c-0.3-0.5,0.2-3.8,1.4-5.8
					c1.2-2,2.3-1.7,5.3-1.4c3,0.3,6.6,2.9,6.6,2.9l0.1-1.2c0,0-1.5-0.3-2-1.9c-0.7-2.2-1.8-2.5-1.8-2.5s0.2,0.4,0.2,1.1
					c0,0.7-1,0.4-1,0.4l-3-0.9c0,0-0.4-0.5-0.7-1.2c-0.4-0.7-2.2-0.4-2.2-0.4l0.7,1.2l-2.4,1.1c-2.1-0.5-2.6-0.1-2.6-0.1
					s1,0.5,1.1,1.6c0.2,1.1-1.6,3.9-1.6,7c0,3.1,2.8,3.1,2.8,3.1l-0.9,1.5c0.6,0.8,3.4-1.1,3.4-1.1S149.3,194,149.4,194.4"/>
				<path class="st1" d="M148.5,186.1c0-1.9-3.7,0-3.7,0S148.5,188,148.5,186.1"/>
				<path class="st1" d="M152,185.9c0.9-1.8-2.7-1.8-2.7-1.8S151.1,187.8,152,185.9"/>
				<path class="st1" d="M153.3,188.5c0.7-1.3-3.3-1.2-3.3-1.2S152.6,189.8,153.3,188.5"/>
				<path class="st1" d="M158.1,188.6c0.3-1.8-3.6,0.3-3.6,0.3S157.9,190.3,158.1,188.6"/>
				<path class="st1" d="M150.2,190c-0.4-1.5-3.3,0.2-3.3,0.2S150.6,191.5,150.2,190"/>
				<path class="st1" d="M169.7,186.6c0,0-2.9,1.1-2.1,2.1C168.4,189.7,169.7,186.6,169.7,186.6"/>
				<path class="st1" d="M170.5,188.4c0.3,1.5,3.4-0.9,3.4-0.9S170.2,186.9,170.5,188.4"/>
				<path class="st1" d="M173.3,191c0,0-4.2-1-3.8,0.8C169.9,193.5,173.3,191,173.3,191"/>
				<path class="st1" d="M165.6,192.8c1.1,1.7,2.6-2.6,2.6-2.6S164.6,191.1,165.6,192.8"/>
				<path class="st1" d="M161.8,197.9c1.9,1.2,1.9-2.9,1.9-2.9S159.9,196.7,161.8,197.9"/>
				<path class="st1" d="M178.4,191.5c1.3-1.7,0.5-4,0.5-4l-1.8,0.9c0,0,0.5,3.1-3.9,4.9c-1.7,0.7-7,2.4-7.9,2.9
					c-0.9,0.5-1.4,4.2-1.7,4.3c-0.3,0.1-3.1,0.7-4-0.1c-0.9-0.8,1.1-8.5,1.1-8.5l-1.2-1c0,0-0.4,1.3-1.3,4.2
					c-0.9,2.9,0.4,7.3,0.4,7.3l6.4-0.2c0,0,1.4-4.1,1.9-4.8c0.4-0.7,5.9-1.9,6.2-2c0.1,0.1,0.2,0.3,0.4,0.5c0.8,1.1,2-0.2,2-0.2
					s-0.5-0.9-0.4-1.6C175.2,193.5,177,193.2,178.4,191.5"/>
				<path class="st1" d="M192.3,185.4l-2.7-1.3c0,0-0.2-0.8,0.3-1.2c0.4-0.4-1.3-0.2-2.2,1.9c-0.2,0.5-0.6,1-1.4,0.5
					c-0.8-0.4-0.8-1.1-0.8-1.1s-1.1,1-1,1.5c0.1,0.5,0.3,1,0.3,1s-1.8,4-2.4,4.4c-0.6,0.4-2.5,0.3-2.5,0.3l-0.8,1.1
					c0,0,3.5,1.1,4.5-0.4c0.9-1.6,1.8-4,2.9-4.8c1-0.9,3.3-1.6,4-1.5c0.6,0.1,1.4,0.8,1.4,0.8L192.3,185.4z"/>
				<path class="st1" d="M192.5,196.8l-0.7-1.1l2.6-2.1c0,0,2.8-0.2,2.8-1.3c0-1.1-1,0.9-1.7,0.1c-0.7-0.8-0.3-1.7-0.3-1.7h-1.8
					c0,0,0.5,1.3-0.4,1.8c-0.9,0.5-4.3,2.6-8,3c-1.4,0.1-7.4-1.7-7.4-1.7l-1.5,0.9l3.6,1.2c0,0,0.2,2.3,2.1,2.3c0,0,0.2-1.2,0.3-1.6
					c0.2-0.3,4.7,1.2,7.1-0.3C189.5,196.2,192.1,197.6,192.5,196.8"/>
				<path class="st1" d="M184,192.9c0,1.2,3.2-0.1,3.2-0.1S184,191.7,184,192.9"/>
				<path class="st1" d="M188,188c0,0-3.5,2.1-1.8,3C187.9,191.8,188,188,188,188"/>
				<path class="st1" d="M190.6,188.9c0,0-3.8,1.6-1.8,2.5C190.7,192.3,190.6,188.9,190.6,188.9"/>
				<path class="st1" d="M190.2,192.6c0,0-2.5-0.8-2.5,0C187.9,194.8,190.2,192.6,190.2,192.6"/>
				<path class="st1" d="M200.6,183.9l-1.3-1.2c0,0-1.4,1.5-0.8,2C199.1,185.2,200.6,183.9,200.6,183.9"/>
				<path class="st1" d="M197.2,183.2c0.8,0.3,1.8-1.3,1.8-1.3l-1.7-0.8C197.3,181.1,196.4,182.9,197.2,183.2"/>
				<path class="st1" d="M201.3,185c0,0-2.4,0-2.1,1.1c0.3,1,2.1,0.5,2.1,0.5V185z"/>
				<path class="st1" d="M193.6,187.3c0.1-0.8,0.8-1.3,1.7-1.6c1.1-0.4,1.3,0.6,1.3,0.6s0.4,0.7-0.9,1.1
					C194,188,193.5,188,193.6,187.3 M198.4,186.3c0,0-0.1-0.8-1.1-1.7c-1-0.9-1.3-1-2.1-0.8c-0.4,0.1-5.2,3.1-2.3,5.6
					C195.1,191.1,198.5,186.9,198.4,186.3"/>
				<path class="st1" d="M202.1,179.4c-0.3,0.3-0.5,1.1-0.5,1.1s-1.7,1.4-0.8,2c0.8,0.6,1.6-0.3,1.8-0.7c0.3-0.5,0.8,0.2,1.3-0.6
					c0.4-0.6,0.3-1.6-0.2-1.9C203.1,178.9,202.4,179.1,202.1,179.4"/>
				<path class="st1" d="M222.7,177.2c0.8-0.3,1.3-1.3,1-1.9c-0.3-0.6-1-0.9-1.6-0.8c-0.5,0.1-1.1,0.8-1.1,0.8s-2.4,0.3-2,1.3
					c0.4,1.1,1.7,0.6,2.1,0.4C221.7,176.6,221.7,177.6,222.7,177.2"/>
				<path class="st1" d="M212.5,172.6c-0.3,0.6-0.1,1.4,0.3,1.7c0.4,0.3,1.3,0.4,1.3,0.4s1.7,1.8,2.3,0.8c0.6-1-0.5-1.7-0.9-1.9
					c-0.6-0.2,0.2-0.9-0.7-1.4C213.9,171.8,212.9,171.9,212.5,172.6"/>
				<path class="st1" d="M210.5,198.9c0.7-0.1,1,1.1,2,1.1c0.9,0,1.7-1,1.6-1.7c0-0.7-0.6-1.3-1.1-1.4c-0.5-0.1-1.3,0.3-1.3,0.3
					s-2.5-0.4-2.5,0.8C209.3,199,210,198.9,210.5,198.9"/>
				<path class="st1" d="M206.1,191.7c-0.7-0.6-2-0.1-2.5,0.5c-0.5,0.6-0.4,1.6-0.1,2c0.4,0.5,1.4,0.7,1.4,0.7s1.5,2.4,2.4,1.4
					c0.9-1-0.2-2.1-0.7-2.4C206,193.6,207,192.5,206.1,191.7"/>
				<path class="st1" d="M191.2,216.1c0.6,0.2,0.4,1.4,1.3,1.9c0.8,0.4,2-0.2,2.2-0.8c0.3-0.6,0.1-1.4-0.3-1.7
					c-0.4-0.3-1.3-0.4-1.3-0.4s-2-1.4-2.6-0.4C190,215.7,190.7,215.9,191.2,216.1"/>
				<path class="st1" d="M190.5,207c-0.4-0.9-1.7-1-2.4-0.7c-0.7,0.3-1.1,1.2-1,1.8c0.1,0.6,0.9,1.3,0.9,1.3s0.3,2.8,1.5,2.3
					c1.2-0.5,0.7-1.9,0.5-2.4C189.6,208.6,191,208.1,190.5,207"/>
				<path class="st1" d="M122.4,193.3c-0.8,0.1-4-0.8-4-0.8s0.3,2.4,2.2,2.9c2,0.5,4,0.7,4.4-0.7c0.4-1.3-0.3-2.8-1.8-3.4
					c-3.7-1.5-4.2,0.4-4.2,0.4s4.7,1.3,4.7,1.7c0,0.4-0.6,0.9-0.6,0.9S123.2,193.2,122.4,193.3"/>
				<path class="st1" d="M135.4,210c-0.6,0.6-3,1-3,1s1.8,1.5,3.7,0.8c1.9-0.7,2.7-1.6,2.2-2.9c-0.4-1.3-1.2-2-2.8-1.6
					c-3.9,0.9-3.5,3.1-3.5,3.1s4.1-1.8,4.4-1.4c0.2,0.3,0.7,1,0.7,1S136,209.5,135.4,210"/>
				<path class="st1" d="M189,200.6c0,0-2.5,0.3-3.2-0.1c-0.7-0.4-1.8,0.3-1.8,0.3s0.3-0.8,0.4-1.1c0.1-0.4,4.6,0.2,4.6,0.2
					s0.4-1.8-3.6-1.6c-1.6,0.1-2.6,1.3-2.6,2.6c-0.1,1.4,0.9,1.7,2.9,1.8C187.8,202.9,189,200.6,189,200.6"/>
				<path class="st1" d="M125.8,194.5l9.4,4c0,0,1.5,0.4,2-0.1c0.5-0.5,0.7-1.2,0.1-1.5c-0.5-0.3-1.1,0.3-1.1,0.3l-10.2-3.8
					L125.8,194.5z"/>
				<path class="st1" d="M138.8,207.1l0.5,0.9c0,0,1.5-0.1,1.2-2.6c-0.3-2.5-9.9-3.7-9.9-3.7v1.3c0,0,8.1,1.9,8.6,2.9
					C139.7,206.9,138.8,207.1,138.8,207.1"/>
				<polygon class="st1" points="143.9,209.2 139.4,208.8 139.4,210 143.5,210.8 				"/>
				<path class="st1" d="M143.9,199.8c0,0-1.8-0.9-2.4-1.2c-0.5-0.3-2.1-2.5-2.1-2.5l-0.8,0.7c0,0,1.9,2.8,2.2,3.2c0.4,0.4,3,1,3,1
					V199.8z"/>
				<path class="st1" d="M157.1,197.8l-6.9-0.1l0.4,1.7l6.2-0.1C156.9,199.3,157.8,199.1,157.1,197.8"/>
				<path class="st1" d="M155.7,209c0.5,0.7,1.9,3,1.9,3l1.2-0.1c0,0-0.4-1.3-1.6-3.3c-0.8-1.4-0.9-1.8-1.7-3.8
					c-0.7-1.7-2.4-4.5-2.4-4.5h-1.7c0,0,2.4,2.6,2.9,4.9C154.7,207.5,155.1,208.4,155.7,209"/>
				<path class="st1" d="M162,211.8c-0.7,0-5.4-11.8-5.4-11.8l-1.9,0.1c0,0,4.6,10.4,5.2,11.2C160.4,212.2,162.7,211.8,162,211.8"/>
				<path class="st1" d="M164.3,212.1c0,0,1.8-0.7,1-0.5c-0.8,0.1-3.7-7.8-3.7-7.8l-1.6-0.4c0,0,2.1,6.1,2.5,6.7
					C162.9,210.8,164.3,212.1,164.3,212.1"/>
				<path class="st1" d="M168.1,212.6c-0.4-0.5-3.2-0.1-3.2-0.1s-3.2,0.1-6.6,0.1c-3.4,0-8.2-0.1-8.2-0.1s-1.5-0.1-1.5,0.8
					c0,1.5,5.7,1.2,5.7,1.2s7.1,0.4,10.7,0C168.6,214.1,168.5,213.1,168.1,212.6"/>
				<path class="st1" d="M130.2,201c0.9-0.4,1.6-1.2,1.3-1.8c-0.3-0.7-3.6-3.6-5.8-3.7l-0.4,0.9c0,0,4.6,2.4,4.5,3
					C129.7,200.1,129.3,201.4,130.2,201"/>
				<polygon class="st1" points="173.1,202.4 181.5,201 181.9,200.1 173.9,200.9 				"/>
				<path class="st1" d="M173.2,208.4l0.5,1.7c0,0,3.7-2.1,4.4-1.9c0.7,0.3,0.1-0.9,0.1-0.9L173.2,208.4z"/>
				<path class="st1" d="M176,204.3c-0.5,1.1,1.6,2.4,2.4,2c0.8-0.4-0.5-0.9-0.4-1.7c0.1-0.8,4.6-2.1,4.6-2.1l-0.9-0.8
					C181.7,201.7,176.5,203.2,176,204.3"/>
				<path class="st1" d="M171.4,211.7c2.2-1.3-0.1-4.5-0.1-4.5s0.8-1.5,0.7-2.8c-0.1-1.3-0.7-2.2-0.7-2.2s2.1-2.1,0-3.7
					c0,0-1-1.2-2.4-0.9c-1.3,0.3-2,2.7-2,2.7l1.3,0.3c0,0,0.7-1.8,1.7-0.8c1.1,1.1-0.8,1.8-0.8,1.8s0.8,1.3,0.9,2.8
					c0.1,1.5-0.7,3.7-0.7,3.7s1.2,0.8,0.4,1.6c-0.8,0.8-1.6-0.7-1.6-0.7l-1,0.5C167.2,209.4,167.7,213.9,171.4,211.7"/>
				<path class="st1" d="M146,212c3.2,1.7,4.2-2.3,4.2-2.3l-0.9-1.1c0,0-1.3,2.5-2.1,1.7c-0.8-0.8,0.5-2.5,0.5-2.5s-1.2-2.4-1.1-3.8
					c0.1-1.5,0.7-2.9,0.7-2.9s-1.5-1.2-0.4-2.3c1.1-1.1,1.9,0.9,1.9,0.9l1.2-0.5c0,0-0.1-2.1-1.5-2.4c-1.3-0.3-2.9,0.3-2.9,0.3
					c-2.1,1.6-0.4,4.2-0.4,4.2s-0.1,1.8-0.3,3.2c-0.1,1.3,0.9,3.4,0.9,3.4S143.7,210.7,146,212"/>
				<path class="st1" d="M214.5,159.7c0,0-0.7,2.9-0.8,5.4c-0.1,2.5,2.8,6.3,2.8,6.3s1.5-0.4,0.8-0.7c-0.7-0.3-0.7-7.9-0.7-7.9
					s0.1-1.6-0.5-1.2c-0.7,0.4-0.3,6.3-0.3,6.3s-0.9-1.6-1.1-2.2c-0.1-0.7,0.5-4.5,0.5-4.5L214.5,159.7z"/>
				<path class="st1" d="M217.1,173.3c-0.5,0.7,0,4,0,4l1.4-0.8c0,0-0.2-1.6,0-2.9c0.3-1.3,2-3.3,3.2-6.2c1.2-2.9,0.1-7.9,0.1-7.9
					l-0.5-0.5c0,0,0,1.7-0.2,3.3c-0.1,1.6-0.9,1.5-1.2,3c-0.3,1.6,0.4,4.1-0.4,4.1c-0.8,0-0.9-3.9-0.5-4.7c0.7-1.5,1.5-4.1,1.5-4.1
					s-0.1-2.1-0.5-1.7c-0.4,0.4-1.7,5.3-2.1,6.3c-0.4,1.1,0,4.4-0.1,5.9C217.6,172.6,217.6,172.6,217.1,173.3"/>
				<path class="st1" d="M181.3,205.8c0.6,0,1.1,0.5,1.1,1.2c0,0.6-0.5,1.2-1.1,1.2c-0.6,0-1.2-0.5-1.2-1.2
					C180.1,206.3,180.6,205.8,181.3,205.8 M179,206.9c0,1.3,1,2.3,2.3,2.3c1.3,0,2.3-1,2.3-2.3c0-1.3-1-2.3-2.3-2.3
					C180,204.6,179,205.7,179,206.9"/>
				<path class="st1" d="M136.2,193.5c0-0.6,0.5-1.1,1.2-1.1c0.6,0,1.1,0.5,1.1,1.1c0,0.6-0.5,1.2-1.1,1.2
					C136.7,194.6,136.2,194.1,136.2,193.5 M139.7,193.5c0-1.3-1-2.3-2.3-2.3c-1.3,0-2.3,1-2.3,2.3c0,1.3,1,2.3,2.3,2.3
					C138.7,195.8,139.7,194.7,139.7,193.5"/>
				<path class="st1" d="M127.3,204c-0.6,0-1.1-0.5-1.1-1.2c0-0.6,0.5-1.1,1.1-1.1c0.6,0,1.2,0.5,1.2,1.1
					C128.5,203.5,128,204,127.3,204 M127.3,200.5c-1.3,0-2.3,1-2.3,2.3c0,1.3,1,2.3,2.3,2.3c1.3,0,2.3-1,2.3-2.3
					C129.7,201.6,128.6,200.5,127.3,200.5"/>
				<path class="st1" d="M224.1,161l-0.8,0.6c0,0-0.8,7.5-1.4,8.2c-0.6,0.7-1.9,2.7-1.9,2.7v1.6c0,0,4-3.3,4.4-4.1
					c0.4-0.8,1.5-2.9,1.4-4.5c-0.1-1.6-0.3-4.6-0.3-4.6l-0.7,0.3c0,0,0.2,7.5-1.4,8.3c-0.1,0.1,0.6-3.1,0.8-5
					C224.4,162.2,224.1,161,224.1,161"/>
				<path class="st1" d="M214.3,180.8c0,0-4,8-4.6,11.9c-0.6,3.9-1.8,4-1.8,4l-0.3,1.6c0,0,1.7-0.4,2.2-2.1c0.5-1.7,1.3-2.4,1.9-2.8
					c0.5-0.4,2.9-2.9,3.6-4c2.2-3.5,2.9-11.4,2.9-11.4l-1.3,1.2c0,0-1.6,6.7-2.4,8.1c-0.8,1.4-2.3,4.9-3.1,4.7
					c-0.8-0.3,4.6-12.7,4.6-12.7L214.3,180.8z"/>
				<path class="st1" d="M209.9,180.5c0,0-2.5,5-2.7,7.5c-0.3,2.5,1.8,4.8,1.8,4.8s1-4.2,1.6-5.9c0.6-1.7,3.2-6.6,3.2-6.6l-0.7-1.2
					c0,0-4,9.3-4.4,9.1c-0.4-0.3,3-8.8,3-8.8L209.9,180.5z"/>
				<path class="st1" d="M221.9,182.2l-1.4,1.6c0,0-2.2,5.6-2.5,6.3c-0.4,0.8-1.6,1.7-1.9,1.5c-0.3-0.2,4.5-9.2,4.5-9.2l-2.3,1.2
					c0,0-0.7,2.3-1.2,3.9c-0.5,1.6-2,4-2.8,4.8c-0.8,0.8-2.3,2-1.7,2.3c0.6,0.3,4.3-1.7,5.2-2.4
					C218.6,191.6,221.9,182.2,221.9,182.2"/>
				<path class="st1" d="M199.8,199c0.8-0.5,0.8-2.7,0.8-2.7s-7.8,7.7-7.9,8.9c-0.2,1.1-1.1,3.9-0.6,4c0.4,0.2,1.4-0.9,2.1-1.3
					c0.7-0.4,1.5-2.5,2.1-3.4c0.6-0.9,3.5-3.1,3.8-3.4c0.3-0.3,0.3-1.7,0.3-1.7S199.1,199.5,199.8,199"/>
				<path class="st1" d="M193.2,211.6c1-0.4,1.9-0.8,3.1-0.9c1.2-0.1,8.7-6.9,9.6-7.9c0.9-1.1,1-4,1-4l-0.5,0.5l-1.6,2.4
					c0,0-9,8.1-9.2,7.4c-0.2-0.7,9.3-8.6,9.3-8.6l1.3-2.7c0,0-6.6,4.9-7.5,5.8c-0.9,0.9-4.3,5.4-5.2,6c-0.9,0.6-4.7,3.3-4.7,4.1
					c0,0.9,1.5,0.3,1.5,0.3S192.2,212.1,193.2,211.6"/>
				<path class="st1" d="M209.1,202.9c0,0-6.6,8.7-8.7,8c-0.3-0.1,2.2-1.7,4.1-3.6c1.9-1.9,3.4-4.2,3.4-4.2l-1.1-0.2
					c0,0-4.1,5-7,6.8c-1.4,0.9-5,2.8-5,2.8l7.2-0.5C211.1,205,209.1,202.9,209.1,202.9"/>
				<path class="st1" d="M159.1,216.2c0,0,0.1,5.3,0.5,5.8c0.4,0.5,1.7-0.7,1.7-0.7s0.5-4.2-0.3-4.9
					C160.3,215.8,159.1,216.2,159.1,216.2"/>
				<path class="st1" d="M155.2,221.3c0,0,1.3,1.2,1.7,0.7c0.4-0.5,0.5-5.8,0.5-5.8s-1.2-0.4-2,0.3
					C154.7,217,155.2,221.3,155.2,221.3"/>
				<path class="st1" d="M174.5,222.5c0.9-0.4,12.7-2.5,14.5-7.5c0,0-5.6,1.4-7.7,3.2c-1.8,1.4-8.3,3.7-8.7,1.8
					c-0.1-0.7,2.8,0.1,4.9-1.3c2.1-1.4,10.2-4.2,10.2-4.2s-0.1-2.1-9.4,1.4c-2.5,1-5.9,3.3-7.4,3c-4.4-0.8-8.9-2.1-8.9-2.1l0.1,1.7
					c0,0,4.9,0.8,6.7,2.1C170.8,222,173.6,222.9,174.5,222.5"/>
				<path class="st1" d="M178.4,215.1c1.2-0.5,6.3-1.7,6.3-1.7l-0.3-1.2l-9.4,2.9l8.7-4l-2.4-0.3l-7.3,3.2c0,0-1.1,1.7-1.7,2.1
					c-0.7,0.4-2.9,1.6-2.9,1.6l2.2,0.5C171.8,218.3,177.2,215.6,178.4,215.1"/>
				<path class="st1" d="M178.5,225c2-0.1,11.3-4.9,11.3-4.9h-1.7v-1.1l-2.2,0.3c0,0-3.6,1.8-7.9,3.7c-4.4,1.9-5.9-1.1-5.4,0.3
					C173.1,224.6,176.5,225.2,178.5,225"/>
				<path class="st1" d="M169,224.2c0.5-0.5-0.4-1.6-0.4-1.6s-3.8-3.4-6.2-3l-0.1,1.3l5.3,3.2C167.5,224.1,168.5,224.8,169,224.2"/>
				<path class="st1" d="M168.3,227.7c0.4-0.5-0.7-1.6-0.7-1.6l-6.1-3.2l-0.5,1.4l5.7,3.3C166.8,227.7,167.9,228.2,168.3,227.7"/>
				<path class="st1" d="M163.2,229.8l0.9-1.8l-4.1-1.8c0,0-1.3,0.4-1.3,1.2C158.7,228.1,163.2,229.8,163.2,229.8"/>
				<path class="st1" d="M154.3,229.6c0,0,1.6-2,2.2-2.4c0.7-0.4,2.1-1.5,2.5-2c0.4-0.5,1.9-2.6,1.9-2.6l-2.4,0.1c0,0-1.5,1.9-2,2.1
					c-0.5,0.3-3.8,2.8-3.6,3.7C153.3,229.5,154.3,229.6,154.3,229.6"/>
				<path class="st1" d="M152.6,225.6c0.4-0.4,3.9-2.9,3.9-2.9l-1.9-0.8c0,0-3.4,2.3-4,2.8c-0.5,0.5-2.4,3.3-2.4,3.3l1.4,0.8
					C149.9,228.7,152.2,226,152.6,225.6"/>
				<path class="st1" d="M148.4,222l1.7,0.8l4.3-2.4l-0.1-1.2C154.3,219.2,150.4,219.7,148.4,222"/>
				<path class="st1" d="M148.1,224.1c0.7,0.3,1.4,0.2,1.5-0.1c0.1-0.3-0.3-0.8-1-1.1c-0.7-0.3-1.4-0.2-1.5,0.1
					C147,223.3,147.4,223.8,148.1,224.1"/>
				<path class="st1" d="M140.9,220.1l-3,2.5l1-2.3l-2.6-0.7l-2.8,1.4l0.4-1.8c0,0-2.6-0.5-4.2-0.7c-1.6-0.2,1.4-0.7,1.4-0.7
					l-0.4-1.2c0,0,4.1,2.3,5.1,1.9c1.1-0.3-0.5-2.1-0.5-2.1s3.5,3,4.9,2.6c1.4-0.4,0.4-2.3,0.4-2.3s1.4,2.5,2.8,2.6
					c1.4,0.2,2.6-0.3,2.6-0.3l0.2,0.5c0,0-2.6,2.3-2.6,2.8c0,0.5-0.5-1.9-0.5-1.9L140.9,220.1z M140.9,225.2
					c1.4,0.5,4.9-4.4,7.9-5.4c2.8-1,5.5-1.4,5.5-1.4v-1.6c0,0-5.1,1.2-6.3,1.2c-1.2,0-3.5-1.8-3.5-1.8s-0.3,0.7-1.2,0.9
					c-0.9,0.2-2.8-3.5-2.8-3.5l-2.7,0.2c0,0,1.6,3.3,0.5,2.5c-3.6-3-5.4-2.1-5.4-2.1l0.5,2.1c0,0-3.7-1.6-4.2-1.2
					c-0.5,0.3-1.1,1.9-1.1,1.9s-3.3,1.6-3.3,2.5c0,0.9,2.8,1.2,2.8,1.2l4.2-0.7L130,222l1.8,1.2l4.6-1.9c0,0-1,1.8-1.6,2.6
					c-0.5,0.8,3,0.7,3,0.7s2.5-2.8,3.5-2.3C142.3,222.9,139.5,224.7,140.9,225.2"/>
				<path class="st1" d="M120.9,211.7c-0.4,0.4-0.7-0.3-0.7-0.3s0.5-0.9-0.7-1.2c-1.1-0.3-3.6,0-3.6,0l1.9-1.2l-1.1-2l-2.7-0.9
					c0,0,1.2,0,1.2-0.7c0.1-0.9-1.2-3-2.4-3.4c-0.5-0.2,0.3-1.5,0.3-1.5l1.4,2.1l0.8,0.3c0.2,0.5,0.6,1.7,0.6,1.7s0.8,2.2,2.2,2.8
					c0.5,0.2,1.1-2.1,1.1-2.1s0.2,2.7,1.1,4.3c0.7,1.2,2.4,1.2,2.4,1.2l0.2,0.8C122.8,211.6,121.2,211.3,120.9,211.7 M124.4,213.6
					c2.7,1.2,2.9,1.9,2.9,1.9l1-0.9c0,0-1.5-1.4-2.4-2.2c-0.9-0.9-2.8-5.6-2.8-5.6s-0.3,0.3-1.1-0.2c-0.8-0.5-1.2-4-1.2-4
					s-1.8-2.4-2.4-1.7c-0.5,0.7-1,2.8-1.1,1.4c-0.5-4.6-0.9-4-0.9-4l-1.5-1c0,0-0.1,2.2-0.7,2.1c-0.6-0.1-0.7-1-0.7-1
					s-1.9-0.6-1.8-1.5c-0.2,1.8-0.6,3.4-0.6,3.4l-1.5,0.3l-0.8,0.6l2.6,2.8c0,0-2.6-0.4-2.8,0.5c-0.3,2.1,6.4,4.2,5.4,4.2
					c-7.1,0.2-0.1,3.6-0.1,3.6s4.2-1.1,4.2,0.1c-0.2,2.7,2.3-0.1,3,1.3C121.7,214.9,121.6,212.3,124.4,213.6"/>
				<path class="st1" d="M128,207.8c0-0.6-0.5-1.1-1.2-1.1c-0.7,0-1.2,0.5-1.2,1.1c0,0.6,0.5,1.1,1.2,1.1
					C127.5,208.9,128,208.4,128,207.8"/>
				<path class="st1" d="M120.1,214.9c-0.7,0-1.2,0.5-1.2,1.1c0,0.6,0.6,1.1,1.2,1.1c0.7,0,1.2-0.5,1.2-1.1
					C121.3,215.4,120.7,214.9,120.1,214.9"/>
				<path class="st1" d="M129,209.6c-0.2-0.6-1.4-0.5-1.8-0.3c0,0-2.1,0.1-1.9,1.6c0.1,0.6,1.3,0.6,1.5,0.6c0.5,0,0.5,1.7,0.5,1.7
					l1.5,0.3c0,0-1.3-2-0.7-2.3C128.7,210.8,129.3,210.4,129,209.6"/>
				<path class="st1" d="M123,217.8c0.8-0.1,1-0.9,1-1.5c0-0.6,2.4-0.4,2.4-0.4l-1-1.2c0,0-1.5,0.7-1.8,0.3
					c-0.1-0.2-0.7-1.3-1.2-1.1c-1.4,0.5-0.5,2.4-0.5,2.4C121.9,216.8,122.4,217.9,123,217.8"/>
				<path class="st1" d="M93.5,170c0.3-1.7-1.7-3.8-1.7-3.8s0.7,0.5,1.4,0.6c0.7,0.1,0.5-0.5,0.5-0.5l0.4-1.9l0.5-1.9
					c0.3,0.1,1.2,0.1,1.2,0.1c-0.3,0.6-1.6,3.4-1.1,3.6c0.5,0.2,1.5-0.5,1.5-0.5l0.1,0.5c-1.1,0.4-2,1.4-2,1.4s-0.6,0.9,0.1,2.2
					c0.2,0.5,1.8,0.3,1.8,0.3s-0.8,0.1-1.2,1.8c-0.3,1.4,0.8,1.7,0.8,1.7l-0.3,0.3c0,0-0.8-0.5-1.2-0.8c-0.6-0.5,0.4-0.2-0.2-1.4
					c-0.6-1.2-1.9-0.6-2.6-1.6C91.6,170.2,93.3,171.2,93.5,170 M90.5,167.8c-2.2-0.3-1,2.7-1,2.7s2.4,1.2,3,2
					c0.3,0.4,0.3,0.6,0.3,1.1c0,1.5,1.6-0.4,2.9,2.5c1.2,2.7,0.9,3.2,0.9,3.2L98,180c0,0-1-3.6-1.1-4.8c-0.1-1.2,2.2-5,2.4-6.7
					c0.2-1.7-2.4,0.5-2.7-0.3c-0.3-0.9,3-2.6,3-2.6s0.7-2.7-0.1-2.5c-0.8,0.2-2,1.4-2.1,0.7c-0.2-0.9,1.2-2.3,1.2-2.3l-0.1-2.3
					c0,0-1-0.3-2.3,1.1c-0.4,0.5-0.5-0.1-0.5-0.1s0-0.1-0.7-0.5c-0.7-0.3-1.1,1-1.1,1l-0.5,0.9l-0.3,2l-1.9-0.8c0,0-0.2,0.8-0.9,1.3
					C88.8,165.3,93.7,168.2,90.5,167.8"/>
				<path class="st1" d="M100.6,172.5c-0.4,0.5-0.3,1.2,0.2,1.6c0.5,0.4,1.2,0.4,1.6,0c0.4-0.5,0.3-1.2-0.2-1.7
					C101.8,172,101,172,100.6,172.5"/>
				<path class="st1" d="M91.8,174.2c-0.5-0.4-1.3-0.4-1.7,0.1c-0.4,0.5-0.3,1.2,0.2,1.6c0.5,0.4,1.2,0.4,1.7,0
					C92.3,175.4,92.3,174.7,91.8,174.2"/>
				<path class="st1" d="M98.4,174.6c-0.3,0.5,0.5,1.3,0.8,1.4c0.3,0.3-0.7,1.6-0.7,1.6l0.9,1.3c0,0,0.4-2.3,1-2.2
					c0.6,0.1,1.4,0.2,1.7-0.6c0.2-0.6-0.7-1.3-1.1-1.4C100.9,174.6,99.2,173.4,98.4,174.6"/>
				<path class="st1" d="M93.7,177.9c0.4-0.4,2.1,1.2,2.1,1.2l0-1.6c0,0-1.6-0.5-1.5-0.9c0.1-0.2,0.3-1.4-0.2-1.6
					c-1.4-0.5-2,1.5-2,1.5c-0.2,0.3-0.6,1.5-0.1,1.8C92.7,178.8,93.3,178.3,93.7,177.9"/>
				<path class="st1" d="M105.3,190.7c0,0.3-0.5,1.6-0.5,1.6l0.3,1.3c0,0-1.4-0.3-1.6-0.5c-0.2-0.2,1.9-1.9-2.5-3
					c-1.3-0.3-0.3-0.5-1.3-0.9c0.4,0.2,3,1.4,1.7-1c-0.8-1.5-3.4-2.5-3.4-2.5s0.3,0,0.9-0.3c0.6-0.3-1.2-1.9-1.2-1.9l0.5-0.4
					c0,0,0.6,1,1.2,1c0.6,0,0.8-0.9,0.8-0.9c0.1,0.6-0.3,2.6,0.5,3c0.5,0.3,1.5,1.8,1.5,1.8l1.8-2.9c0.2-0.1-0.9,3.2-0.9,3.2v1
					l0.9,1.7L105.3,190.7z M103.8,181.3c-0.6,0.6-1.4,4-1.8,3.5c-0.7-0.6-0.3-2-0.3-2l0.1-1.7c0,0-1.2-1.8-1.6-0.5
					c-0.2,0.6-1.5,0.7-1.5,0.7s-0.7-1.2-1.1-0.6c-0.5,0.7-2,0.3-2.4,0.9c-0.5,0.7,1,1.9,1,1.9l-2.2,0.1l-0.6,0.6c0,0,1,2,2,2.1
					c2.1,0.1,1.2,0.7,1.2,0.7l-1.4,0.6c0,0-0.4,1.2,1.1,2.2c2.3,1.7,1.5-0.1,2.5,1.1c0.3,0.4,2.1,0.4,2.1,0.7c0.2,0.9-4-0.5-0.6,2.2
					c0.4,0.3,1.2,0,1.5,0.4c0.9,1.2,1.8-0.9,5.7,3.6c1.9,2.2,3.3,2.2,3.3,2.2l0.1-1.2c0,0-2.9-2.4-3.7-3.3c-0.8-1,1.4-6.5,0.5-7.9
					c-0.5-0.7-1.4,1.2-2.1,0.6c-0.7-0.6,0.5-5.1,0.5-5.1S104.4,180.7,103.8,181.3"/>
				<path class="st1" d="M109.5,190.5c-0.3,0.5,0,1.2,0.6,1.5c0.6,0.3,1.3,0.1,1.6-0.5c0.3-0.5,0-1.2-0.6-1.5
					C110.5,189.7,109.8,189.9,109.5,190.5"/>
				<path class="st1" d="M100.9,198.6c-0.1,0.6,0.3,1.2,1,1.4c0.7,0.1,1.3-0.2,1.4-0.8c0.1-0.6-0.3-1.2-1-1.3
					C101.6,197.6,101,198,100.9,198.6"/>
				<path class="st1" d="M110.2,194.6c0.6-0.1,1.4-0.2,1.5-1c0-0.6-1-1-1.4-1.1c0,0-1.9-0.8-2.4,0.6c-0.2,0.6,0.8,1.1,1.1,1.2
					c0.4,0.2-0.3,1.8-0.3,1.8l1.2,1C109.8,197,109.6,194.7,110.2,194.6"/>
				<path class="st1" d="M105.7,198.6c-0.1-0.3-0.4-1.4-1-1.3c-1.5,0.2-1,2.3-1,2.3c0,0.4,0.2,1.6,0.8,1.6c0.9,0.1,1.1-0.7,1.3-1.3
					c0.2-0.6,2.4,0.1,2.4,0.1l-0.7-1.4C107.5,198.6,105.8,199,105.7,198.6"/>
			</g>
		</g>
	</g>
</g>
</svg>
