<?xml version="1.0" encoding="utf-8"?>
<!-- Generator: Adobe Illustrator 25.4.1, SVG Export Plug-In . SVG Version: 6.00 Build 0)  -->
<svg version="1.1" id="Capa_1" xmlns="http://www.w3.org/2000/svg" xmlns:xlink="http://www.w3.org/1999/xlink" x="0px" y="0px"
	 viewBox="0 0 90 45" style="enable-background:new 0 0 90 45;" xml:space="preserve">
<style type="text/css">
	.st0{fill:#EA8215;}
	.st1{fill:#FFFFFF;}
</style>
<g>
	<path class="st0" d="M71.5,44.3H18.5c-0.8,0-1.4-0.6-1.4-1.4V2.2c0-0.8,0.6-1.4,1.4-1.4h52.9c0.8,0,1.4,0.6,1.4,1.4v40.7
		C72.9,43.6,72.2,44.3,71.5,44.3z"/>
	<g>
		<g>
			<g>
				<path class="st1" d="M42.3,21.4c0.5-0.3,1.1-0.6,1.7-0.8c0.3-0.1,0.6-0.3,0.9-0.4c0.3-0.1,0.6-0.3,0.9-0.4
					c0.3-0.2,0.6-0.3,0.9-0.6c0.1-0.1,0.3-0.2,0.4-0.3c0.1-0.1,0.1-0.1,0.2-0.2l0.2-0.2c0.5-0.5,0.8-1.1,0.9-1.8
					c0-0.2,0.1-0.3,0.1-0.5c0-0.2,0-0.3,0-0.5c0-0.1,0-0.3,0-0.4c0-0.1,0-0.3,0-0.4c0-0.2,0-0.4-0.1-0.6c0,0,0-0.2-0.2-0.2
					c-0.1,0-0.5,0.3-0.7,0.5c0,0.1,0,0.2,0,0.3c0,0.1,0,0.3,0,0.4c0,0.1,0,0.3,0,0.4c0,0.1,0,0.2,0,0.4c0,0.1,0,0.3-0.1,0.4
					l-0.1,0.2l0,0.1l0,0.1L47.1,17c0,0.1-0.1,0.1-0.1,0.2c-0.1,0.1-0.1,0.2-0.2,0.3c0,0.1-0.1,0.1-0.1,0.2c0,0.1-0.1,0.1-0.1,0.2
					c0,0,0,0,0,0c-0.1-0.3-0.4-1.3-0.4-2c0.1-1.2,1.8-2.1,2-2c0.2,0,0.3,0.4,0.3,0.4s0.7-1.3,0.2-1.6c-0.2-0.1-0.5-0.1-0.8-0.1
					c-0.1-0.2-0.2-0.5-0.3-0.7c-0.2-0.4-0.4-0.9-0.8-1.2c-0.1-0.1-0.2-0.2-0.3-0.2c0,0-0.1,0-0.1,0c-0.1,0-0.1,0-0.2,0l0,0l0,0h0
					c-0.1,0,0,0,0,0c0,0-0.1,0-0.1,0c-0.3,0-0.5,0.2-0.6,0.3c-0.3,0.2-0.6,0.5-0.8,0.7c0,0,0,0-0.1,0.1c-0.1,0.1-0.2,0.1-0.2,0.2
					c0,0-0.1,0.1-0.1,0.1c-0.3,0.2-0.6,0-0.7-0.2c-0.4-0.5-1.1-1.3-1.3-1.4c-0.3-0.1-0.7,0.4-0.5,0.8c0,0,0,0,0.1,0.1
					c0,0,0-0.3,0.2-0.3c0.2,0,0.2,0.5,0.3,0.6c0,0-0.3,0.2-0.5,0c0,0-0.1-0.1-0.1-0.1c-0.1-0.1-0.1,0.2,0,0.3
					c0.1,0.1,0.2,0.2,0.5,0.3c0.1,0,0.6,0.2,1.1,0.4c0.8,0.5,1.2,0.1,1.2,0.1c0,0,0.1,0,0.1,0c0.2-0.1,0.4-0.3,0.6-0.5
					c0.2-0.2,0.5-0.4,0.7-0.6c0.1-0.1,0.3-0.1,0.4-0.1c0,0,0,0,0,0l0,0l0,0c0,0,0,0,0,0c0,0,0,0,0,0c0,0,0.1,0.1,0.1,0.1
					c0.2,0.2,0.4,0.6,0.6,1c0.1,0.2,0.1,0.4,0.2,0.6c-0.1,0-0.2,0.1-0.2,0.1c-0.1-0.2-0.3-0.4-0.6-0.4c-0.3,0.1-0.7,0.4-1.4,0.8
					c-0.7,0.4-1.3,0.4-1.3,0.4c0.2,0.4,0.5,0.5,0.5,0.5c-0.6,0.5-1,1.4-1,1.4l0,0c-0.3,0.6-0.6,1.4-0.8,2.4c-0.3,0-0.6-0.1-0.6-0.1
					c-1-0.3-1.4-0.5-1.4-0.5s-2.1-0.9-0.8-2.9c0,0,1.1-1.2-1-2.3c0,0-1.6-0.8-3.7-0.9c-2-0.1-7.6-0.2-10.7-0.7c0,0,4,3.7,5.3,4.9
					c0,0,0.7,0.6,1.5,0.6c0,0,1.4,0,3.3-0.4c0,0-1,0.9-2.2,1c0,0,1.2,2.4,2.8,3.3c0,0,0.6,0.3,1.1,0.2c0,0,1.2-0.2,2.2-0.7
					c0,0-0.5,0.8-2.1,1.2c0,0,1.6,1.3,4,1.9c0,0-0.1,0.8,0.7,1.4c0-0.4,0.1-0.8,0.3-1.1C41.3,22.1,41.7,21.7,42.3,21.4z"/>
				<path class="st1" d="M55.2,11.1c-2,0.1-3.7,0.9-3.7,0.9c-2.2,1-1,2.3-1,2.3c1.4,2-0.8,2.9-0.8,2.9s-0.6,0.2-1.4,0.5
					c-0.2,0.5-0.5,0.9-0.7,1.1c0,0-0.2,0.3-0.5,0.5c-0.1,0-0.1,0.1-0.2,0.1l-0.1,0.1c-0.3,0.2-0.6,0.4-0.9,0.6
					c-0.3,0.2-0.6,0.3-0.9,0.5l-0.9,0.4c-0.5,0.2-1.1,0.5-1.6,0.8c0,0,0,0,0,0c-0.3,0.2-0.5,0.3-0.6,0.5c2.5,0,3.1,1.5,3.1,1.5
					s0.9-2.1,4.6-1.4c1.2-0.2,3-0.8,4.3-1.9c-1.6-0.4-2.1-1.2-2.1-1.2c1,0.5,2.2,0.7,2.2,0.7c0.6,0.1,1.1-0.2,1.1-0.2
					c1.7-0.9,2.8-3.3,2.8-3.3c-1.2-0.2-2.2-1-2.2-1c1.9,0.4,3.2,0.4,3.2,0.4c0.8,0.1,1.5-0.6,1.5-0.6c1.3-1.2,5.3-4.9,5.3-4.9
					C62.8,10.9,57.3,11,55.2,11.1z"/>
			</g>
		</g>
		<g>
			<path class="st1" d="M29.5,34.2c-0.1,0.2-0.3,0.4-0.4,0.5c-0.2,0.2-0.3,0.3-0.5,0.4c-0.2,0.1-0.4,0.2-0.6,0.3
				c-0.2,0.1-0.5,0.1-0.7,0.1c-0.3,0-0.7-0.1-1-0.2c-0.3-0.1-0.6-0.3-0.8-0.5c-0.2-0.2-0.4-0.5-0.5-0.8c-0.1-0.3-0.2-0.6-0.2-0.9
				c0-0.3,0.1-0.6,0.2-0.9c0.1-0.3,0.3-0.5,0.5-0.8c0.2-0.2,0.5-0.4,0.8-0.5c0.3-0.1,0.6-0.2,1-0.2c0.3,0,0.5,0,0.8,0.1
				c0.2,0.1,0.4,0.2,0.6,0.3c0.2,0.1,0.3,0.3,0.5,0.4c0.1,0.2,0.3,0.3,0.4,0.5c0,0,0,0.1,0,0.1c0,0,0,0.1-0.1,0.1l-0.9,0.4
				c0,0-0.1,0-0.1,0c0,0-0.1,0-0.1-0.1c-0.1-0.2-0.3-0.3-0.4-0.4c-0.2-0.1-0.4-0.2-0.6-0.2c-0.2,0-0.3,0-0.5,0.1
				c-0.1,0.1-0.3,0.2-0.4,0.3c-0.1,0.1-0.2,0.2-0.2,0.4c-0.1,0.1-0.1,0.3-0.1,0.5c0,0.2,0,0.3,0.1,0.5c0.1,0.1,0.1,0.3,0.2,0.4
				c0.1,0.1,0.2,0.2,0.4,0.3c0.1,0.1,0.3,0.1,0.5,0.1c0.2,0,0.4-0.1,0.6-0.2c0.2-0.1,0.3-0.3,0.4-0.4c0,0,0.1-0.1,0.1-0.1
				c0,0,0.1,0,0.1,0l0.9,0.4c0,0,0.1,0,0.1,0.1C29.5,34.1,29.5,34.2,29.5,34.2z"/>
			<path class="st1" d="M31.2,35.4h-0.9c0,0-0.1,0-0.1,0c0,0,0-0.1,0-0.1V31c0,0,0-0.1,0-0.1c0,0,0.1,0,0.1,0h0.9c0,0,0.1,0,0.1,0
				c0,0,0,0.1,0,0.1v4.3c0,0,0,0.1,0,0.1C31.3,35.4,31.3,35.4,31.2,35.4z"/>
			<path class="st1" d="M32,31c0,0,0-0.1,0-0.1c0,0,0.1,0,0.1,0h1c0,0,0.1,0,0.1,0c0,0,0,0.1,0,0.1v2.6c0,0.2,0,0.3,0.1,0.4
				c0.1,0.1,0.1,0.2,0.2,0.3c0.1,0.1,0.2,0.1,0.3,0.1c0.1,0,0.2,0,0.2,0c0.1,0,0.2,0,0.2,0c0.1,0,0.2-0.1,0.2-0.1
				c0.1-0.1,0.1-0.1,0.2-0.3c0.1-0.1,0.1-0.2,0.1-0.4V31c0,0,0-0.1,0-0.1c0,0,0.1,0,0.1,0h1c0,0,0.1,0,0.1,0c0,0,0,0.1,0,0.1v2.6
				c0,0.3,0,0.6-0.1,0.8c-0.1,0.2-0.2,0.5-0.4,0.6c-0.2,0.2-0.4,0.3-0.6,0.4c-0.2,0.1-0.5,0.1-0.8,0.1c-0.3,0-0.6,0-0.8-0.1
				c-0.2-0.1-0.5-0.2-0.6-0.4c-0.2-0.2-0.3-0.4-0.4-0.6c-0.1-0.2-0.1-0.5-0.1-0.8V31z"/>
			<path class="st1" d="M36.7,35.3v-4.3c0,0,0-0.1,0-0.1c0,0,0.1,0,0.1,0h1.7c0.7,0,1.2,0.2,1.6,0.6c0.2,0.2,0.4,0.5,0.5,0.8
				c0.1,0.3,0.2,0.6,0.2,1c0,0.4-0.1,0.7-0.2,1c-0.1,0.3-0.3,0.5-0.5,0.8c-0.2,0.2-0.5,0.3-0.7,0.4c-0.3,0.1-0.6,0.1-0.9,0.1h-1.7
				c0,0-0.1,0-0.1,0C36.7,35.4,36.7,35.3,36.7,35.3z M38.1,34.3h0.5c0.1,0,0.2,0,0.4,0c0.1,0,0.2-0.1,0.3-0.2
				c0.1-0.1,0.2-0.2,0.3-0.3c0.1-0.1,0.1-0.3,0.1-0.6c0-0.2,0-0.4-0.1-0.6c-0.1-0.1-0.1-0.3-0.3-0.3c-0.1-0.1-0.2-0.1-0.3-0.2
				c-0.1,0-0.2,0-0.4,0h-0.5c0,0-0.1,0-0.1,0c0,0,0,0.1,0,0.1v2c0,0,0,0.1,0,0.1C38,34.3,38.1,34.3,38.1,34.3z"/>
			<path class="st1" d="M42.5,30.9C42.5,30.9,42.6,30.9,42.5,30.9c0.1-0.1,0.2-0.1,0.2-0.1h0.9c0,0,0.1,0,0.1,0c0,0,0.1,0.1,0.1,0.1
				l1.9,4.3c0,0,0,0.1,0,0.1c0,0-0.1,0.1-0.1,0.1h-1.1c0,0-0.1,0-0.1,0c0,0-0.1-0.1-0.1-0.1l-0.2-0.4c0,0-0.1-0.1-0.1-0.1
				c0,0-0.1,0-0.1,0h-1.3c0,0-0.1,0-0.1,0c0,0-0.1,0.1-0.1,0.1l-0.2,0.4c0,0,0,0.1-0.1,0.1c0,0-0.1,0-0.1,0h-1.1c0,0,0,0-0.1,0
				c0,0,0,0-0.1,0c0,0,0,0,0-0.1c0,0,0-0.1,0-0.1L42.5,30.9z M42.9,33.7h0.6c0,0,0.1,0,0.1,0c0,0,0-0.1,0-0.1c0-0.1-0.1-0.2-0.2-0.4
				c-0.1-0.1-0.1-0.3-0.2-0.4c0,0,0-0.1-0.1-0.1c0,0,0,0-0.1,0.1l-0.3,0.8C42.8,33.6,42.8,33.6,42.9,33.7
				C42.8,33.7,42.8,33.7,42.9,33.7z"/>
			<path class="st1" d="M46.1,35.3v-4.3c0,0,0-0.1,0-0.1c0,0,0.1,0,0.1,0H48c0.7,0,1.2,0.2,1.6,0.6c0.2,0.2,0.4,0.5,0.5,0.8
				c0.1,0.3,0.2,0.6,0.2,1c0,0.4-0.1,0.7-0.2,1c-0.1,0.3-0.3,0.5-0.5,0.8c-0.2,0.2-0.5,0.3-0.7,0.4c-0.3,0.1-0.6,0.1-0.9,0.1h-1.7
				c0,0-0.1,0-0.1,0C46.1,35.4,46.1,35.3,46.1,35.3z M47.5,34.3H48c0.1,0,0.2,0,0.4,0c0.1,0,0.2-0.1,0.3-0.2
				c0.1-0.1,0.2-0.2,0.3-0.3c0.1-0.1,0.1-0.3,0.1-0.6c0-0.2,0-0.4-0.1-0.6c-0.1-0.1-0.2-0.3-0.3-0.3c-0.1-0.1-0.2-0.1-0.3-0.2
				c-0.1,0-0.2,0-0.4,0h-0.5c0,0-0.1,0-0.1,0c0,0,0,0.1,0,0.1v2c0,0,0,0.1,0,0.1C47.4,34.3,47.5,34.3,47.5,34.3z"/>
			<path class="st1" d="M51.9,30.9C51.9,30.9,52,30.9,51.9,30.9c0.1-0.1,0.2-0.1,0.2-0.1H53c0,0,0.1,0,0.1,0c0,0,0.1,0.1,0.1,0.1
				l1.9,4.3c0,0,0,0.1,0,0.1c0,0-0.1,0.1-0.1,0.1h-1.1c0,0-0.1,0-0.1,0c0,0-0.1-0.1-0.1-0.1l-0.2-0.4c0,0-0.1-0.1-0.1-0.1
				c0,0-0.1,0-0.1,0h-1.3c0,0-0.1,0-0.1,0c0,0-0.1,0.1-0.1,0.1l-0.2,0.4c0,0,0,0.1-0.1,0.1c0,0-0.1,0-0.1,0h-1.1c0,0,0,0-0.1,0
				c0,0,0,0-0.1,0c0,0,0,0,0-0.1c0,0,0-0.1,0-0.1L51.9,30.9z M52.3,33.7h0.6c0,0,0.1,0,0.1,0c0,0,0-0.1,0-0.1c0-0.1-0.1-0.2-0.2-0.4
				c-0.1-0.1-0.1-0.3-0.2-0.4c0,0,0-0.1-0.1-0.1c0,0,0,0-0.1,0.1l-0.3,0.8C52.2,33.6,52.2,33.6,52.3,33.7
				C52.2,33.7,52.2,33.7,52.3,33.7z"/>
			<path class="st1" d="M59.9,30.9v4.3c0,0,0,0.1,0,0.1c0,0-0.1,0-0.1,0h-0.9c0,0-0.1,0-0.1,0c0,0-0.1-0.1-0.1-0.1L56.9,33
				c0,0,0,0-0.1,0c0,0,0,0,0,0.1v2.3c0,0,0,0.1,0,0.1c0,0-0.1,0-0.1,0h-0.9c0,0-0.1,0-0.1,0c0,0,0-0.1,0-0.1v-4.3c0,0,0-0.1,0-0.1
				c0,0,0.1,0,0.1,0h1c0,0,0.1,0,0.1,0c0,0,0.1,0.1,0.1,0.1l1.7,2.3c0,0,0.1,0,0.1,0c0,0,0,0,0-0.1v-2.3c0,0,0-0.1,0-0.1
				c0,0,0.1,0,0.1,0h0.9c0,0,0.1,0,0.1,0C59.8,30.9,59.9,30.9,59.9,30.9z"/>
			<path class="st1" d="M60.4,33.1c0-0.3,0.1-0.6,0.2-0.9c0.1-0.3,0.3-0.5,0.5-0.8c0.2-0.2,0.5-0.4,0.8-0.5c0.3-0.1,0.6-0.2,0.9-0.2
				c0.3,0,0.6,0.1,0.9,0.2c0.3,0.1,0.5,0.3,0.8,0.5c0.2,0.2,0.4,0.5,0.5,0.8c0.1,0.3,0.2,0.6,0.2,0.9c0,0.3-0.1,0.6-0.2,0.9
				c-0.1,0.3-0.3,0.5-0.5,0.8c-0.2,0.2-0.5,0.4-0.8,0.5c-0.3,0.1-0.6,0.2-0.9,0.2c-0.3,0-0.6-0.1-0.9-0.2c-0.3-0.1-0.5-0.3-0.8-0.5
				c-0.2-0.2-0.4-0.5-0.5-0.8C60.5,33.8,60.4,33.4,60.4,33.1z M61.7,33.1c0,0.2,0,0.3,0.1,0.5c0.1,0.1,0.1,0.3,0.2,0.4
				c0.1,0.1,0.2,0.2,0.4,0.3c0.1,0.1,0.3,0.1,0.4,0.1c0.2,0,0.3,0,0.4-0.1c0.1-0.1,0.3-0.2,0.4-0.3c0.1-0.1,0.2-0.2,0.2-0.4
				c0.1-0.1,0.1-0.3,0.1-0.5c0-0.2,0-0.3-0.1-0.5c-0.1-0.1-0.1-0.3-0.2-0.4c-0.1-0.1-0.2-0.2-0.4-0.3c-0.1-0.1-0.3-0.1-0.4-0.1
				c-0.2,0-0.3,0-0.4,0.1c-0.1,0.1-0.3,0.2-0.4,0.3c-0.1,0.1-0.2,0.2-0.2,0.4C61.7,32.8,61.7,33,61.7,33.1z"/>
		</g>
		<g>
			<path class="st1" d="M32.1,26.1v3.2c0,0,0,0.1,0,0.1c0,0,0,0-0.1,0h-0.7c0,0-0.1,0-0.1,0c0,0,0,0,0-0.1v-1.5c0,0,0,0,0-0.1
				c0,0-0.1,0-0.1,0l-0.8,1.3c0,0,0,0-0.1,0c0,0-0.1,0-0.1,0l-0.8-1.3c0,0,0,0-0.1,0c0,0,0,0,0,0.1v1.5c0,0,0,0.1,0,0.1
				c0,0-0.1,0-0.1,0h-0.7c0,0-0.1,0-0.1,0c0,0,0,0,0-0.1v-3.2c0,0,0-0.1,0-0.1c0,0,0,0,0.1,0H29c0,0,0.1,0,0.1,0c0,0,0.1,0,0.1,0.1
				l0.9,1.3c0,0,0,0,0.1,0c0,0,0,0,0.1,0l0.9-1.3c0,0,0,0,0.1-0.1c0,0,0.1,0,0.1,0H32C32,26,32,26,32.1,26.1
				C32.1,26.1,32.1,26.1,32.1,26.1z"/>
			<path class="st1" d="M32.6,27.7c0-0.2,0-0.5,0.1-0.7c0.1-0.2,0.2-0.4,0.4-0.6c0.2-0.2,0.4-0.3,0.6-0.4c0.2-0.1,0.5-0.1,0.7-0.1
				c0.2,0,0.5,0,0.7,0.1c0.2,0.1,0.4,0.2,0.6,0.4c0.2,0.2,0.3,0.4,0.4,0.6c0.1,0.2,0.1,0.5,0.1,0.7c0,0.2,0,0.5-0.1,0.7
				c-0.1,0.2-0.2,0.4-0.4,0.6c-0.2,0.2-0.4,0.3-0.6,0.4c-0.2,0.1-0.5,0.1-0.7,0.1c-0.2,0-0.5,0-0.7-0.1c-0.2-0.1-0.4-0.2-0.6-0.4
				c-0.2-0.2-0.3-0.4-0.4-0.6C32.7,28.2,32.6,28,32.6,27.7z M33.6,27.7c0,0.1,0,0.2,0.1,0.3c0,0.1,0.1,0.2,0.2,0.3
				c0.1,0.1,0.2,0.1,0.3,0.2c0.1,0,0.2,0.1,0.3,0.1c0.1,0,0.2,0,0.3-0.1c0.1,0,0.2-0.1,0.3-0.2c0.1-0.1,0.1-0.2,0.2-0.3
				c0-0.1,0.1-0.2,0.1-0.3c0-0.1,0-0.2-0.1-0.3c0-0.1-0.1-0.2-0.2-0.3c-0.1-0.1-0.2-0.1-0.3-0.2c-0.1,0-0.2-0.1-0.3-0.1
				c-0.1,0-0.2,0-0.3,0.1c-0.1,0-0.2,0.1-0.3,0.2c-0.1,0.1-0.1,0.2-0.2,0.3C33.6,27.5,33.6,27.6,33.6,27.7z"/>
			<path class="st1" d="M37.7,29.4l-1.4-3.2c0,0,0-0.1,0-0.1c0,0,0,0,0.1,0h0.8c0,0,0.1,0,0.1,0c0,0,0.1,0,0.1,0.1l0.8,1.9
				c0,0,0,0,0.1,0c0,0,0,0,0.1,0l0.8-1.9c0,0,0-0.1,0.1-0.1c0,0,0.1,0,0.1,0H40c0,0,0.1,0,0.1,0c0,0,0,0.1,0,0.1l-1.4,3.3
				c0,0,0,0.1-0.1,0.1c0,0-0.1,0-0.1,0h-0.6C37.8,29.5,37.8,29.5,37.7,29.4C37.7,29.4,37.7,29.4,37.7,29.4z"/>
			<path class="st1" d="M41.4,29.5h-0.7c0,0-0.1,0-0.1,0c0,0,0,0,0-0.1v-3.2c0,0,0-0.1,0-0.1c0,0,0,0,0.1,0h0.7c0,0,0.1,0,0.1,0
				c0,0,0,0,0,0.1v3.2C41.5,29.4,41.5,29.4,41.4,29.5C41.4,29.5,41.4,29.5,41.4,29.5z"/>
			<path class="st1" d="M45.9,26.1v3.2c0,0,0,0.1,0,0.1c0,0,0,0-0.1,0h-0.7c0,0-0.1,0-0.1,0c0,0,0,0,0-0.1v-1.5c0,0,0,0,0-0.1
				c0,0-0.1,0-0.1,0l-0.8,1.3c0,0,0,0-0.1,0c0,0-0.1,0-0.1,0l-0.8-1.3c0,0,0,0-0.1,0c0,0,0,0,0,0.1v1.5c0,0,0,0.1,0,0.1
				c0,0,0,0-0.1,0h-0.7c0,0-0.1,0-0.1,0c0,0,0,0,0-0.1v-3.2c0,0,0-0.1,0-0.1c0,0,0,0,0.1,0h0.7c0,0,0.1,0,0.1,0c0,0,0.1,0,0.1,0.1
				l0.9,1.3c0,0,0,0,0.1,0c0,0,0,0,0.1,0l0.9-1.3c0,0,0,0,0.1-0.1c0,0,0.1,0,0.1,0h0.7C45.9,26,45.9,26,45.9,26.1
				C45.9,26.1,45.9,26.1,45.9,26.1z"/>
			<path class="st1" d="M47.4,29.5h-0.7c0,0-0.1,0-0.1,0c0,0,0,0,0-0.1v-3.2c0,0,0-0.1,0-0.1c0,0,0,0,0.1,0h0.7c0,0,0.1,0,0.1,0
				c0,0,0,0,0,0.1v3.2C47.5,29.4,47.5,29.4,47.4,29.5C47.4,29.5,47.4,29.5,47.4,29.5z"/>
			<path class="st1" d="M49,27v0.2c0,0,0,0.1,0,0.1c0,0,0,0,0.1,0h1.3c0,0,0.1,0,0.1,0c0,0,0,0,0,0.1v0.7c0,0,0,0.1,0,0.1
				c0,0-0.1,0-0.1,0h-1.3c0,0-0.1,0-0.1,0c0,0,0,0,0,0.1v0.2c0,0,0,0.1,0,0.1c0,0,0,0,0.1,0h1.5c0,0,0.1,0,0.1,0c0,0,0,0,0,0.1v0.7
				c0,0,0,0.1,0,0.1c0,0-0.1,0-0.1,0h-2.4c0,0-0.1,0-0.1,0c0,0,0,0,0-0.1v-3.3c0,0,0-0.1,0-0.1c0,0,0,0,0.1,0h2.4c0,0,0.1,0,0.1,0
				c0,0,0,0.1,0,0.1v0.6c0,0,0,0.1,0,0.1c0,0-0.1,0-0.1,0h-1.5C49.1,26.9,49.1,26.9,49,27C49,26.9,49,27,49,27z"/>
			<path class="st1" d="M54.6,26.1v3.3c0,0,0,0.1,0,0.1c0,0,0,0-0.1,0h-0.7c0,0-0.1,0-0.1,0c0,0-0.1,0-0.1-0.1l-1.2-1.7
				c0,0,0,0-0.1,0c0,0,0,0,0,0.1v1.7c0,0,0,0.1,0,0.1c0,0,0,0-0.1,0h-0.7c0,0-0.1,0-0.1,0c0,0,0,0,0-0.1v-3.3c0,0,0-0.1,0-0.1
				c0,0,0.1,0,0.1,0h0.7c0,0,0.1,0,0.1,0c0,0,0.1,0,0.1,0.1l1.2,1.7c0,0,0,0,0.1,0c0,0,0,0,0-0.1v-1.7c0,0,0-0.1,0-0.1
				c0,0,0,0,0.1,0h0.7C54.5,26,54.5,26,54.6,26.1C54.6,26.1,54.6,26.1,54.6,26.1z"/>
			<path class="st1" d="M57.8,26.9h-0.7c0,0-0.1,0-0.1,0c0,0,0,0,0,0.1v2.4c0,0,0,0.1,0,0.1c0,0,0,0-0.1,0h-0.7c0,0-0.1,0-0.1,0
				c0,0,0,0,0-0.1V27c0,0,0-0.1,0-0.1c0,0-0.1,0-0.1,0h-0.7c0,0-0.1,0-0.1,0c0,0,0,0,0-0.1v-0.6c0,0,0-0.1,0-0.1c0,0,0,0,0.1,0h2.5
				c0,0,0.1,0,0.1,0c0,0,0,0.1,0,0.1v0.6C57.9,26.8,57.9,26.8,57.8,26.9C57.9,26.9,57.9,26.9,57.8,26.9z"/>
			<path class="st1" d="M58.2,27.7c0-0.2,0-0.5,0.1-0.7c0.1-0.2,0.2-0.4,0.4-0.6c0.2-0.2,0.4-0.3,0.6-0.4c0.2-0.1,0.5-0.1,0.7-0.1
				c0.2,0,0.5,0,0.7,0.1c0.2,0.1,0.4,0.2,0.6,0.4c0.2,0.2,0.3,0.4,0.4,0.6c0.1,0.2,0.1,0.5,0.1,0.7c0,0.2,0,0.5-0.1,0.7
				c-0.1,0.2-0.2,0.4-0.4,0.6c-0.2,0.2-0.4,0.3-0.6,0.4c-0.2,0.1-0.5,0.1-0.7,0.1c-0.2,0-0.5,0-0.7-0.1c-0.2-0.1-0.4-0.2-0.6-0.4
				c-0.2-0.2-0.3-0.4-0.4-0.6C58.2,28.2,58.2,28,58.2,27.7z M59.1,27.7c0,0.1,0,0.2,0.1,0.3c0,0.1,0.1,0.2,0.2,0.3
				c0.1,0.1,0.2,0.1,0.3,0.2c0.1,0,0.2,0.1,0.3,0.1c0.1,0,0.2,0,0.3-0.1c0.1,0,0.2-0.1,0.3-0.2c0.1-0.1,0.1-0.2,0.2-0.3
				c0-0.1,0.1-0.2,0.1-0.3c0-0.1,0-0.2-0.1-0.3c0-0.1-0.1-0.2-0.2-0.3c-0.1-0.1-0.2-0.1-0.3-0.2c-0.1,0-0.2-0.1-0.3-0.1
				c-0.1,0-0.2,0-0.3,0.1c-0.1,0-0.2,0.1-0.3,0.2c-0.1,0.1-0.1,0.2-0.2,0.3C59.2,27.5,59.1,27.6,59.1,27.7z"/>
		</g>
	</g>
</g>
</svg>
