<?xml version="1.0" encoding="utf-8"?>
<!-- Generator: Adobe Illustrator 25.4.1, SVG Export Plug-In . SVG Version: 6.00 Build 0)  -->
<svg version="1.1" id="Capa_1" xmlns="http://www.w3.org/2000/svg" xmlns:xlink="http://www.w3.org/1999/xlink" x="0px" y="0px"
	 viewBox="0 0 90 45" style="enable-background:new 0 0 90 45;" xml:space="preserve">
<style type="text/css">
	.st0{fill:#992D31;}
</style>
<g>
	<path class="st0" d="M4.3,15.6L5,16.5c0.8-0.4,2-0.9,3-0.9c1.2,0,2.4,0.1,3.5,1c1-0.6,2.5-1,3.8-1c1.6,0,4.7,0.1,4.7,4.7v9.2h-4
		v-9.2c0-1.7-0.9-1.6-1.5-1.6c-0.5,0-1.7,0.3-1.7,0.3v10.5h-4v-9.2c0-1.6-0.9-1.6-1.6-1.6c-0.5,0-1.7,0.3-1.7,0.3v10.5h-4V15.9
		L4.3,15.6z"/>
	<path class="st0" d="M29.4,15.6c4.1,0,6.6,3,6.6,7.1c0,4.1-2.5,7.1-6.6,7.1c-4.1,0-6.6-3-6.6-7.1C22.8,18.5,25.3,15.6,29.4,15.6
		 M29.4,26.9c2,0,2.6-2.2,2.6-4.2c0-2.1-0.5-4.2-2.6-4.2c-2,0-2.6,2.1-2.6,4.2C26.8,24.7,27.4,26.9,29.4,26.9"/>
	<path class="st0" d="M45.7,19c-1.3,0-3.3,0.4-3.3,0.4v10.1h-4V15.9c0.6-0.1,1.1-0.1,1.5-0.2l1.3-0.1l0.7,1.2
		c0.7-0.5,2.3-1.3,4.3-1.5L45.7,19z"/>
	<path class="st0" d="M58.6,21.9c0,0.3,0,0.7-0.1,1c0,0-0.1,0.1-0.1,0.2c0,0.1-0.2,0.6-0.2,0.7l-7.6-0.2c0.1,2.1,1.3,3.2,3,3.2
		c1.5,0,3.5-0.5,4.1-0.7l0.3,2.4c0,0-2.2,1.2-5.4,1.3c-3.4,0.1-6-2.6-6-7.1c0-4.6,2.5-7.1,6.2-7.1C56.4,15.6,58.6,17.7,58.6,21.9
		 M50.7,21h4c-0.1-1.7-0.9-2.5-1.8-2.5C52,18.5,50.8,18.5,50.7,21"/>
	<path class="st0" d="M63.9,15.6l0.7,0.9c0.6-0.3,1.8-0.9,3.6-0.9c2.6,0,5,1.9,5,5.1v8.9h-4v-8.9c0-1.7-0.8-2-1.9-2
		c-0.9,0-2.1,0.2-2.1,0.2v10.6h-4V15.9L63.9,15.6z"/>
	<path class="st0" d="M88.4,28.8c0,0-2,1-3.4,1c-0.9,0-1.8-1.1-1.8-1.1c-0.7,0.4-2.1,1.1-3.6,1.1c-2,0-4.3-1.6-4.3-4.2
		c0-2.6,2.3-4.2,4.5-4.2c1.3,0,3,0.2,3,0.2v-1.4c0-0.9-0.7-1.6-1.7-1.6c-0.8,0-3.5,0.7-3.5,0.7l-1-2.4c0,0,3.4-1.4,5.1-1.4
		c2.2,0,5,1.4,5,4.3v6.7h1.1L88.4,28.8z M82.8,26.5V24h-2.1c-0.8,0-1.4,0.6-1.4,1.3c0,0.7,0.6,1.5,1.4,1.5
		C81.6,26.7,82.8,26.5,82.8,26.5"/>
</g>
</svg>
