<?xml version="1.0" encoding="utf-8"?>
<!-- Generator: Adobe Illustrator 25.4.1, SVG Export Plug-In . SVG Version: 6.00 Build 0)  -->
<svg version="1.1" id="Capa_1" xmlns="http://www.w3.org/2000/svg" xmlns:xlink="http://www.w3.org/1999/xlink" x="0px" y="0px"
	 viewBox="0 0 90 45" style="enable-background:new 0 0 90 45;" xml:space="preserve">
<style type="text/css">
	.st0{fill-rule:evenodd;clip-rule:evenodd;fill:#60ABAF;}
	.st1{fill:#FFFFFF;}
	.st2{fill-rule:evenodd;clip-rule:evenodd;fill:#FFFFFF;}
</style>
<g>
	<path class="st0" d="M25.3,0.8h39.3c1.1,0,2,0.9,2,2v39.3c0,1.1-0.9,2-2,2H25.3c-1.1,0-2-0.9-2-2V2.8C23.3,1.7,24.2,0.8,25.3,0.8
		L25.3,0.8z"/>
	<path class="st1" d="M53,32.9h-0.4c-0.1,0-0.2,0-0.3-0.1c-0.1-0.1-0.1-0.1-0.1-0.3l0,0v-1.4c0-0.2,0-0.3-0.1-0.4
		c-0.1-0.1-0.2-0.1-0.3-0.1c-0.1,0-0.2,0-0.3,0.1c-0.1,0.1-0.1,0.2-0.1,0.4v1.7h-0.7v-1.6c0-0.5,0.1-0.8,0.4-0.9
		c0.2-0.2,0.5-0.2,0.8-0.3c0.3,0,0.6,0.1,0.8,0.2c0.3,0.2,0.4,0.5,0.4,1V32.9L53,32.9z M55.5,30.2v1.6c0,0.5-0.1,0.8-0.4,1
		c-0.3,0.2-0.5,0.2-0.8,0.2c-0.3,0-0.6-0.1-0.8-0.2c-0.2-0.2-0.4-0.5-0.4-0.9v-1.6h0.7v1.7c0,0.2,0,0.3,0.1,0.4
		c0.1,0.1,0.2,0.1,0.3,0.1c0.1,0,0.2,0,0.3-0.1c0.1-0.1,0.1-0.2,0.1-0.4v-1.4l0,0c0-0.1,0-0.2,0.1-0.2c0.1-0.1,0.1-0.1,0.3-0.1H55.5
		L55.5,30.2z M57.6,32.1h0.5c-0.1,0.3-0.2,0.5-0.4,0.7c-0.2,0.2-0.5,0.2-0.8,0.2c-0.4,0-0.7-0.1-0.9-0.4c-0.2-0.2-0.3-0.6-0.3-1.1
		c0-0.4,0.1-0.8,0.3-1c0.2-0.3,0.5-0.4,0.9-0.4c0.4,0,0.7,0.1,1,0.4c0.2,0.3,0.3,0.6,0.3,1.1c0,0,0,0.1,0,0.1c0,0,0,0,0,0
		c0,0,0,0.1,0,0.1h-1.8c0,0.2,0.1,0.4,0.2,0.5c0.1,0.1,0.2,0.2,0.4,0.2c0.1,0,0.2,0,0.3-0.1c0,0,0,0,0.1,0c0,0,0,0,0.1-0.1
		c0,0,0,0,0.1-0.1C57.5,32.1,57.6,32.1,57.6,32.1L57.6,32.1z M56.4,31.3h1c0-0.2-0.1-0.3-0.1-0.4c-0.1-0.1-0.2-0.1-0.4-0.1
		c-0.2,0-0.3,0-0.4,0.1C56.5,31,56.4,31.1,56.4,31.3L56.4,31.3z M60.1,32.9h-0.7l-1-2.7h0.8l0.5,1.9l0.5-1.7
		c0.1-0.2,0.2-0.2,0.3-0.2l0,0h0.5L60.1,32.9L60.1,32.9z M62.8,31.5c-0.1,0-0.2,0.1-0.4,0.1c-0.2,0-0.2,0.1-0.2,0.1
		c-0.1,0-0.2,0.1-0.3,0.1c0,0.1-0.1,0.2-0.1,0.2c0,0.1,0,0.2,0.1,0.2c0.1,0.1,0.2,0.1,0.3,0.1c0.2,0,0.3-0.1,0.5-0.2
		c0.1-0.1,0.2-0.3,0.2-0.5V31.5L62.8,31.5z M63,32.8c-0.1,0.1-0.3,0.1-0.5,0.1c-0.2,0-0.3,0-0.4,0c-0.2,0-0.5-0.1-0.6-0.2
		c-0.2-0.1-0.3-0.4-0.3-0.7c0-0.3,0.1-0.5,0.3-0.6c0.2-0.1,0.4-0.2,0.6-0.2c0,0,0.1,0,0.1,0c0,0,0.1,0,0.2,0c0.3,0,0.5-0.1,0.5-0.3
		c0-0.1-0.1-0.2-0.2-0.2c-0.1,0-0.2,0-0.3,0c-0.1,0-0.2,0-0.3,0c-0.1,0-0.1,0.1-0.2,0.2h-0.7c0-0.2,0.1-0.4,0.3-0.5
		c0.2-0.2,0.4-0.2,0.8-0.2c0.4,0,0.7,0.1,0.9,0.2c0.2,0.1,0.3,0.3,0.3,0.6v0.9c0,0.3,0,0.5-0.1,0.6C63.3,32.6,63.1,32.7,63,32.8
		L63,32.8z"/>
	<path class="st1" d="M29.5,37.9c-0.3,0.1-0.6,0.2-1.1,0.4c-0.4,0.1-0.6,0.1-0.6,0.1c-0.3,0.1-0.6,0.2-0.7,0.4
		c-0.1,0.2-0.2,0.4-0.2,0.6c0,0.3,0.1,0.5,0.2,0.7c0.2,0.1,0.4,0.2,0.7,0.2c0.5,0,0.9-0.1,1.2-0.4c0.3-0.3,0.4-0.7,0.4-1.2V37.9
		L29.5,37.9z M29.9,41.3c-0.4,0.2-0.8,0.3-1.2,0.4c-0.4,0-0.8,0.1-1.1,0.1c-0.7,0-1.2-0.2-1.7-0.5c-0.5-0.4-0.7-1-0.7-1.8
		c0-0.8,0.2-1.3,0.7-1.7c0.4-0.3,1-0.6,1.7-0.7c0.1,0,0.2,0,0.3,0c0.1,0,0.3,0,0.4-0.1c0.8-0.1,1.2-0.3,1.2-0.7
		c0-0.3-0.1-0.5-0.4-0.5c-0.3-0.1-0.5-0.1-0.8-0.1c-0.3,0-0.5,0-0.7,0.1c-0.2,0.1-0.3,0.2-0.4,0.4h-1.8c0.1-0.6,0.3-1,0.8-1.4
		c0.5-0.4,1.2-0.6,2.1-0.6c1,0,1.8,0.2,2.3,0.5c0.5,0.4,0.8,0.9,0.8,1.5v2.5c0,0.7-0.1,1.3-0.4,1.7C30.6,40.8,30.3,41.1,29.9,41.3
		L29.9,41.3z M31.9,32.1h1c0.3,0,0.5,0.1,0.7,0.3c0.2,0.2,0.3,0.4,0.3,0.6v8.6h-1.9V32.1L31.9,32.1z M34.6,34.3h1
		c0.3,0,0.5,0.1,0.7,0.3c0.2,0.2,0.3,0.4,0.3,0.7v6.4h-1.9V34.3L34.6,34.3z M34.6,32.1h1c0.3,0,0.5,0.1,0.7,0.3
		c0.2,0.2,0.3,0.4,0.3,0.7v0.6h-1.9V32.1L34.6,32.1z M41.2,37.9c-0.3,0.1-0.6,0.2-1.1,0.4c-0.4,0.1-0.6,0.1-0.6,0.1
		c-0.3,0.1-0.6,0.2-0.7,0.4c-0.1,0.2-0.2,0.4-0.2,0.6c0,0.3,0.1,0.5,0.2,0.7c0.2,0.1,0.4,0.2,0.7,0.2c0.5,0,0.9-0.1,1.2-0.4
		c0.3-0.3,0.4-0.7,0.4-1.2V37.9L41.2,37.9z M41.6,41.3c-0.4,0.2-0.8,0.3-1.2,0.4c-0.4,0-0.8,0.1-1.1,0.1c-0.7,0-1.2-0.2-1.7-0.5
		c-0.5-0.4-0.7-1-0.7-1.8c0-0.8,0.2-1.3,0.7-1.7c0.4-0.3,1-0.6,1.7-0.7c0.1,0,0.2,0,0.3,0c0.1,0,0.3,0,0.4-0.1
		c0.8-0.1,1.2-0.3,1.2-0.7c0-0.3-0.1-0.5-0.4-0.5c-0.3-0.1-0.5-0.1-0.8-0.1c-0.3,0-0.5,0-0.7,0.1c-0.2,0.1-0.3,0.2-0.4,0.4h-1.8
		c0.1-0.6,0.3-1,0.8-1.4c0.5-0.4,1.2-0.6,2.1-0.6c1,0,1.8,0.2,2.3,0.5c0.5,0.4,0.8,0.9,0.8,1.5v2.5c0,0.7-0.1,1.3-0.4,1.7
		C42.3,40.8,42,41.1,41.6,41.3L41.6,41.3z M49.9,41.6h-1c-0.3,0-0.5-0.1-0.7-0.3c-0.2-0.2-0.3-0.4-0.3-0.7l0,0v-3.8
		c0-0.4-0.1-0.8-0.4-1c-0.3-0.2-0.6-0.3-0.9-0.3c-0.3,0-0.6,0.1-0.9,0.3c-0.3,0.2-0.4,0.5-0.4,1v4.7h-1.9v-4.3c0-1.2,0.3-2.1,1-2.5
		c0.7-0.4,1.4-0.7,2.2-0.7c0.8,0,1.6,0.2,2.2,0.6c0.7,0.4,1,1.3,1,2.6V41.6L49.9,41.6z M50.5,41.6v-1.5l3.9-4.4h-2.8
		c-0.3,0-0.5-0.1-0.7-0.3c-0.2-0.2-0.3-0.4-0.3-0.6v-0.6h6v1.6L52.8,40h4v1.6H50.5L50.5,41.6z M61.7,37.9c-0.3,0.1-0.6,0.2-1.1,0.4
		c-0.4,0.1-0.6,0.1-0.6,0.1c-0.3,0.1-0.6,0.2-0.7,0.4c-0.1,0.2-0.2,0.4-0.2,0.6c0,0.3,0.1,0.5,0.2,0.7c0.2,0.1,0.4,0.2,0.7,0.2
		c0.5,0,0.9-0.1,1.2-0.4c0.3-0.3,0.4-0.7,0.4-1.2V37.9L61.7,37.9z M62.1,41.3c-0.4,0.2-0.8,0.3-1.2,0.4c-0.4,0-0.8,0.1-1.1,0.1
		c-0.7,0-1.2-0.2-1.7-0.5c-0.5-0.4-0.7-1-0.7-1.8c0-0.8,0.2-1.3,0.7-1.7c0.4-0.3,1-0.6,1.7-0.7c0.1,0,0.2,0,0.3,0
		c0.1,0,0.3,0,0.4-0.1c0.8-0.1,1.2-0.3,1.2-0.7c0-0.3-0.1-0.5-0.4-0.5c-0.3-0.1-0.5-0.1-0.8-0.1c-0.3,0-0.5,0-0.7,0.1
		c-0.2,0.1-0.3,0.2-0.4,0.4h-1.8c0.1-0.6,0.3-1,0.8-1.4c0.5-0.4,1.2-0.6,2.1-0.6c1,0,1.8,0.2,2.3,0.5c0.5,0.4,0.8,0.9,0.8,1.5v2.5
		c0,0.7-0.1,1.3-0.4,1.7C62.8,40.8,62.5,41.1,62.1,41.3L62.1,41.3z"/>
	<path class="st2" d="M56.5,5.1c1.1-0.5,2.3-0.9,3.6-1c0.3,0,0.7,0,1,0c0.7,0.1,1.4,0.4,2,0.9C63.7,5.5,64,6.3,64,7.1
		c0,0.9-0.2,1.8-0.5,2.6c-0.7,1.7-1.7,3.3-2.8,4.8c-1.2,1.6-2.4,3.1-3.8,4.6c-1.6,1.8-3.3,3.4-5,5c-0.7,0.6-1.4,1.2-2.2,1.8
		c-1.4,1.2-2.8,2.3-4.4,3.2c-0.7,0.4-1.5,0.7-2.3,0.7c-0.4,0-0.9-0.2-1.1-0.6c-0.4-0.5-0.5-1.1-0.6-1.7c0-0.9-0.2-1.8-0.5-2.6
		c-0.3-1-0.8-1.9-1.5-2.6c-0.7-0.9-1.7-1.6-2.8-1.9c-0.4-0.1-0.9-0.2-1.4-0.2c-0.4,0-0.7,0-1.1,0c-1.4,0.2-2.8,0.8-4,1.5
		c-1.5,0.9-2.9,2.1-4.1,3.3c-0.1,0.1-0.2,0.1-0.3,0c0-0.4,0.3-0.7,0.5-1c1.3-1.9,2.8-3.5,4.7-4.8c2-1.4,4.4-2.2,6.9-2.5
		c0.7-0.1,1.4-0.1,2,0c1.2,0.1,2.5,0.5,3.5,1.2c0.7,0.5,1.2,1,1.7,1.7c0.5,0.7,0.8,1.5,0.9,2.4c0.1,0,0.2-0.1,0.2-0.1
		c1.5-1,2.9-2.1,4.3-3.3c1.3-1.2,2.6-2.4,3.8-3.7c1.2-1.3,2.3-2.7,3.1-4.3c0.3-0.5,0.3-1.2,0-1.8c-0.2-0.4-0.7-0.7-1.2-0.8
		c-0.3,0-0.7,0-1,0.1c-0.9,0.2-1.8,0.6-2.6,1.1c-1.7,1-3.4,2-5,3.1c-0.6,0.4-1.3,0.8-2,1.2c-0.2,0.1-0.4,0.2-0.7,0.2
		c0-0.3,0.3-0.5,0.4-0.6c1.2-1.2,2.4-2.2,3.7-3.3c1.4-1.1,2.9-2.2,4.4-3.2C54.4,6.2,55.4,5.6,56.5,5.1L56.5,5.1L56.5,5.1z"/>
</g>
</svg>
