<?xml version="1.0" encoding="utf-8"?>
<!-- Generator: Adobe Illustrator 25.4.1, SVG Export Plug-In . SVG Version: 6.00 Build 0)  -->
<svg version="1.1" id="Capa_1" xmlns="http://www.w3.org/2000/svg" xmlns:xlink="http://www.w3.org/1999/xlink" x="0px" y="0px"
	 viewBox="0 0 90 45" style="enable-background:new 0 0 90 45;" xml:space="preserve">
<style type="text/css">
	.st0{fill:#003FA2;}
	.st1{fill:#FFFFFF;}
</style>
<g>
	<g>
		<path class="st0" d="M63.9,44.1c1.5,0,2.7-1.2,2.7-2.7V3.6c0-1.5-1.2-2.7-2.7-2.7H26.1c-1.5,0-2.7,1.2-2.7,2.7v37.8
			c0,1.5,1.2,2.7,2.7,2.7H63.9z"/>
		<path class="st1" d="M45,43.3c11.5,0,20.8-9.3,20.8-20.8C65.8,11,56.5,1.7,45,1.7c-11.5,0-20.8,9.3-20.8,20.8
			C24.2,34,33.5,43.3,45,43.3"/>
		<path class="st0" d="M45,41.1c10.3,0,18.6-8.3,18.6-18.6S55.3,3.9,45,3.9s-18.6,8.3-18.6,18.6S34.7,41.1,45,41.1"/>
		<path class="st1" d="M45,38.6c8.9,0,16.1-7.2,16.1-16.1c0-8.9-7.2-16.1-16.1-16.1c-8.9,0-16.1,7.2-16.1,16.1
			C28.9,31.4,36.1,38.6,45,38.6"/>
		<path class="st0" d="M32.6,32.1V13h6.6c1.1,0,1.6,1.4,1.6,2.8v5.9c0,1.7-0.5,3.5-2.1,3.5h-3.1v6.9H32.6z"/>
		<path class="st1" d="M37,22.1c0.5,0,0.6-0.5,0.6-1.1v-3.9c0-0.7-0.2-1-0.6-1h-1.4v5.9H37z"/>
		<polygon class="st0" points="42.9,29.5 42.5,32.1 39.4,32.1 42.7,13 46.5,13 49.8,32.1 46.7,32.1 46.3,29.5 		"/>
		<polygon class="st1" points="45.5,26.7 44.6,22.6 43.8,26.7 		"/>
		<polygon class="st0" points="50.1,32.1 50.1,13 52.9,13 54.9,19.7 54.9,13 57.9,13 57.9,32.1 55,32.1 53.2,26.2 53.2,32.1 		"/>
	</g>
</g>
</svg>
