<?xml version="1.0" encoding="utf-8"?>
<!-- Generator: Adobe Illustrator 25.4.1, SVG Export Plug-In . SVG Version: 6.00 Build 0)  -->
<svg version="1.1" id="Capa_1" xmlns="http://www.w3.org/2000/svg" xmlns:xlink="http://www.w3.org/1999/xlink" x="0px" y="0px"
	 viewBox="0 0 90 45" style="enable-background:new 0 0 90 45;" xml:space="preserve">
<style type="text/css">
	.st0{fill:#F0C91A;}
	.st1{fill:#181713;}
	.st2{fill-rule:evenodd;clip-rule:evenodd;fill:#181713;}
</style>
<g>
	<g>
		<path class="st0" d="M65.9,40.8c0,1.3-1.1,2.4-2.4,2.4l-37.1,0c-1.3,0-2.4-1.1-2.4-2.4l0-37c0-1.3,1.1-2.4,2.4-2.4l37.1,0
			c1.3,0,2.4,1.1,2.4,2.4L65.9,40.8z"/>
		<path class="st1" d="M63.5,44.3l-37.1,0c-1.7,0-3.1-1.4-3.1-3.1l0-37.3c0-1.7,1.4-3.1,3.1-3.1l37.1,0c1.7,0,3.1,1.4,3.1,3.1
			l0,37.3C66.7,42.9,65.3,44.3,63.5,44.3 M26.4,2.2c-0.9,0-1.6,0.7-1.6,1.6l0,37c0,0.9,0.7,1.6,1.6,1.6l37.1,0
			c0.9,0,1.6-0.7,1.6-1.6l0-37c0-0.9-0.7-1.6-1.6-1.6L26.4,2.2z"/>
		<g>
			<path class="st2" d="M46.1,9.7l0-4.7l-2.3,0l0,4.8c0.4-0.1,0.8-0.1,1.2-0.1C45.4,9.6,45.8,9.7,46.1,9.7"/>
			<path class="st2" d="M48.6,10.6l2.5-6.2l-2-0.8l-2.5,6.3h0C47.2,10,47.9,10.2,48.6,10.6"/>
			<path class="st2" d="M49.9,11.7c0.3,0.3,0.5,0.5,0.7,0.8v0L54,9.1l-1.6-1.6L49,10.9C49.3,11.1,49.6,11.4,49.9,11.7"/>
			<path class="st2" d="M50.8,12.8c0.4,0.6,0.7,1.3,0.9,2l6.2-2.6l-0.9-2L50.8,12.8L50.8,12.8z"/>
			<path class="st2" d="M51.8,17.6l4.7,0l0-2.3l-4.8,0c0.1,0.4,0.1,0.8,0.1,1.2C51.9,16.9,51.9,17.3,51.8,17.6L51.8,17.6z"/>
			<path class="st2" d="M51.8,18L51.8,18c-0.2,0.7-0.4,1.4-0.8,2.1l6.2,2.5l0.8-2L51.8,18z"/>
			<path class="st2" d="M49.9,21.4c-0.3,0.3-0.5,0.5-0.8,0.7l3.3,3.3l1.6-1.6l-3.4-3.4C50.5,20.8,50.2,21.1,49.9,21.4"/>
			<path class="st2" d="M48.7,22.3c-0.6,0.4-1.3,0.7-2,0.9l2.6,6.2l2-0.9L48.7,22.3L48.7,22.3z"/>
			<path class="st2" d="M44,23.3l0,4.7l2.3,0l0-4.8c-0.4,0.1-0.8,0.1-1.2,0.1C44.7,23.4,44.3,23.4,44,23.3"/>
			<path class="st2" d="M41.5,22.4L39,28.7l2,0.8l2.5-6.3l0,0C42.8,23.1,42.1,22.8,41.5,22.4"/>
			<path class="st2" d="M40.2,21.4c-0.3-0.3-0.5-0.5-0.7-0.8l-3.4,3.4l1.6,1.6l3.4-3.4C40.8,22,40.5,21.7,40.2,21.4"/>
			<path class="st2" d="M39.2,20.2c-0.4-0.6-0.7-1.3-0.9-2l-6.2,2.6l0.9,2L39.2,20.2L39.2,20.2z"/>
			<path class="st2" d="M33.5,15.4l0,2.3l4.8,0c-0.1-0.4-0.1-0.8-0.1-1.2c0-0.4,0-0.7,0.1-1.1L33.5,15.4z"/>
			<path class="st2" d="M38.3,15c0.2-0.7,0.4-1.4,0.8-2.1l-6.2-2.5l-0.8,2L38.3,15L38.3,15z"/>
			<path class="st2" d="M40.2,11.7c0.3-0.3,0.5-0.5,0.8-0.7l-3.4-3.4L36,9.2l3.4,3.4C39.6,12.3,39.9,11.9,40.2,11.7"/>
			<path class="st2" d="M41.3,10.7c0.6-0.4,1.3-0.7,2-0.9l-2.6-6.2l-2,0.9L41.3,10.7L41.3,10.7z"/>
			<path class="st2" d="M45,10.4c-3.4,0-6.2,2.8-6.2,6.2c0,3.4,2.8,6.2,6.2,6.2c3.4,0,6.2-2.8,6.2-6.2C51.2,13.1,48.4,10.4,45,10.4
				 M45,20.3c-2.1,0-3.8-1.7-3.8-3.8c0-2.1,1.7-3.8,3.8-3.8c2.1,0,3.8,1.7,3.8,3.8C48.8,18.6,47.1,20.3,45,20.3"/>
		</g>
		<path class="st2" d="M37.8,30.5l-3.6,0l0,10.4l2.7,0l0-7.8l0.6,0l0,0c0.7,0,1.2,0.6,1.2,1.3c0,0.6-0.4,1.2-1,1.2l0,0l-0.6,0l1,2.6
			c1.9,0,3.4-1.5,3.4-3.9C41.3,32.2,39.9,30.5,37.8,30.5"/>
		<path class="st2" d="M52.9,30.5l-3,0l0,10.3l2.7,0l0-7.5h0c1.1,0,1.9,1.1,1.9,2.4c0,1.3-0.8,2.3-1.8,2.4l1.1,2.6
			c2.1-0.5,3.6-2.5,3.6-5C57.5,32.8,55.4,30.5,52.9,30.5"/>
		<path class="st2" d="M47.6,36.4c0.9-0.6,1.4-1.3,1.4-2.8c0-1.8-1.3-3.2-2.9-3.2l-4.3,0l0,10.4l2.9,0l0-4.3l1.8,4.3l2.9,0
			L47.6,36.4L47.6,36.4z M44.9,35.4h-0.3l0-2.5l0.3,0h0c0.7,0,1.2,0.6,1.2,1.3C46.1,34.8,45.6,35.4,44.9,35.4"/>
	</g>
</g>
</svg>
