<?xml version="1.0" encoding="utf-8"?>
<!-- Generator: Adobe Illustrator 25.4.1, SVG Export Plug-In . SVG Version: 6.00 Build 0)  -->
<svg version="1.1" id="Capa_1" xmlns="http://www.w3.org/2000/svg" xmlns:xlink="http://www.w3.org/1999/xlink" x="0px" y="0px"
	 viewBox="0 0 90 45" style="enable-background:new 0 0 90 45;" xml:space="preserve">
<style type="text/css">
	.st0{fill:#BCBCBB;}
	.st1{fill:#FFFFFF;}
	.st2{fill:#BA141B;}
	.st3{fill:#009045;}
	.st4{fill:#222220;}
</style>
<g>
	<rect x="50.8" y="0.5" class="st0" width="15.5" height="43.3"/>
	<rect x="23.1" y="0.5" class="st0" width="15.5" height="43.3"/>
	<rect x="38.6" y="0.5" class="st1" width="12.3" height="43.3"/>
	<path class="st2" d="M50.8,4.9v34.5c7-2.5,12.2-9.3,12.2-17.2C63,14.2,57.8,7.4,50.8,4.9"/>
	<path class="st3" d="M38.6,4.9C31,7.4,26.4,14.2,26.4,22.2c0,8,4.6,14.7,12.2,17.2V4.9z"/>
	<path class="st1" d="M33,17.5v3.9c0.1,0,0.2,0,0.2,0c0.3,0,0.5-0.1,0.7-0.3c0.1-0.2,0.2-0.6,0.2-1.1v-1.3c0-0.5-0.1-0.9-0.2-1
		C33.7,17.6,33.4,17.5,33,17.5 M29.6,14.9H33c0.9,0,1.7,0.1,2.2,0.3c0.5,0.2,0.9,0.4,1.1,0.7c0.3,0.3,0.4,0.7,0.5,1.2
		c0.1,0.5,0.1,1.2,0.1,2.1v1.3c0,1-0.1,1.7-0.3,2.2c-0.2,0.5-0.5,0.8-1,1c-0.5,0.2-1.1,0.4-1.8,0.4H33v6.2h-3.4V14.9z"/>
	<rect x="53.9" y="14.9" class="st1" width="3.4" height="15.5"/>
	<path class="st4" d="M44.3,11.4v3.4c0.4,0,0.7-0.1,0.8-0.2c0.2-0.1,0.2-0.5,0.2-1.2v-0.9c0-0.5-0.1-0.8-0.2-1
		C45,11.5,44.7,11.4,44.3,11.4 M40.9,8.8h2.4c1.6,0,2.7,0.1,3.3,0.2c0.6,0.1,1,0.5,1.4,1.1c0.4,0.6,0.5,1.6,0.5,2.9
		c0,1.2-0.1,2-0.4,2.4c-0.3,0.4-0.8,0.7-1.5,0.7c0.7,0.2,1.1,0.5,1.4,0.8c0.2,0.3,0.4,0.6,0.4,0.9c0.1,0.3,0.1,1,0.1,2.3v4.1h-3.2
		v-5.1c0-0.8-0.1-1.3-0.2-1.5c-0.1-0.2-0.4-0.3-0.9-0.3v7h-3.4V8.8z"/>
</g>
</svg>
