<?xml version="1.0" encoding="utf-8"?>
<!-- Generator: Adobe Illustrator 25.4.1, SVG Export Plug-In . SVG Version: 6.00 Build 0)  -->
<svg version="1.1" id="Capa_1" xmlns="http://www.w3.org/2000/svg" xmlns:xlink="http://www.w3.org/1999/xlink" x="0px" y="0px"
	 viewBox="0 0 90 45" style="enable-background:new 0 0 90 45;" xml:space="preserve">
<style type="text/css">
	.st0{fill-rule:evenodd;clip-rule:evenodd;}
	.st1{fill-rule:evenodd;clip-rule:evenodd;fill:#BF0811;}
	.st2{fill-rule:evenodd;clip-rule:evenodd;fill:#FEEE00;}
</style>
<g>
	<polygon class="st0" points="23.5,1 66.5,1 66.5,44 23.5,44 23.5,1 	"/>
	<polygon class="st1" points="24.9,2.4 65.1,2.4 65.1,42.6 24.9,42.6 24.9,2.4 	"/>
	<path class="st2" d="M45.5,5.2l-1.4,4.2h-4.1l3.3,2.6l-1.3,4.2l3.4-2.5l3.4,2.5L47.7,12L51,9.4h-4.2L45.5,5.2L45.5,5.2z M46,18.9
		h16.7v5.1H57V40h-5.5V24.1H46V18.9L46,18.9z M29.5,18.9c0,7.1,0,14.1,0,21.1c1.8,0,3.6,0,5.5,0c0-2.6,0-5.3,0-7.9
		c1.4,0,2.8,0,4.2,0c3-0.2,5.5-2.9,5.5-6.6c0-3.7-1.6-6.2-5.1-6.7C36.1,18.9,32.8,18.9,29.5,18.9L29.5,18.9z M34.9,23.1
		c0,1.6,0,3.2,0,4.7c0.6,0,1.2,0,1.8,0c1.9,0,2.4-1.2,2.5-2.2c0-1-0.4-2.4-2.5-2.5C36.1,23.1,35.5,23.1,34.9,23.1L34.9,23.1z"/>
</g>
</svg>
