<?xml version="1.0" encoding="utf-8"?>
<!-- Generator: Adobe Illustrator 25.4.1, SVG Export Plug-In . SVG Version: 6.00 Build 0)  -->
<svg version="1.1" id="Capa_1" xmlns="http://www.w3.org/2000/svg" xmlns:xlink="http://www.w3.org/1999/xlink" x="0px" y="0px"
	 viewBox="0 0 90 45" style="enable-background:new 0 0 90 45;" xml:space="preserve">
<style type="text/css">
	.st0{fill:#6DAC3B;}
	.st1{fill:#FFFFFF;}
	.st2{fill-rule:evenodd;clip-rule:evenodd;fill:#302E2B;}
	.st3{fill-rule:evenodd;clip-rule:evenodd;fill:#F6DC00;}
	.st4{fill-rule:evenodd;clip-rule:evenodd;fill:#D33741;}
	.st5{fill-rule:evenodd;clip-rule:evenodd;fill:#2D2927;}
	.st6{fill:#CCE673;}
	.st7{fill:#3BAD4C;}
</style>
<g>
	<path class="st0" d="M27,44.2c-2,0-3.7-1.6-3.7-3.7v-36c0-2,1.6-3.7,3.7-3.7h36c2,0,3.7,1.6,3.7,3.7v36c0,2-1.6,3.7-3.7,3.7"/>
	<polygon class="st1" points="30.4,31.7 29.3,38.6 29.2,38.6 28.3,31.7 25.3,31.7 27.6,42.4 30.8,42.4 33.3,31.7 	"/>
	<polygon class="st1" points="33.9,31.7 33.9,42.4 40.2,42.4 40.3,39.5 36.6,39.5 36.6,38.4 40.3,38.4 40.3,35.6 36.7,35.6 
		36.7,34.5 40.3,34.5 40.3,31.7 	"/>
	<path class="st1" d="M44.2,36.4h0.6c0.5,0,0.9-0.1,0.9-1c0-0.7-0.2-1.2-0.8-1.2h-0.6L44.2,36.4z M41.4,42.4l0.1-10.7h4.1
		c2.2,0,2.9,1.5,2.9,3.2c0,1.4-0.7,2.6-1.7,2.7v0c0.8,0.2,1.1,0.9,2.2,4.7h-3.1l-0.7-2.6C45,39.2,44.8,39,44.6,39h-0.4l0,3.4H41.4z"
		/>
	<path class="st1" d="M52.3,39.4h0.7c1.1,0,1.7-0.7,1.7-2.3c0-1.7-0.8-2.3-1.5-2.3h-0.8L52.3,39.4z M49.6,31.7h3.8
		c1.8,0,4.1,0.4,4.1,5.3c0,4.7-2.2,5.4-3.9,5.4h-4.1L49.6,31.7z"/>
	<polygon class="st1" points="58.3,31.7 58.3,42.4 64.6,42.4 64.7,39.5 61,39.5 61,38.4 64.7,38.4 64.7,35.6 61.1,35.6 61.1,34.5 
		64.7,34.5 64.7,31.7 	"/>
	<polyline class="st1" points="44.7,24.7 44.7,24.7 44.6,29.4 47,29.4 56.4,10.1 51.5,9 44.7,24.7 	"/>
	<path class="st2" d="M47.3,2.5c0.8-0.2,3.4-0.2,4.7,0.2c0.6,0.1,1.2,0.3,1.8,0.7c0,0,2.4,1.3,2.3,4c-0.3,0.2-0.4-0.1-0.6-0.2
		c-0.8-0.3-3.3-1-6.8-0.8c-0.4,0-0.8,0.3-1.2,0.2c-0.2,0.4-0.3,0.5-0.5,1.3c-0.1,0.4,0.2,1,0.3,1.3c0,0.4,0.4,0.7,0.5,1
		c0.2,0.5,0.3,1.5,0.2,2.4c-0.1,1-0.4,2.2-0.7,3.2c-0.3,1.1-0.7,2.1-1.1,2.8c-0.1,0.3-2.1,1-2.2,0.9c-0.1-0.2-2.9-3.4-2.9-7.7
		c0-1.3,0.7-2.2,1.2-3c0-1.3,0.4-2.4,0.8-3.4c1.1-3,3-2.8,3.5-2.8C47,2.8,47.2,2.6,47.3,2.5"/>
	<path class="st3" d="M47.3,4.3c0,0.1,2.5-0.5,5.4,0.4c0.2,0.1,0.8-0.9,0.9-1.1c-0.4-0.4-1.2-0.5-1.9-0.7c-1.2-0.3-4-0.5-4.7,0
		C47.1,2.8,47.4,3.5,47.3,4.3"/>
	<path class="st4" d="M47.3,4.5c-0.1,0.5-0.5,1.2,0,1.8c0.3,0.4,0.6,0.1,1.2,0c2.3-0.2,5.2,0.1,7.2,0.8c-1.1-1.9-3.7-2.6-5.6-2.7
		C50.2,4.4,47.9,4.3,47.3,4.5"/>
	<path class="st3" d="M45.6,3.8C44.8,5,43.9,7,43.5,8.6c-0.2,1,0.2,2.5,1.6,2.7c2,0.2,2.1-1.3,2-2c-0.1-0.3-0.2-0.8-0.3-1.1
		c0-0.6,0.3-1.1,0.4-1.6c-0.3-0.2-0.4-0.4-0.4-0.7c-0.1-0.5,0.2-1,0.2-1.5c0-0.5-0.1-1.5-0.3-1.5C46.3,2.9,45.9,3.4,45.6,3.8"/>
	<path class="st3" d="M53.6,3.5c0,0-0.6,1-0.9,1.2c0,0,2,0.5,3.1,2.3C55.9,7.1,56.2,5.3,53.6,3.5"/>
	<path class="st5" d="M46.8,4.4c0,0.3-0.2,0.5-0.5,0.5c-0.3,0-0.5-0.2-0.5-0.5c0-0.3,0.2-0.5,0.5-0.5C46.5,3.9,46.8,4.1,46.8,4.4"/>
	<path class="st1" d="M28.7,21.3c0,0-0.6,0.4-0.1,0.7c0.3,0.2,10.3-1.5,10.3-1.5s1.4-0.1,5.2-0.5c3.8-0.3,11.3-2.2,12.8-2.7
		c1.7-0.5,3.6-1.7,3.6-1.7L59.4,16c0,0-2.7,0.9-6.9,1.5C48,18.2,46,18.8,42,19.3C32.5,20.4,28.7,21.3,28.7,21.3"/>
	<path class="st6" d="M28.3,21.5c0,0,5.7-6.1,18.3-5.4c10.6,0.6,15.2-0.9,15.2-0.9C54.5,18.7,28.3,21.5,28.3,21.5"/>
	<path class="st7" d="M42.7,23.9c-7.6,1.2-12.5-0.7-14.4-2c0,0,16.7-2.1,24.6-3.8c4.4-1,8.5-2.5,8.5-2.5s-7.6,6.1-18.6,8.4H42.7z"/>
	<polyline class="st1" points="44.8,24.7 38,9 33,10.1 42.5,29.4 44.9,29.4 44.8,24.7 44.8,24.7 	"/>
</g>
</svg>
